{
.appVersion = "1352";
copyright = "Copyright 2012 Google Inc. All Rights Reserved.";
customParameters = (
{
name = vendorID;
value = MONO;
},
{
name = panose;
value = (
2,
2,
6,
0,
6,
5,
0,
2,
2,
0
);
},
{
name = unicodeRanges;
value = (
0,
1,
2,
3,
4,
5,
6,
7,
9,
29,
30,
31,
32,
33,
34,
35,
36,
37,
38,
39,
43,
44,
45,
46,
60,
62,
64,
67,
69
);
},
{
name = glyphOrder;
value = (
.notdef,
CR,
space,
uni0000,
exclam,
quotedbl,
numbersign,
dollar,
percent,
ampersand,
quotesingle,
parenleft,
parenright,
asterisk,
plus,
comma,
hyphen,
period,
slash,
zero,
one,
two,
three,
four,
five,
six,
seven,
eight,
nine,
colon,
semicolon,
less,
equal,
greater,
question,
at,
A,
B,
C,
D,
E,
F,
G,
H,
I,
J,
K,
L,
M,
N,
O,
P,
Q,
R,
S,
T,
U,
V,
W,
X,
Y,
Z,
bracketleft,
backslash,
bracketright,
asciicircum,
underscore,
grave,
a,
b,
c,
d,
e,
f,
g,
h,
i,
j,
k,
l,
m,
n,
o,
p,
q,
r,
s,
t,
u,
v,
w,
x,
y,
z,
braceleft,
bar,
braceright,
asciitilde,
guillemotleft,
guillemotright,
uni1780,
uni1781,
uni1782,
uni1783,
uni1784,
uni1785,
uni1786,
uni1787,
uni1788,
uni1789,
uni178A,
uni178B,
uni178C,
uni178D,
uni178E,
uni178F,
uni1790,
uni1791,
uni1792,
uni1793,
uni1794,
uni1795,
uni1796,
uni1797,
uni1798,
uni1799,
uni179A,
uni179B,
uni179C,
uni179D,
uni179E,
uni179F,
uni17A0,
uni17A1,
uni17A2,
uni17A3,
uni17A4,
uni17A5,
uni17A6,
uni17A7,
uni17A8,
uni17A9,
uni17AA,
uni17AB,
uni17AC,
uni17AD,
uni17AE,
uni17AF,
uni17B0,
uni17B1,
uni17B2,
uni17B3,
uni17B4,
uni17B5,
uni17B6,
uni17B7,
uni17B8,
uni17B9,
uni17BA,
uni17BB,
uni17BC,
uni17BD,
uni17BE,
uni17BF,
uni17C0,
uni17C1,
uni17C2,
uni17C3,
uni17C4,
uni17C5,
uni17C6,
uni17C7,
uni17C8,
uni17C9,
uni17CA,
uni17CB,
uni17CC,
uni17CD,
uni17CE,
uni17CF,
uni17D0,
uni17D1,
uni17D2,
uni17D3,
uni17D4,
uni17D5,
uni17D6,
uni17D7,
uni17D8,
uni17D9,
uni17DA,
uni17DB,
uni17DC,
uni17DD,
uni17E0,
uni17E1,
uni17E2,
uni17E3,
uni17E4,
uni17E5,
uni17E6,
uni17E7,
uni17E8,
uni17E9,
ta.half,
cho.half,
ru.half,
ruu.half,
uni17D2_1780,
uni17D2_1781,
uni17D2_1782,
uni17D21783,

glyphs = (
{
glyphname = .notdef;
lastChange = "2021-04-25 04:09:00 +0000";
layers = (
{
layerId = "E37246A9-A376-4020-9DA5-E0C9FF7935B5";
paths = (
{
closed = 1;
nodes = (
"102 0 LINE",
"922 0 LINE",
"922 1462 LINE",
"102 1462 LINE"
);
},
{
closed = 1;
nodes = (
"201 98 LINE",
"201 1364 LINE",
"823 1364 LINE",
"823 98 LINE"
);
}
);
userData = {
assembly = "NPUSHB[ ]	/* 39 values pushed */\0124 1 1 0 2 3 1 2 103 0 3 0 0 3 87 0 3 3 0 95 0 0 3 0 79 0 0 7 6 5 4 0 3 0 3 17 5 6 23 \012CALL[ ]	/* CallFunction */";
};
width = 1024;
},
{
layerId = "142AFF07-46EF-45A1-8A7E-F20FA79F7038";
paths = (
{
closed = 1;
nodes = (
"102 0 LINE",
"922 0 LINE",
"922 1462 LINE",
"102 1462 LINE"
);
},
{
closed = 1;
nodes = (
"201 98 LINE",
"201 1364 LINE",
"823 1364 LINE",
"823 98 LINE"
);
}
);
userData = {
assembly = "NPUSHB[ ]	/* 39 values pushed */\0124 1 1 0 2 3 1 2 103 0 3 0 0 3 87 0 3 3 0 95 0 0 3 0 79 0 0 7 6 5 4 0 3 0 3 17 5 6 23 \012CALL[ ]	/* CallFunction */";
};
width = 1024;
},
{
layerId = "1A30CC2E-2F0E-43C1-8400-CBCC094AAC97";
paths = (
{
closed = 1;
nodes = (
"102 0 LINE",
"922 0 LINE",
"922 1462 LINE",
"102 1462 LINE"
);
},
{
closed = 1;
nodes = (
"201 98 LINE",
"201 1364 LINE",
"823 1364 LINE",
"823 98 LINE"
);
}
);
userData = {
assembly = "NPUSHB[ ]	/* 39 values pushed */\0124 1 1 0 2 3 1 2 103 0 3 0 0 3 87 0 3 3 0 95 0 0 3 0 79 0 0 7 6 5 4 0 3 0 3 17 5 6 23 \012CALL[ ]	/* CallFunction */";
};
width = 1024;
},
{
layerId = "E08E4BD2-F9DD-4A22-B137-462FE0EF4830";
paths = (
{
closed = 1;
nodes = (
"102 0 LINE",
"922 0 LINE",
"922 1462 LINE",
"102 1462 LINE"
);
},
{
closed = 1;
nodes = (
"201 98 LINE",
"201 1364 LINE",
"823 1364 LINE",
"823 98 LINE"
);
}
);
userData = {
assembly = "NPUSHB[ ]	/* 39 values pushed */\0124 1 1 0 2 3 1 2 103 0 3 0 0 3 87 0 3 3 0 95 0 0 3 0 79 0 0 7 6 5 4 0 3 0 3 17 5 6 23 \012CALL[ ]	/* CallFunction */";
};
width = 1024;
},
{
layerId = "3540F6DD-AC2C-489F-A09A-29A5B6885314";
paths = (
{
closed = 1;
nodes = (
"102 0 LINE",
"922 0 LINE",
"922 1462 LINE",
"102 1462 LINE"
);
},
{
closed = 1;
nodes = (
"201 98 LINE",
"201 1364 LINE",
"823 1364 LINE",
"823 98 LINE"
);
}
);
userData = {
assembly = "NPUSHB[ ]	/* 39 values pushed */\0124 1 1 0 2 3 1 2 103 0 3 0 0 3 87 0 3 3 0 95 0 0 3 0 79 0 0 7 6 5 4 0 3 0 3 17 5 6 23 \012CALL[ ]	/* CallFunction */";
};
width = 1024;
}
);
note = .notdef;
},
{
glyphname = exclam;
lastChange = "2021-04-25 04:09:00 +0000";
layers = (
{
layerId = "E37246A9-A376-4020-9DA5-E0C9FF7935B5";
paths = (
{
closed = 1;
nodes = (
"217 1456 LINE",
"163 1456 LINE",
"163 478 LINE",
"217 478 LINE"
);
},
{
closed = 1;
nodes = (
"238 134 LINE",
"143 134 LINE",
"143 0 LINE",
"238 0 LINE"
);
}
);
width = 437;
},
{
layerId = "142AFF07-46EF-45A1-8A7E-F20FA79F7038";
paths = (
{
closed = 1;
nodes = (
"274 1456 LINE",
"154 1456 LINE",
"154 478 LINE",
"274 478 LINE"
);
},
{
closed = 1;
nodes = (
"285 166 LINE",
"143 166 LINE",
"143 0 LINE",
"285 0 LINE"
);
}
);
width = 458;
},
{
layerId = "1A30CC2E-2F0E-43C1-8400-CBCC094AAC97";
paths = (
{
closed = 1;
nodes = (
"143 478 LINE",
"340 478 LINE",
"340 1456 LINE",
"143 1456 LINE"
);
},
{
closed = 1;
nodes = (
"143 0 LINE",
"340 0 LINE",
"340 204 LINE",
"143 204 LINE"
);
}
);
userData = {
assembly = "NPUSHB[ ]	/* 41 values pushed */\0120 0 0 1 95 4 1 1 1 31 77 5 1 3 3 2 95 0 2 2 32 2 78 4 4 0 0 4 7 4 7 6 5 0 3 0 3 17 6 8 23 \012CALL[ ]	/* CallFunction */";
};
width = 483;
},
{
layerId = "E08E4BD2-F9DD-4A22-B137-462FE0EF4830";
paths = (
{
closed = 1;
nodes = (
"411 1456 LINE",
"119 1456 LINE",
"119 502 LINE",
"411 502 LINE"
);
},
{
closed = 1;
nodes = (
"411 256 LINE",
"119 256 LINE",
"119 0 LINE",
"411 0 LINE"
);
}
);
width = 507;
},
{
layerId = "3540F6DD-AC2C-489F-A09A-29A5B6885314";
paths = (
{
closed = 1;
nodes = (
"455 1456 LINE",
"104 1456 LINE",
"104 517 LINE",
"455 517 LINE"
);
},
{
closed = 1;
nodes = (
"455 288 LINE",
"104 288 LINE",
"104 0 LINE",
"455 0 LINE"
);
}
);
width = 522;
}
);
note = exclam;
unicode = 0021;
},
{
glyphname = quotedbl;
lastChange = "2021-04-25 04:09:00 +0000";
layers = (
{
layerId = "E37246A9-A376-4020-9DA5-E0C9FF7935B5";
paths = (
{
closed = 1;
nodes = (
"236 1391 LINE",
"236 1560 LINE",
"181 1560 LINE",
"181 1389 LINE",
"166 1122 LINE",
"216 1122 LINE"
);
},
{
closed = 1;
nodes = (
"417 1391 LINE",
"417 1560 LINE",
"362 1560 LINE",
"362 1389 LINE",
"347 1122 LINE",
"397 1122 LINE"
);
}
);
width = 602;
},
{
layerId = "142AFF07-46EF-45A1-8A7E-F20FA79F7038";
paths = (
{
closed = 1;
nodes = (
"277 1366 LINE",
"277 1560 LINE",
"174 1560 LINE",
"174 1374 LINE",
"166 1091 LINE",
"238 1091 LINE"
);
},
{
closed = 1;
nodes = (
"518 1366 LINE",
"518 1560 LINE",
"415 1560 LINE",
"415 1374 LINE",
"407 1091 LINE",
"479 1091 LINE"
);
}
);
width = 680;
},
{
layerId = "1A30CC2E-2F0E-43C1-8400-CBCC094AAC97";
paths = (
{
closed = 1;
nodes = (
"166 1560 LINE",
"166 1055 LINE",
"263 1055 LINE",
"324 1337 LINE",
"324 1560 LINE"
);
},
{
closed = 1;
nodes = (
"476 1560 LINE",
"476 1055 LINE",
"573 1055 LINE",
"634 1337 LINE",
"634 1560 LINE"
);
}
);
userData = {
assembly = "NPUSHB[ ]	/* 27 values pushed */\0125 0 2 0 1 1 76 2 1 0 0 1 95 3 1 1 1 33 0 78 17 18 17 17 4 8 26 \012CALL[ ]	/* CallFunction */";
};
width = 770;
},
{
layerId = "E08E4BD2-F9DD-4A22-B137-462FE0EF4830";
paths = (
{
closed = 1;
nodes = (
"355 1305 LINE",
"355 1560 LINE",
"139 1560 LINE",
"139 1329 LINE",
"139 1032 LINE",
"268 1032 LINE"
);
},
{
closed = 1;
nodes = (
"692 1305 LINE",
"692 1560 LINE",
"476 1560 LINE",
"476 1329 LINE",
"476 1032 LINE",
"605 1032 LINE"
);
}
);
width = 786;
},
{
layerId = "3540F6DD-AC2C-489F-A09A-29A5B6885314";
paths = (
{
closed = 1;
nodes = (
"375 1285 LINE",
"375 1560 LINE",
"122 1560 LINE",
"122 1313 LINE",
"122 1017 LINE",
"271 1017 LINE"
);
},
{
closed = 1;
nodes = (
"729 1285 LINE",
"729 1560 LINE",
"476 1560 LINE",
"476 1313 LINE",
"476 1017 LINE",
"625 1017 LINE"
);
}
);
width = 796;
}
);
note = quotedbl;
unicode = 0022;
},
{
glyphname = numbersign;
lastChange = "2021-04-25 04:09:00 +0000";
layers = (
{
layerId = "E37246A9-A376-4020-9DA5-E0C9FF7935B5";
paths = (
{
closed = 1;
nodes = (
"390 410 LINE",
"754 410 LINE",
"679 0 LINE",
"735 0 LINE",
"810 410 LINE",
"1104 410 LINE",
"1104 462 LINE",
"819 462 LINE",
"915 986 LINE",
"1179 986 LINE",
"1179 1040 LINE",
"925 1040 LINE",
"1001 1456 LINE",
"945 1456 LINE",
"869 1040 LINE",
"504 1040 LINE",
"580 1456 LINE",
"524 1456 LINE",
"449 1040 LINE",
"139 1040 LINE",
"139 986 LINE",
"439 986 LINE",
"344 462 LINE",
"63 462 LINE",
"63 410 LINE",
"334 410 LINE",
"260 0 LINE",
"316 0 LINE"
);
},
{
closed = 1;
nodes = (
"859 986 LINE",
"763 462 LINE",
"400 462 LINE",
"494 986 LINE"
);
}
);
width = 1246;
},
{
layerId = "142AFF07-46EF-45A1-8A7E-F20FA79F7038";
paths = (
{
closed = 1;
nodes = (
"417 410 LINE",
"731 410 LINE",
"654 0 LINE",
"754 0 LINE",
"831 410 LINE",
"1104 410 LINE",
"1104 503 LINE",
"849 503 LINE",
"932 945 LINE",
"1179 945 LINE",
"1179 1040 LINE",
"950 1040 LINE",
"1029 1456 LINE",
"929 1456 LINE",
"850 1040 LINE",
"536 1040 LINE",
"615 1456 LINE",
"515 1456 LINE",
"437 1040 LINE",
"139 1040 LINE",
"139 945 LINE",
"418 945 LINE",
"336 503 LINE",
"63 503 LINE",
"63 410 LINE",
"317 410 LINE",
"241 0 LINE",
"340 0 LINE"
);
},
{
closed = 1;
nodes = (
"832 945 LINE",
"749 503 LINE",
"436 503 LINE",
"518 945 LINE"
);
}
);
width = 1246;
},
{
layerId = "1A30CC2E-2F0E-43C1-8400-CBCC094AAC97";
paths = (
{
closed = 1;
nodes = (
"625 0 LINE",
"776 0 LINE",
"856 410 LINE",
"1104 410 LINE",
"1104 550 LINE",
"884 550 LINE",
"952 898 LINE",
"1179 898 LINE",
"1179 1040 LINE",
"979 1040 LINE",
"1061 1456 LINE",
"910 1456 LINE",
"828 1040 LINE",
"573 1040 LINE",
"655 1456 LINE",
"504 1456 LINE",
"422 1040 LINE",
"139 1040 LINE",
"139 898 LINE",
"394 898 LINE",
"326 550 LINE",
"63 550 LINE",
"63 410 LINE",
"298 410 LINE",
"218 0 LINE",
"369 0 LINE",
"449 410 LINE",
"705 410 LINE"
);
},
{
closed = 1;
nodes = (
"477 550 LINE",
"545 898 LINE",
"801 898 LINE",
"733 550 LINE"
);
}
);
userData = {
assembly = "MPPEM[ ]	/* MeasurePixelPerEm */\012PUSHB[ ]	/* 1 value pushed */\01223 \012LT[ ]	/* LessThan */\012IF[ ]	/* If */\012NPUSHB[ ]	/* 40 values pushed */\01215 10 2 2 16 13 11 3 1 0 2 1 103 7 1 5 5 31 77 14 9 2 3 3 4 95 8 6 2 4 4 34 77 12 1 0 0 32 0 78 \012ELSE[ ]	/* Else */\012NPUSHB[ ]	/* 38 values pushed */\0128 6 2 4 14 9 2 3 2 4 3 104 15 10 2 2 16 13 11 3 1 0 2 1 103 7 1 5 5 31 77 12 1 0 0 32 0 78 \012EIF[ ]	/* EndIf */\012NPUSHB[ ]	/* 30 values pushed */\0120 0 31 30 29 28 0 27 0 27 26 25 24 23 22 21 20 19 17 17 17 17 17 17 17 17 17 17 8 31 \012CALL[ ]	/* CallFunction */";
};
width = 1246;
},
{
layerId = "E08E4BD2-F9DD-4A22-B137-462FE0EF4830";
paths = (
{
closed = 1;
nodes = (
"450 410 LINE",
"642 410 LINE",
"570 0 LINE",
"753 0 LINE",
"825 410 LINE",
"1080 410 LINE",
"1080 579 LINE",
"854 579 LINE",
"905 869 LINE",
"1155 869 LINE",
"1155 1040 LINE",
"935 1040 LINE",
"1009 1456 LINE",
"825 1456 LINE",
"752 1040 LINE",
"560 1040 LINE",
"633 1456 LINE",
"450 1456 LINE",
"376 1040 LINE",
"115 1040 LINE",
"115 869 LINE",
"346 869 LINE",
"295 579 LINE",
"39 579 LINE",
"39 410 LINE",
"266 410 LINE",
"194 0 LINE",
"378 0 LINE"
);
},
{
closed = 1;
nodes = (
"722 869 LINE",
"671 579 LINE",
"479 579 LINE",
"530 869 LINE"
);
}
);
width = 1198;
},
{
layerId = "3540F6DD-AC2C-489F-A09A-29A5B6885314";
paths = (
{
closed = 1;
nodes = (
"451 410 LINE",
"603 410 LINE",
"536 0 LINE",
"739 0 LINE",
"806 410 LINE",
"1065 410 LINE",
"1065 597 LINE",
"835 597 LINE",
"876 851 LINE",
"1140 851 LINE",
"1140 1040 LINE",
"908 1040 LINE",
"977 1456 LINE",
"772 1456 LINE",
"705 1040 LINE",
"552 1040 LINE",
"619 1456 LINE",
"416 1456 LINE",
"347 1040 LINE",
"100 1040 LINE",
"100 851 LINE",
"316 851 LINE",
"276 597 LINE",
"24 597 LINE",
"24 410 LINE",
"246 410 LINE",
"179 0 LINE",
"384 0 LINE"
);
},
{
closed = 1;
nodes = (
"673 851 LINE",
"632 597 LINE",
"480 597 LINE",
"521 851 LINE"
);
}
);
width = 1168;
}
);
note = numbersign;
unicode = 0023;
},
{
glyphname = dollar;
lastChange = "2021-04-25 04:09:00 +0000";
layers = (
{
layerId = "E37246A9-A376-4020-9DA5-E0C9FF7935B5";
paths = (
{
closed = 1;
nodes = (
"576 -20 LINE",
"749 -10 OFFCURVE",
"957 185 OFFCURVE",
"957 346 QCURVE SMOOTH",
"957 456 OFFCURVE",
"870 601 OFFCURVE",
"689 705 OFFCURVE",
"549 754 QCURVE SMOOTH",
"400 803 OFFCURVE",
"239 901 OFFCURVE",
"178 1025 OFFCURVE",
"178 1112 QCURVE SMOOTH",
"178 1241 OFFCURVE",
"361 1424 OFFCURVE",
"535 1424 QCURVE SMOOTH",
"705 1424 OFFCURVE",
"895 1213 OFFCURVE",
"895 1047 QCURVE",
"942 1047 LINE",
"944 1052 LINE",
"947 1245 OFFCURVE",
"746 1466 OFFCURVE",
"565 1476 QCURVE",
"565 1663 LINE",
"510 1663 LINE",
"510 1476 LINE",
"333 1469 OFFCURVE",
"124 1270 OFFCURVE",
"124 1110 QCURVE SMOOTH",
"124 999 OFFCURVE",
"209 853 OFFCURVE",
"389 749 OFFCURVE",
"532 702 QCURVE SMOOTH",
"674 651 OFFCURVE",
"836 552 OFFCURVE",
"903 431 OFFCURVE",
"903 344 QCURVE SMOOTH",
"903 259 OFFCURVE",
"813 117 OFFCURVE",
"651 32 OFFCURVE",
"542 32 QCURVE SMOOTH",
"430 32 OFFCURVE",
"243 110 OFFCURVE",
"131 276 OFFCURVE",
"131 409 QCURVE",
"85 409 LINE",
"83 403 LINE",
"80 260 OFFCURVE",
"194 75 OFFCURVE",
"395 -17 OFFCURVE",
"521 -21 QCURVE",
"521 -208 LINE",
"576 -208 LINE"
);
}
);
width = 1086;
},
{
layerId = "142AFF07-46EF-45A1-8A7E-F20FA79F7038";
paths = (
{
closed = 1;
nodes = (
"599 -19 LINE",
"775 -4 OFFCURVE",
"982 195 OFFCURVE",
"982 361 QCURVE SMOOTH",
"982 472 OFFCURVE",
"895 624 OFFCURVE",
"715 733 OFFCURVE",
"577 780 QCURVE SMOOTH",
"448 823 OFFCURVE",
"305 911 OFFCURVE",
"248 1021 OFFCURVE",
"248 1098 QCURVE SMOOTH",
"248 1217 OFFCURVE",
"401 1372 OFFCURVE",
"549 1372 QCURVE SMOOTH",
"693 1372 OFFCURVE",
"853 1181 OFFCURVE",
"853 1029 QCURVE",
"962 1029 LINE",
"969 1031 LINE",
"971 1228 OFFCURVE",
"777 1457 OFFCURVE",
"603 1474 QCURVE",
"603 1677 LINE",
"500 1677 LINE",
"500 1474 LINE",
"328 1461 OFFCURVE",
"128 1258 OFFCURVE",
"128 1095 QCURVE SMOOTH",
"128 983 OFFCURVE",
"216 829 OFFCURVE",
"397 719 OFFCURVE",
"536 675 QCURVE SMOOTH",
"658 632 OFFCURVE",
"801 543 OFFCURVE",
"862 433 OFFCURVE",
"862 359 QCURVE SMOOTH",
"862 280 OFFCURVE",
"784 155 OFFCURVE",
"640 84 OFFCURVE",
"542 84 QCURVE SMOOTH",
"447 84 OFFCURVE",
"290 152 OFFCURVE",
"197 300 OFFCURVE",
"197 418 QCURVE",
"85 418 LINE",
"83 413 LINE",
"80 272 OFFCURVE",
"187 86 OFFCURVE",
"377 -11 OFFCURVE",
"497 -19 QCURVE",
"497 -208 LINE",
"599 -208 LINE"
);
}
);
width = 1097;
},
{
layerId = "1A30CC2E-2F0E-43C1-8400-CBCC094AAC97";
paths = (
{
closed = 1;
nodes = (
"806 2 OFFCURVE",
"1012 206 OFFCURVE",
"1012 378 QCURVE SMOOTH",
"1012 491 OFFCURVE",
"924 651 OFFCURVE",
"746 766 OFFCURVE",
"610 810 QCURVE SMOOTH",
"504 846 OFFCURVE",
"382 922 OFFCURVE",
"330 1017 OFFCURVE",
"330 1081 QCURVE SMOOTH",
"330 1188 OFFCURVE",
"448 1311 OFFCURVE",
"566 1311 QCURVE SMOOTH",
"678 1311 OFFCURVE",
"803 1143 OFFCURVE",
"803 1007 QCURVE",
"985 1007 LINE",
"999 1007 LINE",
"999 1208 OFFCURVE",
"814 1447 OFFCURVE",
"647 1471 QCURVE",
"647 1693 LINE",
"489 1693 LINE",
"489 1472 LINE",
"323 1451 OFFCURVE",
"133 1243 OFFCURVE",
"133 1078 QCURVE SMOOTH",
"133 965 OFFCURVE",
"225 800 OFFCURVE",
"407 684 OFFCURVE",
"541 643 QCURVE SMOOTH",
"639 610 OFFCURVE",
"760 532 OFFCURVE",
"815 436 OFFCURVE",
"815 376 QCURVE SMOOTH",
"815 304 OFFCURVE",
"750 200 OFFCURVE",
"628 144 OFFCURVE",
"542 144 QCURVE SMOOTH",
"467 144 OFFCURVE",
"345 201 OFFCURVE",
"274 327 OFFCURVE",
"274 429 QCURVE",
"84 429 LINE",
"82 424 LINE",
"80 286 OFFCURVE",
"178 98 OFFCURVE",
"356 -5 OFFCURVE",
"470 -17 QCURVE",
"470 -208 LINE",
"626 -208 LINE",
"626 -17 LINE"
);
}
);
userData = {
assembly = "NPUSHB[ ]	/* 60 values pushed */\01230 27 2 5 3 52 2 2 0 2 2 76 0 4 5 1 5 4 1 128 0 1 2 5 1 2 126 0 3 0 5 4 3 5 105 0 2 0 0 2 89 0 2 2 0 95 0 0 2 0 79 34 36 31 35 37 16 6 8 28 \012CALL[ ]	/* CallFunction */";
};
width = 1110;
},
{
layerId = "E08E4BD2-F9DD-4A22-B137-462FE0EF4830";
paths = (
{
closed = 1;
nodes = (
"643 -16 LINE",
"826 3 OFFCURVE",
"1041 212 OFFCURVE",
"1041 385 QCURVE SMOOTH",
"1041 504 OFFCURVE",
"946 667 OFFCURVE",
"753 790 OFFCURVE",
"606 848 QCURVE SMOOTH",
"527 879 OFFCURVE",
"436 942 OFFCURVE",
"398 1018 OFFCURVE",
"398 1070 QCURVE SMOOTH",
"398 1152 OFFCURVE",
"483 1251 OFFCURVE",
"569 1251 QCURVE SMOOTH",
"652 1251 OFFCURVE",
"750 1123 OFFCURVE",
"750 1005 QCURVE",
"1034 1005 LINE",
"1037 1010 LINE",
"1039 1203 OFFCURVE",
"838 1444 OFFCURVE",
"663 1470 QCURVE",
"663 1688 LINE",
"504 1688 LINE",
"504 1473 LINE",
"322 1454 OFFCURVE",
"107 1239 OFFCURVE",
"107 1071 QCURVE SMOOTH",
"107 951 OFFCURVE",
"202 785 OFFCURVE",
"395 664 OFFCURVE",
"543 610 QCURVE SMOOTH",
"619 581 OFFCURVE",
"709 517 OFFCURVE",
"749 437 OFFCURVE",
"749 383 QCURVE SMOOTH",
"749 329 OFFCURVE",
"706 248 OFFCURVE",
"622 204 OFFCURVE",
"561 204 QCURVE SMOOTH",
"498 204 OFFCURVE",
"400 255 OFFCURVE",
"343 365 OFFCURVE",
"343 454 QCURVE",
"59 454 LINE",
"57 449 LINE",
"55 303 OFFCURVE",
"164 104 OFFCURVE",
"360 -4 OFFCURVE",
"484 -17 QCURVE",
"484 -214 LINE",
"643 -214 LINE"
);
}
);
width = 1107;
},
{
layerId = "3540F6DD-AC2C-489F-A09A-29A5B6885314";
paths = (
{
closed = 1;
nodes = (
"654 -15 LINE",
"839 4 OFFCURVE",
"1059 216 OFFCURVE",
"1059 389 QCURVE SMOOTH",
"1059 512 OFFCURVE",
"960 677 OFFCURVE",
"758 805 OFFCURVE",
"604 872 QCURVE SMOOTH",
"541 900 OFFCURVE",
"469 954 OFFCURVE",
"440 1019 OFFCURVE",
"440 1063 QCURVE SMOOTH",
"440 1130 OFFCURVE",
"504 1214 OFFCURVE",
"571 1214 QCURVE SMOOTH",
"636 1214 OFFCURVE",
"717 1111 OFFCURVE",
"717 1004 QCURVE",
"1064 1004 LINE",
"1061 1012 LINE",
"1064 1200 OFFCURVE",
"853 1442 OFFCURVE",
"673 1469 QCURVE",
"673 1685 LINE",
"513 1685 LINE",
"513 1474 LINE",
"321 1456 OFFCURVE",
"91 1237 OFFCURVE",
"91 1067 QCURVE SMOOTH",
"91 942 OFFCURVE",
"187 776 OFFCURVE",
"388 652 OFFCURVE",
"544 590 QCURVE SMOOTH",
"606 563 OFFCURVE",
"677 508 OFFCURVE",
"708 438 OFFCURVE",
"708 387 QCURVE SMOOTH",
"708 344 OFFCURVE",
"678 278 OFFCURVE",
"618 241 OFFCURVE",
"573 241 QCURVE SMOOTH",
"518 241 OFFCURVE",
"434 288 OFFCURVE",
"386 389 OFFCURVE",
"386 470 QCURVE",
"43 470 LINE",
"41 465 LINE",
"39 313 OFFCURVE",
"156 108 OFFCURVE",
"362 -4 OFFCURVE",
"493 -17 QCURVE",
"493 -218 LINE",
"654 -218 LINE"
);
}
);
width = 1105;
}
);
note = dollar;
unicode = 0024;
},
{
glyphname = percent;
lastChange = "2021-04-25 04:09:00 +0000";
layers = (
{
layerId = "E37246A9-A376-4020-9DA5-E0C9FF7935B5";
paths = (
{
closed = 1;
nodes = (
"1054 1300 LINE",
"343 162 LINE",
"388 131 LINE",
"1099 1269 LINE"
);
},
{
closed = 1;
nodes = (
"1307 59 OFFCURVE",
"1376 195 OFFCURVE",
"1376 279 QCURVE SMOOTH",
"1376 357 LINE SMOOTH",
"1376 441 OFFCURVE",
"1307 577 OFFCURVE",
"1184 657 OFFCURVE",
"1104 657 QCURVE SMOOTH",
"1024 657 OFFCURVE",
"902 576 OFFCURVE",
"833 440 OFFCURVE",
"833 357 QCURVE SMOOTH",
"833 279 LINE SMOOTH",
"833 195 OFFCURVE",
"902 59 OFFCURVE",
"1025 -21 OFFCURVE",
"1106 -21 QCURVE SMOOTH",
"1185 -21 OFFCURVE"
);
},
{
closed = 1;
nodes = (
"888 178 OFFCURVE",
"888 279 QCURVE SMOOTH",
"888 357 LINE SMOOTH",
"888 462 OFFCURVE",
"1001 602 OFFCURVE",
"1104 602 QCURVE SMOOTH",
"1209 602 OFFCURVE",
"1321 463 OFFCURVE",
"1321 357 QCURVE SMOOTH",
"1321 279 LINE SMOOTH",
"1321 178 OFFCURVE",
"1209 34 OFFCURVE",
"1106 34 QCURVE SMOOTH",
"1000 34 OFFCURVE"
);
},
{
closed = 1;
nodes = (
"551 880 OFFCURVE",
"620 1015 OFFCURVE",
"620 1099 QCURVE SMOOTH",
"620 1176 LINE SMOOTH",
"620 1260 OFFCURVE",
"551 1397 OFFCURVE",
"428 1477 OFFCURVE",
"349 1477 QCURVE SMOOTH",
"269 1477 OFFCURVE",
"146 1397 OFFCURVE",
"77 1260 OFFCURVE",
"77 1176 QCURVE SMOOTH",
"77 1099 LINE SMOOTH",
"77 1015 OFFCURVE",
"146 880 OFFCURVE",
"270 800 OFFCURVE",
"351 800 QCURVE SMOOTH",
"430 800 OFFCURVE"
);
},
{
closed = 1;
nodes = (
"132 999 OFFCURVE",
"132 1099 QCURVE SMOOTH",
"132 1176 LINE SMOOTH",
"132 1275 OFFCURVE",
"246 1422 OFFCURVE",
"349 1422 QCURVE SMOOTH",
"452 1422 OFFCURVE",
"565 1276 OFFCURVE",
"565 1176 QCURVE SMOOTH",
"565 1099 LINE SMOOTH",
"565 999 OFFCURVE",
"453 855 OFFCURVE",
"351 855 QCURVE SMOOTH",
"245 855 OFFCURVE"
);
}
);
width = 1457;
},
{
layerId = "142AFF07-46EF-45A1-8A7E-F20FA79F7038";
paths = (
{
closed = 1;
nodes = (
"1040 1307 LINE",
"329 169 LINE",
"404 121 LINE",
"1115 1259 LINE"
);
},
{
closed = 1;
nodes = (
"1308 59 OFFCURVE",
"1380 195 OFFCURVE",
"1380 279 QCURVE SMOOTH",
"1380 357 LINE SMOOTH",
"1380 441 OFFCURVE",
"1308 577 OFFCURVE",
"1179 657 OFFCURVE",
"1094 657 QCURVE SMOOTH",
"1009 657 OFFCURVE",
"881 576 OFFCURVE",
"809 440 OFFCURVE",
"809 357 QCURVE SMOOTH",
"809 279 LINE SMOOTH",
"809 195 OFFCURVE",
"881 59 OFFCURVE",
"1010 -21 OFFCURVE",
"1096 -21 QCURVE SMOOTH",
"1180 -21 OFFCURVE"
);
},
{
closed = 1;
nodes = (
"906 190 OFFCURVE",
"906 279 QCURVE SMOOTH",
"906 357 LINE SMOOTH",
"906 448 OFFCURVE",
"1004 571 OFFCURVE",
"1094 571 QCURVE SMOOTH",
"1185 571 OFFCURVE",
"1283 448 OFFCURVE",
"1283 357 QCURVE SMOOTH",
"1283 279 LINE SMOOTH",
"1283 190 OFFCURVE",
"1185 65 OFFCURVE",
"1096 65 QCURVE SMOOTH",
"1004 65 OFFCURVE"
);
},
{
closed = 1;
nodes = (
"576 880 OFFCURVE",
"647 1015 OFFCURVE",
"647 1099 QCURVE SMOOTH",
"647 1176 LINE SMOOTH",
"647 1260 OFFCURVE",
"576 1397 OFFCURVE",
"447 1477 OFFCURVE",
"362 1477 QCURVE SMOOTH",
"277 1477 OFFCURVE",
"148 1397 OFFCURVE",
"77 1260 OFFCURVE",
"77 1176 QCURVE SMOOTH",
"77 1099 LINE SMOOTH",
"77 1015 OFFCURVE",
"149 880 OFFCURVE",
"278 800 OFFCURVE",
"364 800 QCURVE SMOOTH",
"448 800 OFFCURVE"
);
},
{
closed = 1;
nodes = (
"174 1011 OFFCURVE",
"174 1099 QCURVE SMOOTH",
"174 1176 LINE SMOOTH",
"174 1263 OFFCURVE",
"272 1391 OFFCURVE",
"362 1391 QCURVE SMOOTH",
"452 1391 OFFCURVE",
"550 1264 OFFCURVE",
"550 1176 QCURVE SMOOTH",
"550 1099 LINE SMOOTH",
"550 1011 OFFCURVE",
"453 886 OFFCURVE",
"364 886 QCURVE SMOOTH",
"272 886 OFFCURVE"
);
}
);
width = 1458;
},
{
layerId = "1A30CC2E-2F0E-43C1-8400-CBCC094AAC97";
paths = (
{
closed = 1;
nodes = (
"1310 58 OFFCURVE",
"1384 194 OFFCURVE",
"1384 279 QCURVE SMOOTH",
"1384 357 LINE SMOOTH",
"1384 442 OFFCURVE",
"1309 578 OFFCURVE",
"1173 657 OFFCURVE",
"1082 657 QCURVE SMOOTH",
"991 657 OFFCURVE",
"856 577 OFFCURVE",
"782 441 OFFCURVE",
"782 357 QCURVE SMOOTH",
"782 279 LINE SMOOTH",
"782 194 OFFCURVE",
"856 58 OFFCURVE",
"992 -21 OFFCURVE",
"1084 -21 QCURVE SMOOTH",
"1175 -21 OFFCURVE"
);
},
{
closed = 1;
nodes = (
"928 204 OFFCURVE",
"928 279 QCURVE SMOOTH",
"928 357 LINE SMOOTH",
"928 431 OFFCURVE",
"1008 535 OFFCURVE",
"1082 535 QCURVE SMOOTH",
"1156 535 OFFCURVE",
"1238 431 OFFCURVE",
"1238 357 QCURVE SMOOTH",
"1238 279 LINE SMOOTH",
"1238 204 OFFCURVE",
"1158 101 OFFCURVE",
"1084 101 QCURVE SMOOTH",
"1009 101 OFFCURVE"
);
},
{
closed = 1;
nodes = (
"605 879 OFFCURVE",
"679 1014 OFFCURVE",
"679 1099 QCURVE SMOOTH",
"679 1176 LINE SMOOTH",
"679 1261 OFFCURVE",
"605 1398 OFFCURVE",
"469 1477 OFFCURVE",
"377 1477 QCURVE SMOOTH",
"286 1477 OFFCURVE",
"151 1397 OFFCURVE",
"77 1261 OFFCURVE",
"77 1176 QCURVE SMOOTH",
"77 1099 LINE SMOOTH",
"77 1014 OFFCURVE",
"152 879 OFFCURVE",
"288 800 OFFCURVE",
"379 800 QCURVE SMOOTH",
"470 800 OFFCURVE"
);
},
{
closed = 1;
nodes = (
"223 1025 OFFCURVE",
"223 1099 QCURVE SMOOTH",
"223 1176 LINE SMOOTH",
"223 1250 OFFCURVE",
"303 1355 OFFCURVE",
"377 1355 QCURVE SMOOTH",
"451 1355 OFFCURVE",
"533 1250 OFFCURVE",
"533 1176 QCURVE SMOOTH",
"533 1099 LINE SMOOTH",
"533 1024 OFFCURVE",
"452 922 OFFCURVE",
"379 922 QCURVE SMOOTH",
"304 922 OFFCURVE"
);
},
{
closed = 1;
nodes = (
"422 110 LINE",
"1133 1248 LINE",
"1024 1315 LINE",
"313 177 LINE"
);
}
);
userData = {
assembly = "NPUSHB[ ]	/* 87 values pushed */\01265 1 6 7 67 66 2 2 3 2 76 11 1 6 10 1 4 1 6 4 105 0 1 0 3 2 1 3 105 0 7 7 5 97 0 5 5 37 77 9 1 2 2 0 97 8 1 0 0 38 0 78 51 50 33 32 19 18 1 0 58 56 50 63 51 63 42 40 32 49 33 49 26 24 18 31 19 31 10 8 0 17 1 17 12 8 22 \012CALL[ ]	/* CallFunction */";
};
width = 1460;
},
{
layerId = "E08E4BD2-F9DD-4A22-B137-462FE0EF4830";
paths = (
{
closed = 1;
nodes = (
"996 1322 LINE",
"285 184 LINE",
"427 109 LINE",
"1138 1247 LINE"
);
},
{
closed = 1;
nodes = (
"1304 58 OFFCURVE",
"1379 194 OFFCURVE",
"1379 280 QCURVE SMOOTH",
"1379 357 LINE SMOOTH",
"1379 443 OFFCURVE",
"1303 579 OFFCURVE",
"1162 657 OFFCURVE",
"1062 657 QCURVE SMOOTH",
"963 657 OFFCURVE",
"820 578 OFFCURVE",
"745 442 OFFCURVE",
"745 357 QCURVE SMOOTH",
"745 280 LINE SMOOTH",
"745 195 OFFCURVE",
"821 59 OFFCURVE",
"964 -20 OFFCURVE",
"1064 -20 QCURVE SMOOTH",
"1164 -20 OFFCURVE"
);
},
{
closed = 1;
nodes = (
"939 223 OFFCURVE",
"939 280 QCURVE SMOOTH",
"939 357 LINE SMOOTH",
"939 414 OFFCURVE",
"1002 495 OFFCURVE",
"1062 495 QCURVE SMOOTH",
"1121 495 OFFCURVE",
"1185 414 OFFCURVE",
"1185 357 QCURVE SMOOTH",
"1185 280 LINE SMOOTH",
"1185 218 OFFCURVE",
"1129 142 OFFCURVE",
"1064 142 QCURVE SMOOTH",
"1008 142 OFFCURVE"
);
},
{
closed = 1;
nodes = (
"607 878 OFFCURVE",
"682 1013 OFFCURVE",
"682 1099 QCURVE SMOOTH",
"682 1176 LINE SMOOTH",
"682 1263 OFFCURVE",
"607 1399 OFFCURVE",
"466 1477 OFFCURVE",
"365 1477 QCURVE SMOOTH",
"266 1477 OFFCURVE",
"124 1398 OFFCURVE",
"49 1262 OFFCURVE",
"49 1176 QCURVE SMOOTH",
"49 1099 LINE SMOOTH",
"49 1013 OFFCURVE",
"125 878 OFFCURVE",
"268 800 OFFCURVE",
"367 800 QCURVE SMOOTH",
"467 800 OFFCURVE"
);
},
{
closed = 1;
nodes = (
"243 1041 OFFCURVE",
"243 1099 QCURVE SMOOTH",
"243 1176 LINE SMOOTH",
"243 1234 OFFCURVE",
"306 1315 OFFCURVE",
"365 1315 QCURVE SMOOTH",
"424 1315 OFFCURVE",
"489 1234 OFFCURVE",
"489 1176 QCURVE SMOOTH",
"489 1099 LINE SMOOTH",
"489 1041 OFFCURVE",
"425 962 OFFCURVE",
"367 962 QCURVE SMOOTH",
"307 962 OFFCURVE"
);
}
);
width = 1429;
},
{
layerId = "3540F6DD-AC2C-489F-A09A-29A5B6885314";
paths = (
{
closed = 1;
nodes = (
"979 1326 LINE",
"268 188 LINE",
"430 108 LINE",
"1141 1246 LINE"
);
},
{
closed = 1;
nodes = (
"1301 58 OFFCURVE",
"1376 194 OFFCURVE",
"1376 281 QCURVE SMOOTH",
"1376 357 LINE SMOOTH",
"1376 444 OFFCURVE",
"1300 580 OFFCURVE",
"1155 657 OFFCURVE",
"1050 657 QCURVE SMOOTH",
"945 657 OFFCURVE",
"798 579 OFFCURVE",
"722 443 OFFCURVE",
"722 357 QCURVE SMOOTH",
"722 281 LINE SMOOTH",
"722 195 OFFCURVE",
"800 59 OFFCURVE",
"947 -19 OFFCURVE",
"1052 -19 QCURVE SMOOTH",
"1157 -19 OFFCURVE"
);
},
{
closed = 1;
nodes = (
"946 235 OFFCURVE",
"946 281 QCURVE SMOOTH",
"946 357 LINE SMOOTH",
"946 404 OFFCURVE",
"998 470 OFFCURVE",
"1050 470 QCURVE SMOOTH",
"1100 470 OFFCURVE",
"1152 404 OFFCURVE",
"1152 357 QCURVE SMOOTH",
"1152 281 LINE SMOOTH",
"1152 226 OFFCURVE",
"1111 167 OFFCURVE",
"1052 167 QCURVE SMOOTH",
"1008 167 OFFCURVE"
);
},
{
closed = 1;
nodes = (
"609 877 OFFCURVE",
"684 1012 OFFCURVE",
"684 1099 QCURVE SMOOTH",
"684 1176 LINE SMOOTH",
"684 1264 OFFCURVE",
"609 1399 OFFCURVE",
"464 1477 OFFCURVE",
"358 1477 QCURVE SMOOTH",
"253 1477 OFFCURVE",
"108 1399 OFFCURVE",
"32 1263 OFFCURVE",
"32 1176 QCURVE SMOOTH",
"32 1099 LINE SMOOTH",
"32 1012 OFFCURVE",
"108 877 OFFCURVE",
"255 800 OFFCURVE",
"360 800 QCURVE SMOOTH",
"465 800 OFFCURVE"
);
},
{
closed = 1;
nodes = (
"255 1051 OFFCURVE",
"255 1099 QCURVE SMOOTH",
"255 1176 LINE SMOOTH",
"255 1224 OFFCURVE",
"308 1290 OFFCURVE",
"358 1290 QCURVE SMOOTH",
"408 1290 OFFCURVE",
"462 1224 OFFCURVE",
"462 1176 QCURVE SMOOTH",
"462 1099 LINE SMOOTH",
"462 1052 OFFCURVE",
"408 987 OFFCURVE",
"360 987 QCURVE SMOOTH",
"309 987 OFFCURVE"
);
}
);
width = 1410;
}
);
note = percent;
unicode = 0025;
},
{
glyphname = ampersand;
lastChange = "2021-04-25 04:09:00 +0000";
layers = (
{
layerId = "E37246A9-A376-4020-9DA5-E0C9FF7935B5";
paths = (
{
closed = 1;
nodes = (
"855 98 OFFCURVE",
"931 177 QCURVE",
"1088 0 LINE",
"1148 0 LINE",
"1150 5 LINE",
"965 216 LINE",
"1028 302 OFFCURVE",
"1098 507 OFFCURVE",
"1098 632 QCURVE",
"1043 632 LINE",
"1043 523 OFFCURVE",
"982 333 OFFCURVE",
"928 257 QCURVE",
"453 797 LINE",
"655 958 LINE SMOOTH",
"725 1014 OFFCURVE",
"802 1131 OFFCURVE",
"802 1215 QCURVE SMOOTH",
"802 1294 OFFCURVE",
"737 1412 OFFCURVE",
"614 1477 OFFCURVE",
"526 1477 QCURVE SMOOTH",
"431 1477 OFFCURVE",
"295 1405 OFFCURVE",
"221 1266 OFFCURVE",
"221 1167 QCURVE SMOOTH",
"221 1076 OFFCURVE",
"299 906 OFFCURVE",
"381 803 QCURVE",
"368 793 OFFCURVE",
"343 773 OFFCURVE",
"330 762 QCURVE SMOOTH",
"209 660 OFFCURVE",
"74 466 OFFCURVE",
"74 352 QCURVE SMOOTH",
"74 237 OFFCURVE",
"179 70 OFFCURVE",
"373 -21 OFFCURVE",
"508 -21 QCURVE SMOOTH",
"654 -21 OFFCURVE"
);
},
{
closed = 1;
nodes = (
"128 218 OFFCURVE",
"128 352 QCURVE SMOOTH",
"128 430 OFFCURVE",
"224 605 OFFCURVE",
"361 723 QCURVE",
"413 764 LINE",
"896 216 LINE",
"820 128 OFFCURVE",
"618 33 OFFCURVE",
"508 33 QCURVE SMOOTH",
"324 33 OFFCURVE"
);
},
{
closed = 1;
nodes = (
"276 1090 OFFCURVE",
"276 1169 QCURVE SMOOTH",
"276 1278 OFFCURVE",
"406 1423 OFFCURVE",
"526 1423 QCURVE SMOOTH",
"633 1423 OFFCURVE",
"746 1309 OFFCURVE",
"746 1215 QCURVE SMOOTH",
"746 1157 OFFCURVE",
"690 1050 OFFCURVE",
"630 1000 QCURVE SMOOTH",
"421 834 LINE",
"346 922 OFFCURVE"
);
}
);
width = 1253;
},
{
layerId = "142AFF07-46EF-45A1-8A7E-F20FA79F7038";
paths = (
{
closed = 1;
nodes = (
"851 72 OFFCURVE",
"929 142 QCURVE",
"1052 0 LINE",
"1190 0 LINE",
"1192 5 LINE",
"1007 222 LINE",
"1076 309 OFFCURVE",
"1149 523 OFFCURVE",
"1149 651 QCURVE",
"1038 651 LINE",
"1038 552 OFFCURVE",
"984 376 OFFCURVE",
"936 305 QCURVE",
"524 785 LINE",
"683 909 LINE SMOOTH",
"768 973 OFFCURVE",
"858 1102 OFFCURVE",
"858 1193 QCURVE SMOOTH",
"858 1275 OFFCURVE",
"781 1403 OFFCURVE",
"641 1477 OFFCURVE",
"545 1477 QCURVE SMOOTH",
"441 1477 OFFCURVE",
"292 1400 OFFCURVE",
"212 1253 OFFCURVE",
"212 1148 QCURVE SMOOTH",
"212 1061 OFFCURVE",
"289 898 OFFCURVE",
"369 797 QCURVE",
"361 791 OFFCURVE",
"345 779 OFFCURVE",
"337 772 QCURVE SMOOTH",
"209 675 OFFCURVE",
"74 487 OFFCURVE",
"74 370 QCURVE SMOOTH",
"74 252 OFFCURVE",
"185 76 OFFCURVE",
"387 -21 OFFCURVE",
"526 -21 QCURVE SMOOTH",
"653 -21 OFFCURVE"
);
},
{
closed = 1;
nodes = (
"194 246 OFFCURVE",
"194 370 QCURVE SMOOTH",
"194 436 OFFCURVE",
"273 587 OFFCURVE",
"389 682 QCURVE SMOOTH",
"435 717 LINE",
"862 222 LINE",
"792 153 OFFCURVE",
"619 79 OFFCURVE",
"526 79 QCURVE SMOOTH",
"365 79 OFFCURVE"
);
},
{
closed = 1;
nodes = (
"332 1083 OFFCURVE",
"332 1150 QCURVE SMOOTH",
"332 1246 OFFCURVE",
"443 1376 OFFCURVE",
"545 1376 QCURVE SMOOTH",
"639 1376 OFFCURVE",
"744 1272 OFFCURVE",
"744 1193 QCURVE SMOOTH",
"744 1137 OFFCURVE",
"695 1038 OFFCURVE",
"636 994 QCURVE SMOOTH",
"460 860 LINE",
"395 939 OFFCURVE"
);
}
);
width = 1270;
},
{
layerId = "1A30CC2E-2F0E-43C1-8400-CBCC094AAC97";
paths = (
{
closed = 1;
nodes = (
"846 42 OFFCURVE",
"926 102 QCURVE",
"1011 0 LINE",
"1240 0 LINE",
"1242 5 LINE",
"1057 229 LINE",
"1131 318 OFFCURVE",
"1209 542 OFFCURVE",
"1209 673 QCURVE",
"1033 673 LINE",
"1033 585 OFFCURVE",
"987 427 OFFCURVE",
"946 362 QCURVE",
"606 771 LINE",
"715 851 LINE SMOOTH",
"818 926 OFFCURVE",
"923 1069 OFFCURVE",
"923 1167 QCURVE SMOOTH",
"923 1253 OFFCURVE",
"833 1393 OFFCURVE",
"673 1477 OFFCURVE",
"567 1477 QCURVE SMOOTH",
"453 1477 OFFCURVE",
"289 1395 OFFCURVE",
"201 1238 OFFCURVE",
"201 1125 QCURVE SMOOTH",
"201 1043 OFFCURVE",
"277 888 OFFCURVE",
"355 789 QCURVE",
"353 788 OFFCURVE",
"348 785 OFFCURVE",
"345 783 QCURVE SMOOTH",
"210 692 OFFCURVE",
"74 512 OFFCURVE",
"74 392 QCURVE SMOOTH",
"74 270 OFFCURVE",
"191 84 OFFCURVE",
"404 -21 OFFCURVE",
"548 -21 QCURVE SMOOTH",
"652 -21 OFFCURVE"
);
},
{
closed = 1;
nodes = (
"271 279 OFFCURVE",
"271 392 QCURVE SMOOTH",
"271 442 OFFCURVE",
"330 566 OFFCURVE",
"421 634 QCURVE SMOOTH",
"461 663 LINE",
"822 228 LINE",
"760 182 OFFCURVE",
"620 133 OFFCURVE",
"548 133 QCURVE SMOOTH",
"413 133 OFFCURVE"
);
},
{
closed = 1;
nodes = (
"398 1074 OFFCURVE",
"398 1127 QCURVE SMOOTH",
"398 1209 OFFCURVE",
"486 1322 OFFCURVE",
"567 1322 QCURVE SMOOTH",
"645 1322 OFFCURVE",
"742 1228 OFFCURVE",
"742 1167 QCURVE SMOOTH",
"742 1113 OFFCURVE",
"701 1024 OFFCURVE",
"644 986 QCURVE SMOOTH",
"506 891 LINE",
"452 959 OFFCURVE"
);
}
);
userData = {
assembly = "MPPEM[ ]	/* MeasurePixelPerEm */\012PUSHB[ ]	/* 1 value pushed */\01222 \012LT[ ]	/* LessThan */\012IF[ ]	/* If */\012NPUSHB[ ]	/* 18 values pushed */\01225 7 2 2 5 44 43 33 26 4 4 2 37 1 0 4 3 76 \012ELSE[ ]	/* Else */\012NPUSHB[ ]	/* 18 values pushed */\01225 7 2 2 5 44 43 33 26 4 4 2 37 1 3 4 3 76 \012EIF[ ]	/* EndIf */\012MPPEM[ ]	/* MeasurePixelPerEm */\012PUSHB[ ]	/* 1 value pushed */\01222 \012LT[ ]	/* LessThan */\012IF[ ]	/* If */\012NPUSHB[ ]	/* 36 values pushed */\0120 5 5 1 97 0 1 1 37 77 0 2 2 0 97 3 6 2 0 0 38 77 7 1 4 4 0 97 3 6 2 0 0 38 0 78 \012ELSE[ ]	/* Else */\012NPUSHB[ ]	/* 33 values pushed */\0120 5 5 1 97 0 1 1 37 77 0 2 2 3 95 0 3 3 32 77 7 1 4 4 0 97 6 1 0 0 38 0 78 \012EIF[ ]	/* EndIf */\012NPUSHB[ ]	/* 23 values pushed */\01241 40 1 0 59 57 40 50 41 50 36 34 30 29 18 16 0 39 1 39 8 8 22 \012CALL[ ]	/* CallFunction */";
};
width = 1289;
},
{
layerId = "E08E4BD2-F9DD-4A22-B137-462FE0EF4830";
paths = (
{
closed = 1;
nodes = (
"804 34 OFFCURVE",
"889 89 QCURVE",
"966 0 LINE",
"1290 0 LINE",
"1292 5 LINE",
"1084 249 LINE",
"1154 339 OFFCURVE",
"1222 571 OFFCURVE",
"1222 709 QCURVE",
"1004 709 LINE",
"1004 631 OFFCURVE",
"964 491 OFFCURVE",
"928 431 QCURVE",
"652 753 LINE",
"745 819 LINE SMOOTH",
"830 880 OFFCURVE",
"928 1042 OFFCURVE",
"928 1140 QCURVE SMOOTH",
"928 1234 OFFCURVE",
"837 1386 OFFCURVE",
"676 1477 OFFCURVE",
"570 1477 QCURVE SMOOTH",
"450 1477 OFFCURVE",
"271 1383 OFFCURVE",
"173 1213 OFFCURVE",
"173 1097 QCURVE SMOOTH",
"173 1018 OFFCURVE",
"240 866 OFFCURVE",
"308 774 QCURVE",
"303 771 OFFCURVE",
"292 763 OFFCURVE",
"287 759 QCURVE SMOOTH",
"165 672 OFFCURVE",
"45 505 OFFCURVE",
"45 392 QCURVE SMOOTH",
"45 269 OFFCURVE",
"162 83 OFFCURVE",
"376 -21 OFFCURVE",
"521 -21 QCURVE SMOOTH",
"624 -21 OFFCURVE"
);
},
{
closed = 1;
nodes = (
"337 318 OFFCURVE",
"337 407 QCURVE SMOOTH",
"337 453 OFFCURVE",
"374 544 OFFCURVE",
"425 592 QCURVE",
"444 605 LINE",
"744 257 LINE",
"695 230 OFFCURVE",
"589 203 OFFCURVE",
"536 203 QCURVE SMOOTH",
"447 203 OFFCURVE"
);
},
{
closed = 1;
nodes = (
"434 1057 OFFCURVE",
"434 1100 QCURVE SMOOTH",
"434 1165 OFFCURVE",
"504 1252 OFFCURVE",
"569 1252 QCURVE SMOOTH",
"628 1252 OFFCURVE",
"701 1174 OFFCURVE",
"701 1124 QCURVE SMOOTH",
"701 1079 OFFCURVE",
"662 1003 OFFCURVE",
"606 967 QCURVE SMOOTH",
"520 911 LINE",
"477 966 OFFCURVE"
);
}
);
width = 1278;
},
{
layerId = "3540F6DD-AC2C-489F-A09A-29A5B6885314";
paths = (
{
closed = 1;
nodes = (
"778 29 OFFCURVE",
"866 81 QCURVE",
"938 0 LINE",
"1321 0 LINE",
"1323 5 LINE",
"1101 261 LINE",
"1168 352 OFFCURVE",
"1230 589 OFFCURVE",
"1230 731 QCURVE",
"986 731 LINE",
"986 659 OFFCURVE",
"949 531 OFFCURVE",
"917 474 QCURVE",
"681 742 LINE",
"764 799 LINE SMOOTH",
"838 851 OFFCURVE",
"931 1025 OFFCURVE",
"931 1123 QCURVE SMOOTH",
"931 1222 OFFCURVE",
"840 1382 OFFCURVE",
"678 1477 OFFCURVE",
"572 1477 QCURVE SMOOTH",
"448 1477 OFFCURVE",
"260 1376 OFFCURVE",
"156 1197 OFFCURVE",
"156 1080 QCURVE SMOOTH",
"156 1003 OFFCURVE",
"217 853 OFFCURVE",
"279 765 QCURVE",
"272 760 OFFCURVE",
"258 749 OFFCURVE",
"251 744 QCURVE SMOOTH",
"137 659 OFFCURVE",
"27 501 OFFCURVE",
"27 392 QCURVE SMOOTH",
"27 269 OFFCURVE",
"144 83 OFFCURVE",
"358 -21 OFFCURVE",
"504 -21 QCURVE SMOOTH",
"606 -21 OFFCURVE"
);
},
{
closed = 1;
nodes = (
"378 343 OFFCURVE",
"378 416 QCURVE SMOOTH",
"378 460 OFFCURVE",
"402 530 OFFCURVE",
"427 566 QCURVE",
"433 569 LINE",
"696 275 LINE",
"655 260 OFFCURVE",
"570 246 OFFCURVE",
"529 246 QCURVE SMOOTH",
"468 246 OFFCURVE"
);
},
{
closed = 1;
nodes = (
"456 1046 OFFCURVE",
"456 1083 QCURVE SMOOTH",
"456 1138 OFFCURVE",
"515 1209 OFFCURVE",
"570 1209 QCURVE SMOOTH",
"617 1209 OFFCURVE",
"676 1141 OFFCURVE",
"676 1097 QCURVE SMOOTH",
"676 1058 OFFCURVE",
"638 990 OFFCURVE",
"582 955 QCURVE SMOOTH",
"529 923 LINE",
"492 970 OFFCURVE"
);
}
);
width = 1271;
}
);
note = ampersand;
unicode = 0026;
},
{
glyphname = quotesingle;
lastChange = "2021-04-25 04:09:00 +0000";
layers = (
{
layerId = "E37246A9-A376-4020-9DA5-E0C9FF7935B5";
paths = (
{
closed = 1;
nodes = (
"236 1391 LINE",
"236 1560 LINE",
"181 1560 LINE",
"181 1389 LINE",
"166 1122 LINE",
"216 1122 LINE"
);
}
);
width = 421;
},
{
layerId = "142AFF07-46EF-45A1-8A7E-F20FA79F7038";
paths = (
{
closed = 1;
nodes = (
"277 1366 LINE",
"277 1560 LINE",
"174 1560 LINE",
"174 1374 LINE",
"166 1091 LINE",
"238 1091 LINE"
);
}
);
width = 439;
},
{
layerId = "1A30CC2E-2F0E-43C1-8400-CBCC094AAC97";
paths = (
{
closed = 1;
nodes = (
"166 1560 LINE",
"166 1055 LINE",
"263 1055 LINE",
"324 1337 LINE",
"324 1560 LINE"
);
}
);
userData = {
assembly = "NPUSHB[ ]	/* 22 values pushed */\0120 1 0 1 1 76 0 0 0 1 95 0 1 1 33 0 78 17 17 2 8 24 \012CALL[ ]	/* CallFunction */";
};
width = 460;
},
{
layerId = "E08E4BD2-F9DD-4A22-B137-462FE0EF4830";
paths = (
{
closed = 1;
nodes = (
"355 1305 LINE",
"355 1560 LINE",
"139 1560 LINE",
"139 1329 LINE",
"139 1032 LINE",
"268 1032 LINE"
);
}
);
width = 449;
},
{
layerId = "3540F6DD-AC2C-489F-A09A-29A5B6885314";
paths = (
{
closed = 1;
nodes = (
"375 1285 LINE",
"375 1560 LINE",
"122 1560 LINE",
"122 1313 LINE",
"122 1017 LINE",
"271 1017 LINE"
);
}
);
width = 442;
}
);
note = quotesingle;
unicode = 0027;
},
{
glyphname = parenleft;
lastChange = "2021-04-25 04:09:00 +0000";
layers = (
{
layerId = "E37246A9-A376-4020-9DA5-E0C9FF7935B5";
paths = (
{
closed = 1;
nodes = (
"547 -427 LINE",
"471 -376 OFFCURVE",
"334 -175 OFFCURVE",
"228 96 OFFCURVE",
"168 405 OFFCURVE",
"168 564 QCURVE SMOOTH",
"168 590 LINE SMOOTH",
"168 748 OFFCURVE",
"228 1057 OFFCURVE",
"334 1328 OFFCURVE",
"471 1529 OFFCURVE",
"547 1580 QCURVE",
"531 1616 LINE",
"525 1616 LINE",
"440 1565 OFFCURVE",
"291 1358 OFFCURVE",
"178 1079 OFFCURVE",
"114 755 OFFCURVE",
"114 586 QCURVE SMOOTH",
"114 566 LINE SMOOTH",
"114 389 OFFCURVE",
"177 64 OFFCURVE",
"290 -209 OFFCURVE",
"439 -410 OFFCURVE",
"525 -463 QCURVE",
"531 -463 LINE"
);
}
);
width = 615;
},
{
layerId = "142AFF07-46EF-45A1-8A7E-F20FA79F7038";
paths = (
{
closed = 1;
nodes = (
"595 -394 LINE",
"522 -340 OFFCURVE",
"391 -150 OFFCURVE",
"291 104 OFFCURVE",
"234 405 OFFCURVE",
"234 571 QCURVE SMOOTH",
"234 591 LINE SMOOTH",
"234 757 OFFCURVE",
"291 1058 OFFCURVE",
"392 1312 OFFCURVE",
"522 1499 OFFCURVE",
"595 1552 QCURVE",
"569 1625 LINE",
"563 1625 LINE",
"477 1577 OFFCURVE",
"316 1377 OFFCURVE",
"189 1102 OFFCURVE",
"114 770 OFFCURVE",
"114 588 QCURVE SMOOTH",
"114 573 LINE SMOOTH",
"114 387 OFFCURVE",
"188 55 OFFCURVE",
"315 -217 OFFCURVE",
"476 -413 OFFCURVE",
"563 -463 QCURVE",
"569 -463 LINE"
);
}
);
width = 637;
},
{
layerId = "1A30CC2E-2F0E-43C1-8400-CBCC094AAC97";
paths = (
{
closed = 1;
nodes = (
"581 -297 OFFCURVE",
"458 -121 OFFCURVE",
"365 114 OFFCURVE",
"311 406 OFFCURVE",
"311 580 QCURVE SMOOTH",
"311 593 LINE SMOOTH",
"311 767 OFFCURVE",
"365 1059 OFFCURVE",
"459 1293 OFFCURVE",
"581 1465 OFFCURVE",
"650 1519 QCURVE",
"613 1635 LINE",
"607 1636 LINE",
"520 1590 OFFCURVE",
"345 1400 OFFCURVE",
"201 1128 OFFCURVE",
"114 788 OFFCURVE",
"114 591 QCURVE SMOOTH",
"114 582 LINE SMOOTH",
"114 384 OFFCURVE",
"201 44 OFFCURVE",
"345 -227 OFFCURVE",
"520 -416 OFFCURVE",
"607 -463 QCURVE",
"613 -463 LINE",
"650 -355 LINE"
);
}
);
userData = {
assembly = "PUSHB[ ]	/* 4 values pushed */\01212 0 1 50 \012CALL[ ]	/* CallFunction */";
};
width = 662;
},
{
layerId = "E08E4BD2-F9DD-4A22-B137-462FE0EF4830";
paths = (
{
closed = 1;
nodes = (
"644 -307 LINE",
"579 -256 OFFCURVE",
"466 -98 OFFCURVE",
"382 121 OFFCURVE",
"335 399 OFFCURVE",
"335 568 QCURVE SMOOTH",
"335 594 LINE SMOOTH",
"335 763 OFFCURVE",
"382 1041 OFFCURVE",
"466 1259 OFFCURVE",
"579 1417 OFFCURVE",
"644 1466 QCURVE",
"591 1612 LINE",
"585 1612 LINE",
"489 1571 OFFCURVE",
"311 1391 OFFCURVE",
"171 1125 OFFCURVE",
"89 788 OFFCURVE",
"89 592 QCURVE SMOOTH",
"89 570 LINE SMOOTH",
"89 374 OFFCURVE",
"171 37 OFFCURVE",
"311 -229 OFFCURVE",
"489 -409 OFFCURVE",
"585 -450 QCURVE",
"591 -450 LINE"
);
}
);
width = 685;
},
{
layerId = "3540F6DD-AC2C-489F-A09A-29A5B6885314";
paths = (
{
closed = 1;
nodes = (
"640 -277 LINE",
"577 -231 OFFCURVE",
"471 -83 OFFCURVE",
"393 125 OFFCURVE",
"350 394 OFFCURVE",
"350 561 QCURVE SMOOTH",
"350 595 LINE SMOOTH",
"350 761 OFFCURVE",
"393 1030 OFFCURVE",
"471 1238 OFFCURVE",
"577 1387 OFFCURVE",
"640 1433 QCURVE",
"577 1598 LINE",
"571 1597 LINE",
"470 1560 OFFCURVE",
"290 1385 OFFCURVE",
"152 1123 OFFCURVE",
"73 788 OFFCURVE",
"73 593 QCURVE SMOOTH",
"73 563 LINE SMOOTH",
"73 367 OFFCURVE",
"152 32 OFFCURVE",
"290 -230 OFFCURVE",
"470 -405 OFFCURVE",
"571 -442 QCURVE",
"577 -442 LINE"
);
}
);
width = 699;
}
);
note = parenleft;
unicode = 0028;
},
{
glyphname = parenright;
lastChange = "2021-04-25 04:09:00 +0000";
layers = (
{
layerId = "E37246A9-A376-4020-9DA5-E0C9FF7935B5";
paths = (
{
closed = 1;
nodes = (
"119 -410 OFFCURVE",
"268 -209 OFFCURVE",
"380 64 OFFCURVE",
"444 389 OFFCURVE",
"444 566 QCURVE SMOOTH",
"444 586 LINE SMOOTH",
"444 755 OFFCURVE",
"380 1079 OFFCURVE",
"266 1358 OFFCURVE",
"117 1565 OFFCURVE",
"33 1616 QCURVE",
"27 1616 LINE",
"11 1580 LINE",
"87 1529 OFFCURVE",
"224 1328 OFFCURVE",
"329 1057 OFFCURVE",
"390 748 OFFCURVE",
"390 590 QCURVE SMOOTH",
"390 564 LINE SMOOTH",
"390 405 OFFCURVE",
"329 96 OFFCURVE",
"224 -175 OFFCURVE",
"87 -376 OFFCURVE",
"11 -427 QCURVE",
"27 -463 LINE",
"33 -463 LINE"
);
}
);
width = 608;
},
{
layerId = "142AFF07-46EF-45A1-8A7E-F20FA79F7038";
paths = (
{
closed = 1;
nodes = (
"129 -413 OFFCURVE",
"290 -217 OFFCURVE",
"417 55 OFFCURVE",
"492 387 OFFCURVE",
"492 573 QCURVE SMOOTH",
"492 588 LINE SMOOTH",
"492 770 OFFCURVE",
"417 1102 OFFCURVE",
"289 1377 OFFCURVE",
"128 1577 OFFCURVE",
"43 1625 QCURVE",
"37 1625 LINE",
"11 1556 LINE",
"82 1503 OFFCURVE",
"212 1313 OFFCURVE",
"312 1057 OFFCURVE",
"372 755 OFFCURVE",
"372 591 QCURVE SMOOTH",
"372 571 LINE SMOOTH",
"372 405 OFFCURVE",
"313 102 OFFCURVE",
"213 -153 OFFCURVE",
"83 -342 OFFCURVE",
"11 -394 QCURVE",
"37 -463 LINE",
"43 -463 LINE"
);
}
);
width = 629;
},
{
layerId = "1A30CC2E-2F0E-43C1-8400-CBCC094AAC97";
paths = (
{
closed = 1;
nodes = (
"315 -227 OFFCURVE",
"460 44 OFFCURVE",
"547 384 OFFCURVE",
"547 582 QCURVE SMOOTH",
"547 591 LINE SMOOTH",
"547 788 OFFCURVE",
"460 1128 OFFCURVE",
"315 1400 OFFCURVE",
"141 1590 OFFCURVE",
"54 1636 QCURVE",
"48 1636 LINE",
"11 1528 LINE",
"76 1473 OFFCURVE",
"197 1296 OFFCURVE",
"293 1058 OFFCURVE",
"350 764 OFFCURVE",
"350 593 QCURVE SMOOTH",
"350 580 LINE SMOOTH",
"350 406 OFFCURVE",
"295 109 OFFCURVE",
"201 -128 OFFCURVE",
"79 -302 OFFCURVE",
"11 -355 QCURVE",
"48 -463 LINE",
"54 -463 LINE",
"141 -416 OFFCURVE"
);
}
);
userData = {
assembly = "PUSHB[ ]	/* 4 values pushed */\01214 0 1 50 \012CALL[ ]	/* CallFunction */";
};
width = 654;
},
{
layerId = "E08E4BD2-F9DD-4A22-B137-462FE0EF4830";
paths = (
{
closed = 1;
nodes = (
"218 -410 OFFCURVE",
"400 -226 OFFCURVE",
"546 43 OFFCURVE",
"631 378 OFFCURVE",
"631 570 QCURVE SMOOTH",
"631 592 LINE SMOOTH",
"631 783 OFFCURVE",
"546 1118 OFFCURVE",
"400 1388 OFFCURVE",
"218 1572 OFFCURVE",
"121 1612 QCURVE",
"115 1612 LINE",
"61 1470 LINE",
"125 1421 OFFCURVE",
"236 1260 OFFCURVE",
"321 1041 OFFCURVE",
"370 762 OFFCURVE",
"370 594 QCURVE SMOOTH",
"370 568 LINE SMOOTH",
"370 399 OFFCURVE",
"322 119 OFFCURVE",
"237 -99 OFFCURVE",
"126 -258 OFFCURVE",
"61 -307 QCURVE",
"115 -450 LINE",
"121 -450 LINE"
);
}
);
width = 712;
},
{
layerId = "3540F6DD-AC2C-489F-A09A-29A5B6885314";
paths = (
{
closed = 1;
nodes = (
"266 -406 OFFCURVE",
"453 -225 OFFCURVE",
"599 42 OFFCURVE",
"683 375 OFFCURVE",
"683 563 QCURVE SMOOTH",
"683 593 LINE SMOOTH",
"683 780 OFFCURVE",
"599 1112 OFFCURVE",
"453 1380 OFFCURVE",
"266 1561 OFFCURVE",
"163 1597 QCURVE",
"157 1597 LINE",
"92 1434 LINE",
"155 1388 OFFCURVE",
"261 1238 OFFCURVE",
"339 1030 OFFCURVE",
"382 761 OFFCURVE",
"382 595 QCURVE SMOOTH",
"382 561 LINE SMOOTH",
"382 395 OFFCURVE",
"339 126 OFFCURVE",
"260 -81 OFFCURVE",
"155 -230 OFFCURVE",
"92 -277 QCURVE",
"157 -442 LINE",
"163 -442 LINE"
);
}
);
width = 748;
}
);
note = parenright;
unicode = 0029;
},
{
glyphname = asterisk;
lastChange = "2021-04-25 04:09:00 +0000";
layers = (
{
layerId = "E37246A9-A376-4020-9DA5-E0C9FF7935B5";
paths = (
{
closed = 1;
nodes = (
"508 1014 LINE",
"868 1151 LINE",
"848 1204 LINE",
"496 1061 LINE",
"503 1456 LINE",
"447 1456 LINE",
"446 1062 LINE",
"84 1195 LINE",
"66 1141 LINE",
"429 1017 LINE",
"195 693 LINE",
"240 661 LINE",
"468 986 LINE",
"710 664 LINE",
"757 697 LINE"
);
}
);
width = 948;
},
{
layerId = "142AFF07-46EF-45A1-8A7E-F20FA79F7038";
paths = (
{
closed = 1;
nodes = (
"546 995 LINE",
"880 1110 LINE",
"847 1210 LINE",
"522 1083 LINE",
"530 1456 LINE",
"426 1456 LINE",
"430 1086 LINE",
"98 1209 LINE",
"66 1109 LINE",
"398 1001 LINE",
"181 700 LINE",
"266 640 LINE",
"470 944 LINE",
"684 638 LINE",
"769 700 LINE"
);
}
);
width = 953;
},
{
layerId = "1A30CC2E-2F0E-43C1-8400-CBCC094AAC97";
paths = (
{
closed = 1;
nodes = (
"845 1218 LINE",
"552 1108 LINE",
"562 1456 LINE",
"401 1456 LINE",
"411 1114 LINE",
"115 1225 LINE",
"66 1071 LINE",
"362 982 LINE",
"164 708 LINE",
"296 615 LINE",
"472 894 LINE",
"653 607 LINE",
"784 703 LINE",
"591 973 LINE",
"893 1062 LINE"
);
}
);
userData = {
assembly = "NPUSHB[ ]	/* 25 values pushed */\01214 13 12 9 8 7 6 5 4 3 2 1 12 0 73 0 0 0 31 0 78 26 1 8 23 \012CALL[ ]	/* CallFunction */";
};
width = 958;
},
{
layerId = "E08E4BD2-F9DD-4A22-B137-462FE0EF4830";
paths = (
{
closed = 1;
nodes = (
"579 954 LINE",
"885 1043 LINE",
"829 1223 LINE",
"538 1103 LINE",
"558 1456 LINE",
"370 1456 LINE",
"388 1109 LINE",
"91 1232 LINE",
"34 1055 LINE",
"336 966 LINE",
"128 694 LINE",
"280 588 LINE",
"453 869 LINE",
"628 579 LINE",
"779 689 LINE"
);
}
);
width = 914;
},
{
layerId = "3540F6DD-AC2C-489F-A09A-29A5B6885314";
paths = (
{
closed = 1;
nodes = (
"572 942 LINE",
"880 1031 LINE",
"819 1226 LINE",
"529 1100 LINE",
"556 1456 LINE",
"351 1456 LINE",
"374 1106 LINE",
"76 1236 LINE",
"14 1045 LINE",
"320 956 LINE",
"106 685 LINE",
"270 571 LINE",
"441 853 LINE",
"612 562 LINE",
"776 680 LINE"
);
}
);
width = 887;
}
);
note = asterisk;
unicode = 002A;
},
{
glyphname = plus;
lastChange = "2021-04-25 04:09:00 +0000";
layers = (
{
layerId = "E37246A9-A376-4020-9DA5-E0C9FF7935B5";
paths = (
{
closed = 1;
nodes = (
"590 649 LINE",
"1071 649 LINE",
"1071 702 LINE",
"590 702 LINE",
"590 1206 LINE",
"535 1206 LINE",
"535 702 LINE",
"73 702 LINE",
"73 649 LINE",
"535 649 LINE",
"535 146 LINE",
"590 146 LINE"
);
}
);
width = 1145;
},
{
layerId = "142AFF07-46EF-45A1-8A7E-F20FA79F7038";
paths = (
{
closed = 1;
nodes = (
"627 629 LINE",
"1071 629 LINE",
"1071 739 LINE",
"627 739 LINE",
"627 1206 LINE",
"507 1206 LINE",
"507 739 LINE",
"73 739 LINE",
"73 629 LINE",
"507 629 LINE",
"507 146 LINE",
"627 146 LINE"
);
}
);
width = 1145;
},
{
layerId = "1A30CC2E-2F0E-43C1-8400-CBCC094AAC97";
paths = (
{
closed = 1;
nodes = (
"1071 783 LINE",
"671 783 LINE",
"671 1206 LINE",
"474 1206 LINE",
"474 783 LINE",
"73 783 LINE",
"73 605 LINE",
"474 605 LINE",
"474 146 LINE",
"671 146 LINE",
"671 605 LINE",
"1071 605 LINE"
);
}
);
userData = {
assembly = "NPUSHB[ ]	/* 41 values pushed */\0120 3 2 0 3 87 4 1 2 6 5 2 1 0 2 1 103 0 3 3 0 95 0 0 3 0 79 0 0 0 11 0 11 17 17 17 17 17 7 8 27 \012CALL[ ]	/* CallFunction */";
};
width = 1145;
},
{
layerId = "E08E4BD2-F9DD-4A22-B137-462FE0EF4830";
paths = (
{
closed = 1;
nodes = (
"688 560 LINE",
"1047 560 LINE",
"1047 812 LINE",
"688 812 LINE",
"688 1206 LINE",
"411 1206 LINE",
"411 812 LINE",
"49 812 LINE",
"49 560 LINE",
"411 560 LINE",
"411 146 LINE",
"688 146 LINE"
);
}
);
width = 1098;
},
{
layerId = "3540F6DD-AC2C-489F-A09A-29A5B6885314";
paths = (
{
closed = 1;
nodes = (
"699 532 LINE",
"1032 532 LINE",
"1032 830 LINE",
"699 830 LINE",
"699 1206 LINE",
"372 1206 LINE",
"372 830 LINE",
"34 830 LINE",
"34 532 LINE",
"372 532 LINE",
"372 146 LINE",
"699 146 LINE"
);
}
);
width = 1069;
}
);
note = plus;
unicode = 002B;
},
{
glyphname = comma;
lastChange = "2021-04-25 04:09:00 +0000";
layers = (
{
layerId = "E37246A9-A376-4020-9DA5-E0C9FF7935B5";
paths = (
{
closed = 1;
nodes = (
"235 -61 OFFCURVE",
"235 27 QCURVE SMOOTH",
"235 159 LINE",
"181 159 LINE",
"181 25 LINE SMOOTH",
"181 -49 OFFCURVE",
"138 -162 OFFCURVE",
"92 -223 QCURVE",
"129 -255 LINE",
"179 -201 OFFCURVE"
);
}
);
width = 383;
},
{
layerId = "142AFF07-46EF-45A1-8A7E-F20FA79F7038";
paths = (
{
closed = 1;
nodes = (
"272 -45 OFFCURVE",
"272 48 QCURVE SMOOTH",
"272 188 LINE",
"152 188 LINE",
"152 45 LINE SMOOTH",
"152 -33 OFFCURVE",
"107 -163 OFFCURVE",
"60 -229 QCURVE",
"131 -281 LINE",
"197 -219 OFFCURVE"
);
}
);
width = 393;
},
{
layerId = "1A30CC2E-2F0E-43C1-8400-CBCC094AAC97";
paths = (
{
closed = 1;
nodes = (
"315 -26 OFFCURVE",
"315 72 QCURVE SMOOTH",
"315 221 LINE",
"118 221 LINE",
"118 69 LINE SMOOTH",
"118 -15 OFFCURVE",
"70 -165 OFFCURVE",
"23 -237 QCURVE",
"134 -311 LINE",
"217 -240 OFFCURVE"
);
}
);
userData = {
assembly = "NPUSHB[ ]	/* 12 values pushed */\0121 1 0 73 0 0 0 118 21 1 8 23 \012CALL[ ]	/* CallFunction */";
};
width = 404;
},
{
layerId = "E08E4BD2-F9DD-4A22-B137-462FE0EF4830";
paths = (
{
closed = 1;
nodes = (
"400 -78 OFFCURVE",
"400 39 QCURVE SMOOTH",
"401 243 LINE",
"139 243 LINE",
"139 25 LINE SMOOTH",
"139 -67 OFFCURVE",
"97 -216 OFFCURVE",
"58 -286 QCURVE",
"202 -364 LINE",
"285 -291 OFFCURVE"
);
}
);
width = 503;
},
{
layerId = "3540F6DD-AC2C-489F-A09A-29A5B6885314";
paths = (
{
closed = 1;
nodes = (
"453 -111 OFFCURVE",
"453 19 QCURVE SMOOTH",
"454 257 LINE",
"152 257 LINE",
"152 -2 LINE SMOOTH",
"152 -99 OFFCURVE",
"114 -248 OFFCURVE",
"80 -316 QCURVE",
"244 -397 LINE",
"327 -323 OFFCURVE"
);
}
);
width = 564;
}
);
note = comma;
unicode = 002C;
},
{
glyphname = hyphen;
lastChange = "2021-04-25 04:09:00 +0000";
layers = (
{
layerId = "E37246A9-A376-4020-9DA5-E0C9FF7935B5";
paths = (
{
closed = 1;
nodes = (
"624 653 LINE",
"154 653 LINE",
"154 599 LINE",
"624 599 LINE"
);
}
);
width = 789;
},
{
layerId = "142AFF07-46EF-45A1-8A7E-F20FA79F7038";
paths = (
{
closed = 1;
nodes = (
"633 671 LINE",
"154 671 LINE",
"154 571 LINE",
"633 571 LINE"
);
}
);
width = 793;
},
{
layerId = "1A30CC2E-2F0E-43C1-8400-CBCC094AAC97";
paths = (
{
closed = 1;
nodes = (
"154 538 LINE",
"643 538 LINE",
"643 692 LINE",
"154 692 LINE"
);
}
);
userData = {
assembly = "NPUSHB[ ]	/* 28 values pushed */\0122 1 1 0 0 1 87 2 1 1 1 0 95 0 0 1 0 79 0 0 0 3 0 3 17 3 8 23 \012CALL[ ]	/* CallFunction */";
};
width = 797;
},
{
layerId = "E08E4BD2-F9DD-4A22-B137-462FE0EF4830";
paths = (
{
closed = 1;
nodes = (
"695 735 LINE",
"131 735 LINE",
"131 510 LINE",
"695 510 LINE"
);
}
);
width = 815;
},
{
layerId = "3540F6DD-AC2C-489F-A09A-29A5B6885314";
paths = (
{
closed = 1;
nodes = (
"727 762 LINE",
"117 762 LINE",
"117 493 LINE",
"727 493 LINE"
);
}
);
width = 826;
}
);
note = hyphen;
unicode = 002D;
},
{
glyphname = period;
lastChange = "2021-04-25 04:09:00 +0000";
layers = (
{
layerId = "E37246A9-A376-4020-9DA5-E0C9FF7935B5";
paths = (
{
closed = 1;
nodes = (
"231 130 LINE",
"145 130 LINE",
"145 0 LINE",
"231 0 LINE"
);
}
);
width = 444;
},
{
layerId = "142AFF07-46EF-45A1-8A7E-F20FA79F7038";
paths = (
{
closed = 1;
nodes = (
"282 163 LINE",
"145 163 LINE",
"145 0 LINE",
"282 0 LINE"
);
}
);
width = 467;
},
{
layerId = "1A30CC2E-2F0E-43C1-8400-CBCC094AAC97";
paths = (
{
closed = 1;
nodes = (
"145 0 LINE",
"342 0 LINE",
"342 202 LINE",
"145 202 LINE"
);
}
);
userData = {
assembly = "NPUSHB[ ]	/* 22 values pushed */\0122 1 1 1 0 95 0 0 0 32 0 78 0 0 0 3 0 3 17 3 8 23 \012CALL[ ]	/* CallFunction */";
};
width = 493;
},
{
layerId = "E08E4BD2-F9DD-4A22-B137-462FE0EF4830";
paths = (
{
closed = 1;
nodes = (
"420 256 LINE",
"129 256 LINE",
"129 0 LINE",
"420 0 LINE"
);
}
);
width = 522;
},
{
layerId = "3540F6DD-AC2C-489F-A09A-29A5B6885314";
paths = (
{
closed = 1;
nodes = (
"468 290 LINE",
"119 290 LINE",
"119 0 LINE",
"468 0 LINE"
);
}
);
width = 540;
}
);
note = period;
unicode = 002E;
},
{
glyphname = slash;
lastChange = "2021-04-25 04:09:00 +0000";
layers = (
{
layerId = "E37246A9-A376-4020-9DA5-E0C9FF7935B5";
paths = (
{
closed = 1;
nodes = (
"667 1456 LINE",
"608 1456 LINE",
"0 -125 LINE",
"59 -125 LINE"
);
}
);
width = 776;
},
{
layerId = "142AFF07-46EF-45A1-8A7E-F20FA79F7038";
paths = (
{
closed = 1;
nodes = (
"716 1456 LINE",
"608 1456 LINE",
"0 -125 LINE",
"109 -125 LINE"
);
}
);
width = 798;
},
{
layerId = "1A30CC2E-2F0E-43C1-8400-CBCC094AAC97";
paths = (
{
closed = 1;
nodes = (
"0 -125 LINE",
"167 -125 LINE",
"774 1456 LINE",
"608 1456 LINE"
);
}
);
userData = {
assembly = "NPUSHB[ ]	/* 22 values pushed */\0120 0 1 0 134 2 1 1 1 31 1 78 0 0 0 3 0 3 17 3 8 23 \012CALL[ ]	/* CallFunction */";
};
width = 824;
},
{
layerId = "E08E4BD2-F9DD-4A22-B137-462FE0EF4830";
paths = (
{
closed = 1;
nodes = (
"847 1456 LINE",
"578 1456 LINE",
"-23 -125 LINE",
"246 -125 LINE"
);
}
);
width = 796;
},
{
layerId = "3540F6DD-AC2C-489F-A09A-29A5B6885314";
paths = (
{
closed = 1;
nodes = (
"892 1456 LINE",
"559 1456 LINE",
"-37 -125 LINE",
"295 -125 LINE"
);
}
);
width = 778;
}
);
note = slash;
unicode = 002F;
},
{
glyphname = zero;
lastChange = "2021-04-25 04:09:00 +0000";
layers = (
{
layerId = "E37246A9-A376-4020-9DA5-E0C9FF7935B5";
paths = (
{
closed = 1;
nodes = (
"1008 289 OFFCURVE",
"1008 574 QCURVE SMOOTH",
"1008 882 LINE SMOOTH",
"1008 1166 OFFCURVE",
"775 1477 OFFCURVE",
"564 1477 QCURVE SMOOTH",
"353 1477 OFFCURVE",
"121 1166 OFFCURVE",
"121 882 QCURVE SMOOTH",
"121 574 LINE SMOOTH",
"121 290 OFFCURVE",
"355 -21 OFFCURVE",
"566 -21 QCURVE SMOOTH",
"777 -21 OFFCURVE"
);
},
{
closed = 1;
nodes = (
"175 324 OFFCURVE",
"175 576 QCURVE SMOOTH",
"175 882 LINE SMOOTH",
"175 1136 OFFCURVE",
"374 1423 OFFCURVE",
"564 1423 QCURVE SMOOTH",
"754 1423 OFFCURVE",
"954 1136 OFFCURVE",
"954 882 QCURVE SMOOTH",
"954 576 LINE SMOOTH",
"954 323 OFFCURVE",
"755 33 OFFCURVE",
"566 33 QCURVE SMOOTH",
"376 33 OFFCURVE"
);
}
);
width = 1150;
},
{
layerId = "142AFF07-46EF-45A1-8A7E-F20FA79F7038";
paths = (
{
closed = 1;
nodes = (
"1026 283 OFFCURVE",
"1026 565 QCURVE SMOOTH",
"1026 890 LINE SMOOTH",
"1026 1172 OFFCURVE",
"786 1477 OFFCURVE",
"573 1477 QCURVE SMOOTH",
"360 1477 OFFCURVE",
"121 1172 OFFCURVE",
"121 890 QCURVE SMOOTH",
"121 565 LINE SMOOTH",
"121 284 OFFCURVE",
"362 -21 OFFCURVE",
"575 -21 QCURVE SMOOTH",
"788 -21 OFFCURVE"
);
},
{
closed = 1;
nodes = (
"241 325 OFFCURVE",
"241 548 QCURVE SMOOTH",
"241 910 LINE SMOOTH",
"241 1134 OFFCURVE",
"411 1376 OFFCURVE",
"573 1376 QCURVE SMOOTH",
"736 1376 OFFCURVE",
"906 1134 OFFCURVE",
"906 910 QCURVE SMOOTH",
"906 548 LINE SMOOTH",
"906 324 OFFCURVE",
"737 79 OFFCURVE",
"575 79 QCURVE SMOOTH",
"413 79 OFFCURVE"
);
}
);
width = 1158;
},
{
layerId = "1A30CC2E-2F0E-43C1-8400-CBCC094AAC97";
paths = (
{
closed = 1;
nodes = (
"1048 276 OFFCURVE",
"1048 555 QCURVE SMOOTH",
"1048 900 LINE SMOOTH",
"1048 1178 OFFCURVE",
"798 1477 OFFCURVE",
"583 1477 QCURVE SMOOTH",
"369 1477 OFFCURVE",
"121 1178 OFFCURVE",
"121 900 QCURVE SMOOTH",
"121 555 LINE SMOOTH",
"121 277 OFFCURVE",
"371 -21 OFFCURVE",
"585 -21 QCURVE SMOOTH",
"800 -21 OFFCURVE"
);
},
{
closed = 1;
nodes = (
"318 326 OFFCURVE",
"318 515 QCURVE SMOOTH",
"318 942 LINE SMOOTH",
"318 1131 OFFCURVE",
"454 1322 OFFCURVE",
"583 1322 QCURVE SMOOTH",
"714 1322 OFFCURVE",
"851 1131 OFFCURVE",
"851 942 QCURVE SMOOTH",
"851 515 LINE SMOOTH",
"851 325 OFFCURVE",
"716 133 OFFCURVE",
"585 133 QCURVE SMOOTH",
"456 133 OFFCURVE"
);
}
);
userData = {
assembly = "NPUSHB[ ]	/* 42 values pushed */\0120 3 3 1 97 0 1 1 37 77 5 1 2 2 0 97 4 1 0 0 38 0 78 15 14 1 0 22 20 14 27 15 27 8 6 0 13 1 13 6 8 22 \012CALL[ ]	/* CallFunction */";
};
width = 1168;
},
{
layerId = "E08E4BD2-F9DD-4A22-B137-462FE0EF4830";
paths = (
{
closed = 1;
nodes = (
"1082 278 OFFCURVE",
"1082 567 QCURVE SMOOTH",
"1082 888 LINE SMOOTH",
"1082 1176 OFFCURVE",
"815 1477 OFFCURVE",
"589 1477 QCURVE SMOOTH",
"362 1477 OFFCURVE",
"97 1176 OFFCURVE",
"97 888 QCURVE SMOOTH",
"97 567 LINE SMOOTH",
"97 278 OFFCURVE",
"363 -21 OFFCURVE",
"591 -21 QCURVE SMOOTH",
"817 -21 OFFCURVE"
);
},
{
closed = 1;
nodes = (
"388 363 OFFCURVE",
"388 539 QCURVE SMOOTH",
"388 918 LINE SMOOTH",
"388 1092 OFFCURVE",
"490 1252 OFFCURVE",
"589 1252 QCURVE SMOOTH",
"687 1252 OFFCURVE",
"791 1092 OFFCURVE",
"791 918 QCURVE SMOOTH",
"791 539 LINE SMOOTH",
"791 363 OFFCURVE",
"689 203 OFFCURVE",
"591 203 QCURVE SMOOTH",
"491 203 OFFCURVE"
);
}
);
width = 1170;
},
{
layerId = "3540F6DD-AC2C-489F-A09A-29A5B6885314";
paths = (
{
closed = 1;
nodes = (
"1103 279 OFFCURVE",
"1103 574 QCURVE SMOOTH",
"1103 881 LINE SMOOTH",
"1103 1175 OFFCURVE",
"826 1477 OFFCURVE",
"593 1477 QCURVE SMOOTH",
"358 1477 OFFCURVE",
"82 1175 OFFCURVE",
"82 881 QCURVE SMOOTH",
"82 574 LINE SMOOTH",
"82 279 OFFCURVE",
"358 -21 OFFCURVE",
"595 -21 QCURVE SMOOTH",
"828 -21 OFFCURVE"
);
},
{
closed = 1;
nodes = (
"431 386 OFFCURVE",
"431 554 QCURVE SMOOTH",
"431 903 LINE SMOOTH",
"431 1068 OFFCURVE",
"513 1209 OFFCURVE",
"593 1209 QCURVE SMOOTH",
"670 1209 OFFCURVE",
"754 1067 OFFCURVE",
"754 903 QCURVE SMOOTH",
"754 554 LINE SMOOTH",
"754 387 OFFCURVE",
"672 246 OFFCURVE",
"595 246 QCURVE SMOOTH",
"513 246 OFFCURVE"
);
}
);
width = 1171;
}
);
note = zero;
unicode = 0030;
},
{
glyphname = one;
lastChange = "2021-04-25 04:09:00 +0000";
layers = (
{
layerId = "E37246A9-A376-4020-9DA5-E0C9FF7935B5";
paths = (
{
closed = 1;
nodes = (
"748 54 LINE",
"455 54 LINE",
"455 1464 LINE",
"63 1380 LINE",
"63 1330 LINE",
"401 1406 LINE",
"401 54 LINE",
"108 54 LINE",
"108 0 LINE",
"748 0 LINE"
);
}
);
width = 821;
},
{
layerId = "142AFF07-46EF-45A1-8A7E-F20FA79F7038";
paths = (
{
closed = 1;
nodes = (
"757 87 LINE",
"496 100 LINE",
"496 1460 LINE",
"88 1373 LINE",
"88 1289 LINE",
"376 1332 LINE",
"376 100 LINE",
"114 87 LINE",
"114 0 LINE",
"757 0 LINE"
);
}
);
width = 832;
},
{
layerId = "1A30CC2E-2F0E-43C1-8400-CBCC094AAC97";
paths = (
{
closed = 1;
nodes = (
"543 1456 LINE",
"117 1364 LINE",
"117 1241 LINE",
"346 1245 LINE",
"346 154 LINE",
"121 126 LINE",
"121 0 LINE",
"767 0 LINE",
"767 126 LINE",
"543 154 LINE"
);
}
);
userData = {
assembly = "NPUSHB[ ]	/* 30 values pushed */\0129 4 3 0 4 0 1 1 76 8 7 2 1 74 0 1 0 1 133 0 0 0 32 0 78 19 17 2 8 24 \012CALL[ ]	/* CallFunction */";
};
width = 844;
},
{
layerId = "E08E4BD2-F9DD-4A22-B137-462FE0EF4830";
paths = (
{
closed = 1;
nodes = (
"848 175 LINE",
"602 205 LINE",
"602 1456 LINE",
"62 1358 LINE",
"62 1191 LINE",
"311 1191 LINE",
"311 205 LINE",
"65 175 LINE",
"65 0 LINE",
"848 0 LINE"
);
}
);
width = 905;
},
{
layerId = "3540F6DD-AC2C-489F-A09A-29A5B6885314";
paths = (
{
closed = 1;
nodes = (
"898 205 LINE",
"639 237 LINE",
"639 1456 LINE",
"28 1354 LINE",
"28 1160 LINE",
"289 1157 LINE",
"289 237 LINE",
"30 205 LINE",
"30 0 LINE",
"898 0 LINE"
);
}
);
width = 943;
}
);
note = one;
unicode = 0031;
},
{
glyphname = two;
lastChange = "2021-04-25 04:09:00 +0000";
layers = (
{
layerId = "E37246A9-A376-4020-9DA5-E0C9FF7935B5";
paths = (
{
closed = 1;
nodes = (
"977 293 LINE",
"923 293 LINE",
"923 54 LINE",
"184 54 LINE",
"182 59 LINE",
"599 546 LINE SMOOTH",
"694 657 OFFCURVE",
"828 842 OFFCURVE",
"899 1005 OFFCURVE",
"899 1086 QCURVE SMOOTH",
"899 1210 OFFCURVE",
"800 1385 OFFCURVE",
"620 1477 OFFCURVE",
"499 1477 QCURVE SMOOTH",
"369 1477 OFFCURVE",
"176 1363 OFFCURVE",
"73 1170 OFFCURVE",
"76 1052 QCURVE",
"78 1046 LINE",
"124 1046 LINE",
"124 1213 OFFCURVE",
"320 1423 OFFCURVE",
"499 1423 QCURVE SMOOTH",
"668 1423 OFFCURVE",
"844 1245 OFFCURVE",
"844 1086 QCURVE SMOOTH",
"844 1021 OFFCURVE",
"789 878 OFFCURVE",
"674 709 OFFCURVE",
"583 604 QCURVE SMOOTH",
"106 54 LINE",
"106 0 LINE",
"977 0 LINE"
);
}
);
width = 1104;
},
{
layerId = "142AFF07-46EF-45A1-8A7E-F20FA79F7038";
paths = (
{
closed = 1;
nodes = (
"1006 306 LINE",
"900 306 LINE",
"893 100 LINE",
"256 100 LINE",
"254 105 LINE",
"655 560 LINE SMOOTH",
"746 662 OFFCURVE",
"874 838 OFFCURVE",
"941 999 OFFCURVE",
"941 1080 QCURVE SMOOTH",
"941 1201 OFFCURVE",
"838 1379 OFFCURVE",
"649 1477 OFFCURVE",
"520 1477 QCURVE SMOOTH",
"382 1477 OFFCURVE",
"180 1362 OFFCURVE",
"73 1165 OFFCURVE",
"76 1043 QCURVE",
"78 1037 LINE",
"190 1037 LINE",
"190 1192 OFFCURVE",
"362 1376 OFFCURVE",
"517 1376 QCURVE SMOOTH",
"665 1376 OFFCURVE",
"820 1212 OFFCURVE",
"820 1076 QCURVE SMOOTH",
"820 1014 OFFCURVE",
"773 886 OFFCURVE",
"667 733 OFFCURVE",
"579 632 QCURVE SMOOTH",
"102 91 LINE",
"102 0 LINE",
"1006 0 LINE"
);
}
);
width = 1116;
},
{
layerId = "1A30CC2E-2F0E-43C1-8400-CBCC094AAC97";
paths = (
{
closed = 1;
nodes = (
"873 321 LINE",
"857 154 LINE",
"340 154 LINE",
"338 159 LINE",
"721 576 LINE SMOOTH",
"806 668 OFFCURVE",
"927 834 OFFCURVE",
"990 992 OFFCURVE",
"990 1072 QCURVE SMOOTH",
"990 1190 OFFCURVE",
"882 1372 OFFCURVE",
"683 1477 OFFCURVE",
"545 1477 QCURVE SMOOTH",
"398 1477 OFFCURVE",
"185 1360 OFFCURVE",
"73 1159 OFFCURVE",
"76 1033 QCURVE",
"78 1027 LINE",
"267 1027 LINE",
"267 1168 OFFCURVE",
"410 1322 OFFCURVE",
"538 1322 QCURVE SMOOTH",
"661 1322 OFFCURVE",
"793 1173 OFFCURVE",
"793 1064 QCURVE SMOOTH",
"793 1005 OFFCURVE",
"755 895 OFFCURVE",
"659 760 OFFCURVE",
"574 665 QCURVE SMOOTH",
"97 135 LINE",
"97 0 LINE",
"1040 0 LINE",
"1040 321 LINE"
);
}
);
userData = {
assembly = "PUSHB[ ]	/* 6 values pushed */\0122 1 0 4 1 76 \012MPPEM[ ]	/* MeasurePixelPerEm */\012PUSHB[ ]	/* 1 value pushed */\01216 \012LT[ ]	/* LessThan */\012IF[ ]	/* If */\012NPUSHB[ ]	/* 35 values pushed */\0120 2 1 5 1 2 5 128 0 5 4 4 5 112 0 1 1 3 97 0 3 3 37 77 0 4 4 0 96 0 0 0 32 0 78 \012ELSE[ ]	/* Else */\012NPUSHB[ ]	/* 36 values pushed */\0120 2 1 5 1 2 5 128 0 5 4 1 5 4 126 0 1 1 3 97 0 3 3 37 77 0 4 4 0 96 0 0 0 32 0 78 \012EIF[ ]	/* EndIf */\012NPUSHB[ ]	/* 9 values pushed */\01217 40 36 18 40 16 6 8 28 \012CALL[ ]	/* CallFunction */";
};
width = 1131;
},
{
layerId = "E08E4BD2-F9DD-4A22-B137-462FE0EF4830";
paths = (
{
closed = 1;
nodes = (
"1070 362 LINE",
"844 362 LINE",
"829 223 LINE",
"452 223 LINE",
"450 228 LINE",
"733 532 LINE SMOOTH",
"837 642 OFFCURVE",
"969 812 OFFCURVE",
"1031 965 OFFCURVE",
"1031 1052 QCURVE SMOOTH",
"1031 1178 OFFCURVE",
"915 1370 OFFCURVE",
"700 1477 OFFCURVE",
"550 1477 QCURVE SMOOTH",
"397 1477 OFFCURVE",
"172 1353 OFFCURVE",
"53 1142 OFFCURVE",
"56 1010 QCURVE",
"58 1004 LINE",
"342 1004 LINE",
"342 1119 OFFCURVE",
"446 1250 OFFCURVE",
"547 1250 QCURVE SMOOTH",
"641 1250 OFFCURVE",
"738 1132 OFFCURVE",
"738 1047 QCURVE SMOOTH",
"738 998 OFFCURVE",
"703 899 OFFCURVE",
"621 779 OFFCURVE",
"549 698 QCURVE SMOOTH",
"77 191 LINE",
"77 0 LINE",
"1070 0 LINE"
);
}
);
width = 1136;
},
{
layerId = "3540F6DD-AC2C-489F-A09A-29A5B6885314";
paths = (
{
closed = 1;
nodes = (
"1089 387 LINE",
"826 387 LINE",
"811 266 LINE",
"522 266 LINE",
"520 271 LINE",
"740 504 LINE SMOOTH",
"856 626 OFFCURVE",
"995 798 OFFCURVE",
"1056 949 OFFCURVE",
"1056 1039 QCURVE SMOOTH",
"1056 1171 OFFCURVE",
"935 1368 OFFCURVE",
"710 1477 OFFCURVE",
"553 1477 QCURVE SMOOTH",
"396 1477 OFFCURVE",
"164 1349 OFFCURVE",
"41 1131 OFFCURVE",
"44 996 QCURVE",
"46 990 LINE",
"389 990 LINE",
"389 1089 OFFCURVE",
"469 1206 OFFCURVE",
"552 1206 QCURVE SMOOTH",
"628 1206 OFFCURVE",
"704 1107 OFFCURVE",
"704 1036 QCURVE SMOOTH",
"704 993 OFFCURVE",
"671 901 OFFCURVE",
"597 791 OFFCURVE",
"534 719 QCURVE",
"65 225 LINE",
"65 0 LINE",
"1089 0 LINE"
);
}
);
width = 1139;
}
);
note = two;
unicode = 0032;
},
{
glyphname = three;
lastChange = "2021-04-25 04:09:00 +0000";
layers = (
{
layerId = "E37246A9-A376-4020-9DA5-E0C9FF7935B5";
paths = (
{
closed = 1;
nodes = (
"863 77 OFFCURVE",
"973 259 OFFCURVE",
"973 386 QCURVE SMOOTH",
"973 526 OFFCURVE",
"815 710 OFFCURVE",
"673 745 QCURVE",
"796 785 OFFCURVE",
"941 967 OFFCURVE",
"941 1082 QCURVE SMOOTH",
"941 1264 OFFCURVE",
"718 1477 OFFCURVE",
"530 1477 QCURVE SMOOTH",
"409 1477 OFFCURVE",
"214 1377 OFFCURVE",
"103 1199 OFFCURVE",
"106 1081 QCURVE",
"108 1075 LINE",
"154 1075 LINE",
"154 1180 OFFCURVE",
"252 1337 OFFCURVE",
"422 1423 OFFCURVE",
"530 1423 QCURVE SMOOTH",
"706 1423 OFFCURVE",
"887 1233 OFFCURVE",
"887 1086 QCURVE SMOOTH",
"887 997 OFFCURVE",
"792 855 OFFCURVE",
"616 771 OFFCURVE",
"494 771 QCURVE SMOOTH",
"383 771 LINE",
"383 715 LINE",
"494 715 LINE SMOOTH",
"690 715 OFFCURVE",
"919 552 OFFCURVE",
"919 382 QCURVE SMOOTH",
"919 218 OFFCURVE",
"719 33 OFFCURVE",
"539 33 QCURVE SMOOTH",
"420 33 OFFCURVE",
"232 129 OFFCURVE",
"123 297 OFFCURVE",
"123 405 QCURVE",
"77 405 LINE",
"75 399 LINE",
"72 265 OFFCURVE",
"201 77 OFFCURVE",
"416 -21 OFFCURVE",
"539 -21 QCURVE SMOOTH",
"667 -21 OFFCURVE"
);
}
);
width = 1098;
},
{
layerId = "142AFF07-46EF-45A1-8A7E-F20FA79F7038";
paths = (
{
closed = 1;
nodes = (
"869 79 OFFCURVE",
"983 265 OFFCURVE",
"983 395 QCURVE SMOOTH",
"983 523 OFFCURVE",
"847 707 OFFCURVE",
"710 746 QCURVE",
"827 789 OFFCURVE",
"955 970 OFFCURVE",
"955 1073 QCURVE SMOOTH",
"955 1263 OFFCURVE",
"724 1477 OFFCURVE",
"530 1477 QCURVE SMOOTH",
"403 1477 OFFCURVE",
"204 1374 OFFCURVE",
"93 1195 OFFCURVE",
"96 1081 QCURVE",
"98 1075 LINE",
"210 1075 LINE",
"210 1166 OFFCURVE",
"292 1302 OFFCURVE",
"436 1376 OFFCURVE",
"530 1376 QCURVE SMOOTH",
"681 1376 OFFCURVE",
"835 1214 OFFCURVE",
"835 1077 QCURVE SMOOTH",
"835 993 OFFCURVE",
"762 866 OFFCURVE",
"619 793 OFFCURVE",
"513 793 QCURVE SMOOTH",
"374 793 LINE",
"374 692 LINE",
"513 692 LINE SMOOTH",
"681 692 OFFCURVE",
"863 545 OFFCURVE",
"863 391 QCURVE SMOOTH",
"863 242 OFFCURVE",
"689 79 OFFCURVE",
"535 79 QCURVE SMOOTH",
"433 79 OFFCURVE",
"277 159 OFFCURVE",
"189 302 OFFCURVE",
"189 395 QCURVE",
"77 395 LINE",
"75 389 LINE",
"72 260 OFFCURVE",
"195 77 OFFCURVE",
"407 -21 OFFCURVE",
"535 -21 QCURVE SMOOTH",
"666 -21 OFFCURVE"
);
}
);
width = 1102;
},
{
layerId = "1A30CC2E-2F0E-43C1-8400-CBCC094AAC97";
paths = (
{
closed = 1;
nodes = (
"875 82 OFFCURVE",
"994 273 OFFCURVE",
"994 406 QCURVE SMOOTH",
"994 520 OFFCURVE",
"885 704 OFFCURVE",
"754 747 QCURVE",
"863 794 OFFCURVE",
"972 973 OFFCURVE",
"972 1063 QCURVE SMOOTH",
"972 1262 OFFCURVE",
"732 1477 OFFCURVE",
"530 1477 QCURVE SMOOTH",
"396 1477 OFFCURVE",
"193 1371 OFFCURVE",
"82 1191 OFFCURVE",
"85 1081 QCURVE",
"87 1075 LINE",
"276 1075 LINE",
"276 1150 OFFCURVE",
"339 1261 OFFCURVE",
"453 1322 OFFCURVE",
"530 1322 QCURVE SMOOTH",
"651 1322 OFFCURVE",
"775 1192 OFFCURVE",
"775 1067 QCURVE SMOOTH",
"775 989 OFFCURVE",
"728 878 OFFCURVE",
"622 819 OFFCURVE",
"535 819 QCURVE SMOOTH",
"363 819 LINE",
"363 665 LINE",
"535 665 LINE SMOOTH",
"671 665 OFFCURVE",
"797 537 OFFCURVE",
"797 402 QCURVE SMOOTH",
"797 269 OFFCURVE",
"655 133 OFFCURVE",
"530 133 QCURVE SMOOTH",
"448 133 OFFCURVE",
"330 195 OFFCURVE",
"266 307 OFFCURVE",
"266 384 QCURVE",
"78 384 LINE",
"75 378 LINE",
"72 255 OFFCURVE",
"189 76 OFFCURVE",
"397 -21 OFFCURVE",
"530 -21 QCURVE SMOOTH",
"665 -21 OFFCURVE"
);
}
);
userData = {
assembly = "NPUSHB[ ]	/* 75 values pushed */\01242 1 3 4 1 76 0 6 5 4 5 6 4 128 0 1 3 2 3 1 2 128 0 4 0 3 1 4 3 103 0 5 5 7 97 0 7 7 37 77 0 2 2 0 97 8 1 0 0 38 0 78 1 0 37 35 31 30 27 25 20 18 17 15 11 9 6 4 0 48 1 48 9 8 22 \012CALL[ ]	/* CallFunction */";
};
width = 1106;
},
{
layerId = "E08E4BD2-F9DD-4A22-B137-462FE0EF4830";
paths = (
{
closed = 1;
nodes = (
"932 83 OFFCURVE",
"1064 275 OFFCURVE",
"1064 408 QCURVE SMOOTH",
"1064 526 OFFCURVE",
"937 704 OFFCURVE",
"816 747 QCURVE",
"928 799 OFFCURVE",
"1041 963 OFFCURVE",
"1041 1065 QCURVE SMOOTH",
"1041 1262 OFFCURVE",
"773 1477 OFFCURVE",
"552 1477 QCURVE SMOOTH",
"411 1477 OFFCURVE",
"192 1374 OFFCURVE",
"72 1193 OFFCURVE",
"75 1077 QCURVE",
"77 1071 LINE",
"360 1071 LINE",
"360 1125 OFFCURVE",
"409 1207 OFFCURVE",
"497 1252 OFFCURVE",
"554 1252 QCURVE SMOOTH",
"649 1252 OFFCURVE",
"749 1145 OFFCURVE",
"749 1052 QCURVE SMOOTH",
"749 991 OFFCURVE",
"705 901 OFFCURVE",
"615 852 OFFCURVE",
"545 852 QCURVE SMOOTH",
"381 852 LINE",
"381 633 LINE",
"539 633 LINE SMOOTH",
"656 633 OFFCURVE",
"772 519 OFFCURVE",
"772 417 QCURVE SMOOTH",
"772 316 OFFCURVE",
"655 203 OFFCURVE",
"554 203 QCURVE SMOOTH",
"489 203 OFFCURVE",
"394 255 OFFCURVE",
"342 345 OFFCURVE",
"342 403 QCURVE",
"59 403 LINE",
"57 397 LINE",
"54 264 OFFCURVE",
"187 77 OFFCURVE",
"415 -21 OFFCURVE",
"554 -21 QCURVE SMOOTH",
"701 -21 OFFCURVE"
);
}
);
width = 1112;
},
{
layerId = "3540F6DD-AC2C-489F-A09A-29A5B6885314";
paths = (
{
closed = 1;
nodes = (
"967 83 OFFCURVE",
"1107 276 OFFCURVE",
"1107 409 QCURVE SMOOTH",
"1107 530 OFFCURVE",
"970 704 OFFCURVE",
"855 747 QCURVE",
"969 802 OFFCURVE",
"1084 957 OFFCURVE",
"1084 1066 QCURVE SMOOTH",
"1084 1262 OFFCURVE",
"799 1477 OFFCURVE",
"565 1477 QCURVE SMOOTH",
"420 1477 OFFCURVE",
"192 1376 OFFCURVE",
"65 1194 OFFCURVE",
"69 1074 QCURVE",
"71 1068 LINE",
"412 1068 LINE",
"412 1110 OFFCURVE",
"453 1173 OFFCURVE",
"524 1209 OFFCURVE",
"569 1209 QCURVE SMOOTH",
"648 1209 OFFCURVE",
"733 1115 OFFCURVE",
"733 1043 QCURVE SMOOTH",
"733 992 OFFCURVE",
"691 915 OFFCURVE",
"610 872 OFFCURVE",
"551 872 QCURVE SMOOTH",
"392 872 LINE",
"392 613 LINE",
"541 613 LINE SMOOTH",
"646 613 OFFCURVE",
"756 508 OFFCURVE",
"756 426 QCURVE SMOOTH",
"756 346 OFFCURVE",
"655 246 OFFCURVE",
"569 246 QCURVE SMOOTH",
"514 246 OFFCURVE",
"433 292 OFFCURVE",
"389 369 OFFCURVE",
"389 415 QCURVE",
"47 415 LINE",
"46 409 LINE",
"43 270 OFFCURVE",
"185 78 OFFCURVE",
"426 -21 OFFCURVE",
"569 -21 QCURVE SMOOTH",
"724 -21 OFFCURVE"
);
}
);
width = 1116;
}
);
note = three;
unicode = 0033;
},
{
glyphname = four;
lastChange = "2021-04-25 04:09:00 +0000";
layers = (
{
layerId = "E37246A9-A376-4020-9DA5-E0C9FF7935B5";
paths = (
{
closed = 1;
nodes = (
"986 54 LINE",
"823 54 LINE",
"823 397 LINE",
"1075 397 LINE",
"1075 451 LINE",
"823 451 LINE",
"823 1456 LINE",
"758 1456 LINE",
"63 427 LINE",
"63 397 LINE",
"769 397 LINE",
"769 54 LINE",
"606 54 LINE",
"606 0 LINE",
"986 0 LINE"
);
},
{
closed = 1;
nodes = (
"763 1382 LINE",
"769 1380 LINE",
"769 451 LINE",
"147 451 LINE",
"685 1253 LINE"
);
}
);
width = 1170;
},
{
layerId = "142AFF07-46EF-45A1-8A7E-F20FA79F7038";
paths = (
{
closed = 1;
nodes = (
"1028 87 LINE",
"865 100 LINE",
"865 369 LINE",
"1093 369 LINE",
"1093 469 LINE",
"865 469 LINE",
"865 1456 LINE",
"734 1456 LINE",
"63 436 LINE",
"63 369 LINE",
"745 369 LINE",
"745 100 LINE",
"582 87 LINE",
"582 0 LINE",
"1028 0 LINE"
);
},
{
closed = 1;
nodes = (
"739 1287 LINE",
"745 1285 LINE",
"745 469 LINE",
"205 469 LINE",
"688 1193 LINE"
);
}
);
width = 1178;
},
{
layerId = "1A30CC2E-2F0E-43C1-8400-CBCC094AAC97";
paths = (
{
closed = 1;
nodes = (
"913 336 LINE",
"1114 336 LINE",
"1114 490 LINE",
"913 490 LINE",
"913 1456 LINE",
"705 1456 LINE",
"63 447 LINE",
"63 336 LINE",
"717 336 LINE",
"717 154 LINE",
"554 126 LINE",
"554 0 LINE",
"1076 0 LINE",
"1076 126 LINE",
"913 154 LINE"
);
},
{
closed = 1;
nodes = (
"717 490 LINE",
"273 490 LINE",
"691 1124 LINE",
"711 1177 LINE",
"717 1175 LINE"
);
}
);
userData = {
assembly = "NPUSHB[ ]	/* 47 values pushed */\01219 1 3 2 7 1 1 3 14 4 3 0 4 0 1 3 76 5 1 3 4 1 1 0 3 1 104 0 2 2 31 77 0 0 0 32 0 78 20 17 17 18 19 17 6 8 28 \012CALL[ ]	/* CallFunction */";
};
width = 1187;
},
{
layerId = "E08E4BD2-F9DD-4A22-B137-462FE0EF4830";
paths = (
{
closed = 1;
nodes = (
"1094 175 LINE",
"939 205 LINE",
"939 348 LINE",
"1104 348 LINE",
"1104 542 LINE",
"939 542 LINE",
"939 1456 LINE",
"645 1456 LINE",
"40 491 LINE",
"54 348 LINE",
"648 348 LINE",
"648 205 LINE",
"492 175 LINE",
"492 0 LINE",
"1094 0 LINE"
);
},
{
closed = 1;
nodes = (
"642 1069 LINE",
"648 1067 LINE",
"648 542 LINE",
"312 542 LINE",
"618 1027 LINE"
);
}
);
width = 1158;
},
{
layerId = "3540F6DD-AC2C-489F-A09A-29A5B6885314";
paths = (
{
closed = 1;
nodes = (
"1105 205 LINE",
"955 237 LINE",
"955 355 LINE",
"1097 355 LINE",
"1097 574 LINE",
"955 574 LINE",
"955 1456 LINE",
"607 1456 LINE",
"25 518 LINE",
"48 355 LINE",
"605 355 LINE",
"605 237 LINE",
"453 205 LINE",
"453 0 LINE",
"1105 0 LINE"
);
},
{
closed = 1;
nodes = (
"599 1002 LINE",
"605 1000 LINE",
"605 574 LINE",
"337 574 LINE",
"572 967 LINE"
);
}
);
width = 1140;
}
);
note = four;
unicode = 0034;
},
{
glyphname = five;
lastChange = "2021-04-25 04:09:00 +0000";
layers = (
{
layerId = "E37246A9-A376-4020-9DA5-E0C9FF7935B5";
paths = (
{
closed = 1;
nodes = (
"840 98 OFFCURVE",
"933 315 OFFCURVE",
"933 464 QCURVE SMOOTH",
"933 603 OFFCURVE",
"830 809 OFFCURVE",
"649 919 OFFCURVE",
"533 916 QCURVE SMOOTH",
"436 913 OFFCURVE",
"309 883 OFFCURVE",
"218 827 OFFCURVE",
"176 785 QCURVE",
"237 1403 LINE",
"834 1403 LINE",
"834 1265 LINE",
"888 1265 LINE",
"888 1456 LINE",
"188 1456 LINE",
"110 662 LINE",
"151 646 LINE",
"191 751 OFFCURVE",
"374 858 OFFCURVE",
"534 858 QCURVE SMOOTH",
"697 858 OFFCURVE",
"878 646 OFFCURVE",
"878 462 QCURVE SMOOTH",
"878 247 OFFCURVE",
"697 33 OFFCURVE",
"503 33 QCURVE SMOOTH",
"338 33 OFFCURVE",
"146 211 OFFCURVE",
"146 383 QCURVE",
"99 383 LINE",
"97 377 LINE",
"94 246 OFFCURVE",
"199 69 OFFCURVE",
"385 -21 OFFCURVE",
"503 -21 QCURVE SMOOTH",
"650 -21 OFFCURVE"
);
}
);
width = 1061;
},
{
layerId = "142AFF07-46EF-45A1-8A7E-F20FA79F7038";
paths = (
{
closed = 1;
nodes = (
"857 99 OFFCURVE",
"956 316 OFFCURVE",
"956 464 QCURVE SMOOTH",
"956 608 OFFCURVE",
"852 821 OFFCURVE",
"665 935 OFFCURVE",
"541 933 QCURVE SMOOTH",
"466 931 OFFCURVE",
"359 905 OFFCURVE",
"278 858 OFFCURVE",
"242 825 QCURVE",
"296 1347 LINE",
"818 1347 LINE",
"827 1220 LINE",
"924 1220 LINE",
"924 1456 LINE",
"193 1456 LINE",
"112 660 LINE",
"210 643 LINE",
"242 733 OFFCURVE",
"389 823 OFFCURVE",
"529 823 QCURVE SMOOTH",
"673 823 OFFCURVE",
"835 626 OFFCURVE",
"835 462 QCURVE SMOOTH",
"835 276 OFFCURVE",
"674 79 OFFCURVE",
"512 79 QCURVE SMOOTH",
"373 79 OFFCURVE",
"206 236 OFFCURVE",
"206 383 QCURVE",
"99 383 LINE",
"97 377 LINE",
"94 246 OFFCURVE",
"201 69 OFFCURVE",
"391 -21 OFFCURVE",
"512 -21 QCURVE SMOOTH",
"660 -21 OFFCURVE"
);
}
);
width = 1070;
},
{
layerId = "1A30CC2E-2F0E-43C1-8400-CBCC094AAC97";
paths = (
{
closed = 1;
nodes = (
"877 100 OFFCURVE",
"982 318 OFFCURVE",
"982 464 QCURVE SMOOTH",
"982 614 OFFCURVE",
"878 835 OFFCURVE",
"684 954 OFFCURVE",
"550 953 QCURVE SMOOTH",
"501 952 OFFCURVE",
"418 930 OFFCURVE",
"348 895 OFFCURVE",
"318 872 QCURVE",
"365 1281 LINE",
"800 1281 LINE",
"819 1168 LINE",
"967 1168 LINE",
"967 1456 LINE",
"198 1456 LINE",
"114 657 LINE",
"278 640 LINE",
"302 712 OFFCURVE",
"407 782 OFFCURVE",
"523 782 QCURVE SMOOTH",
"646 782 OFFCURVE",
"785 603 OFFCURVE",
"785 462 QCURVE SMOOTH",
"785 309 OFFCURVE",
"647 133 OFFCURVE",
"522 133 QCURVE SMOOTH",
"414 133 OFFCURVE",
"277 265 OFFCURVE",
"277 383 QCURVE",
"99 383 LINE",
"97 377 LINE",
"94 246 OFFCURVE",
"204 69 OFFCURVE",
"399 -21 OFFCURVE",
"522 -21 QCURVE SMOOTH",
"672 -21 OFFCURVE"
);
}
);
userData = {
assembly = "NPUSHB[ ]	/* 11 values pushed */\01226 1 3 7 19 18 2 1 3 2 76 \012MPPEM[ ]	/* MeasurePixelPerEm */\012PUSHB[ ]	/* 1 value pushed */\01223 \012LT[ ]	/* LessThan */\012IF[ ]	/* If */\012NPUSHB[ ]	/* 45 values pushed */\0120 5 6 7 6 5 114 0 1 3 2 3 1 2 128 0 7 0 3 1 7 3 105 0 6 6 4 95 0 4 4 31 77 0 2 2 0 97 8 1 0 0 38 0 78 \012ELSE[ ]	/* Else */\012NPUSHB[ ]	/* 46 values pushed */\0120 5 6 7 6 5 7 128 0 1 3 2 3 1 2 128 0 7 0 3 1 7 3 105 0 6 6 4 95 0 4 4 31 77 0 2 2 0 97 8 1 0 0 38 0 78 \012EIF[ ]	/* EndIf */\012NPUSHB[ ]	/* 23 values pushed */\0121 0 31 29 25 24 23 22 21 20 16 14 10 8 6 4 0 37 1 37 9 8 22 \012CALL[ ]	/* CallFunction */";
};
width = 1081;
},
{
layerId = "E08E4BD2-F9DD-4A22-B137-462FE0EF4830";
paths = (
{
closed = 1;
nodes = (
"926 106 OFFCURVE",
"1039 327 OFFCURVE",
"1039 467 QCURVE SMOOTH",
"1039 622 OFFCURVE",
"936 842 OFFCURVE",
"739 958 OFFCURVE",
"599 956 QCURVE SMOOTH",
"553 956 OFFCURVE",
"472 937 OFFCURVE",
"402 906 OFFCURVE",
"375 886 QCURVE",
"416 1222 LINE",
"808 1222 LINE",
"834 1124 LINE",
"1014 1124 LINE",
"1014 1456 LINE",
"176 1456 LINE",
"92 645 LINE",
"350 628 LINE",
"369 681 OFFCURVE",
"458 743 OFFCURVE",
"541 743 QCURVE SMOOTH",
"644 743 OFFCURVE",
"748 591 OFFCURVE",
"748 465 QCURVE SMOOTH",
"748 349 OFFCURVE",
"650 203 OFFCURVE",
"548 203 QCURVE SMOOTH",
"459 203 OFFCURVE",
"349 312 OFFCURVE",
"349 409 QCURVE",
"69 395 LINE",
"67 390 LINE",
"64 262 OFFCURVE",
"194 78 OFFCURVE",
"415 -21 OFFCURVE",
"548 -21 QCURVE SMOOTH",
"707 -21 OFFCURVE"
);
}
);
width = 1092;
},
{
layerId = "3540F6DD-AC2C-489F-A09A-29A5B6885314";
paths = (
{
closed = 1;
nodes = (
"956 110 OFFCURVE",
"1074 333 OFFCURVE",
"1074 469 QCURVE SMOOTH",
"1074 627 OFFCURVE",
"972 847 OFFCURVE",
"773 961 OFFCURVE",
"629 958 QCURVE SMOOTH",
"586 958 OFFCURVE",
"505 941 OFFCURVE",
"436 913 OFFCURVE",
"410 895 QCURVE",
"448 1185 LINE",
"813 1185 LINE",
"843 1097 LINE",
"1043 1097 LINE",
"1043 1456 LINE",
"162 1456 LINE",
"78 638 LINE",
"395 621 LINE",
"411 662 OFFCURVE",
"490 719 OFFCURVE",
"552 719 QCURVE SMOOTH",
"643 719 OFFCURVE",
"725 583 OFFCURVE",
"725 467 QCURVE SMOOTH",
"725 374 OFFCURVE",
"652 246 OFFCURVE",
"564 246 QCURVE SMOOTH",
"487 246 OFFCURVE",
"394 341 OFFCURVE",
"394 425 QCURVE",
"50 402 LINE",
"48 398 LINE",
"45 272 OFFCURVE",
"187 83 OFFCURVE",
"425 -21 OFFCURVE",
"564 -21 QCURVE SMOOTH",
"728 -21 OFFCURVE"
);
}
);
width = 1099;
}
);
note = five;
unicode = 0035;
},
{
glyphname = six;
lastChange = "2021-04-25 04:09:00 +0000";
layers = (
{
layerId = "E37246A9-A376-4020-9DA5-E0C9FF7935B5";
paths = (
{
closed = 1;
nodes = (
"875 105 OFFCURVE",
"986 322 OFFCURVE",
"986 460 QCURVE SMOOTH",
"986 610 OFFCURVE",
"885 834 OFFCURVE",
"696 957 OFFCURVE",
"565 957 QCURVE SMOOTH",
"429 957 OFFCURVE",
"222 815 OFFCURVE",
"175 706 QCURVE",
"175 881 LINE SMOOTH",
"175 1154 OFFCURVE",
"399 1423 OFFCURVE",
"574 1423 QCURVE SMOOTH",
"659 1423 OFFCURVE",
"772 1394 OFFCURVE",
"838 1356 QCURVE",
"859 1407 LINE",
"795 1444 OFFCURVE",
"650 1477 OFFCURVE",
"574 1477 QCURVE SMOOTH",
"443 1477 OFFCURVE",
"238 1341 OFFCURVE",
"121 1075 OFFCURVE",
"121 880 QCURVE SMOOTH",
"121 552 LINE SMOOTH",
"121 370 OFFCURVE",
"231 114 OFFCURVE",
"426 -21 OFFCURVE",
"555 -21 QCURVE SMOOTH",
"680 -21 OFFCURVE"
);
},
{
closed = 1;
nodes = (
"175 304 OFFCURVE",
"175 551 QCURVE SMOOTH",
"175 554 LINE SMOOTH",
"175 649 OFFCURVE",
"281 807 OFFCURVE",
"456 903 OFFCURVE",
"558 903 QCURVE SMOOTH",
"740 903 OFFCURVE",
"932 662 OFFCURVE",
"932 460 QCURVE SMOOTH",
"932 343 OFFCURVE",
"836 148 OFFCURVE",
"666 32 OFFCURVE",
"555 32 QCURVE SMOOTH",
"383 32 OFFCURVE"
);
}
);
width = 1107;
},
{
layerId = "142AFF07-46EF-45A1-8A7E-F20FA79F7038";
paths = (
{
closed = 1;
nodes = (
"912 107 OFFCURVE",
"1023 330 OFFCURVE",
"1023 474 QCURVE SMOOTH",
"1023 618 OFFCURVE",
"921 839 OFFCURVE",
"730 962 OFFCURVE",
"600 962 QCURVE SMOOTH",
"483 962 OFFCURVE",
"297 857 OFFCURVE",
"246 774 QCURVE",
"244 870 LINE SMOOTH",
"247 1125 OFFCURVE",
"451 1376 OFFCURVE",
"616 1376 QCURVE SMOOTH",
"695 1376 OFFCURVE",
"807 1347 OFFCURVE",
"864 1316 QCURVE",
"893 1412 LINE",
"837 1444 OFFCURVE",
"691 1477 OFFCURVE",
"616 1477 QCURVE SMOOTH",
"472 1477 OFFCURVE",
"248 1329 OFFCURVE",
"121 1040 OFFCURVE",
"121 829 QCURVE SMOOTH",
"121 562 LINE SMOOTH",
"121 376 OFFCURVE",
"239 116 OFFCURVE",
"447 -21 OFFCURVE",
"582 -21 QCURVE SMOOTH",
"713 -21 OFFCURVE"
);
},
{
closed = 1;
nodes = (
"241 326 OFFCURVE",
"241 552 QCURVE SMOOTH",
"241 608 LINE",
"252 680 OFFCURVE",
"346 796 OFFCURVE",
"490 865 OFFCURVE",
"576 865 QCURVE SMOOTH",
"733 865 OFFCURVE",
"903 649 OFFCURVE",
"903 474 QCURVE SMOOTH",
"903 364 OFFCURVE",
"824 184 OFFCURVE",
"679 79 OFFCURVE",
"582 79 QCURVE SMOOTH",
"431 79 OFFCURVE"
);
}
);
width = 1124;
},
{
layerId = "1A30CC2E-2F0E-43C1-8400-CBCC094AAC97";
paths = (
{
closed = 1;
nodes = (
"955 109 OFFCURVE",
"1067 339 OFFCURVE",
"1067 490 QCURVE SMOOTH",
"1067 628 OFFCURVE",
"962 844 OFFCURVE",
"770 967 OFFCURVE",
"640 967 QCURVE SMOOTH",
"546 967 OFFCURVE",
"384 906 OFFCURVE",
"328 854 QCURVE",
"324 858 LINE",
"330 1091 OFFCURVE",
"511 1322 OFFCURVE",
"664 1322 QCURVE SMOOTH",
"736 1322 OFFCURVE",
"848 1293 OFFCURVE",
"895 1270 QCURVE",
"933 1417 LINE",
"885 1443 OFFCURVE",
"738 1477 OFFCURVE",
"664 1477 QCURVE SMOOTH",
"505 1477 OFFCURVE",
"260 1315 OFFCURVE",
"121 1000 OFFCURVE",
"121 769 QCURVE SMOOTH",
"121 573 LINE SMOOTH",
"121 384 OFFCURVE",
"249 118 OFFCURVE",
"472 -21 OFFCURVE",
"614 -21 QCURVE SMOOTH",
"751 -21 OFFCURVE"
);
},
{
closed = 1;
nodes = (
"317 351 OFFCURVE",
"317 554 QCURVE SMOOTH",
"317 671 LINE",
"342 716 OFFCURVE",
"421 783 OFFCURVE",
"530 820 OFFCURVE",
"597 820 QCURVE SMOOTH",
"725 820 OFFCURVE",
"870 634 OFFCURVE",
"870 490 QCURVE SMOOTH",
"870 389 OFFCURVE",
"809 227 OFFCURVE",
"695 133 OFFCURVE",
"614 133 QCURVE SMOOTH",
"486 133 OFFCURVE"
);
}
);
userData = {
assembly = "NPUSHB[ ]	/* 72 values pushed */\01212 1 2 1 13 1 3 2 19 1 5 3 42 1 4 5 4 76 0 3 0 5 4 3 5 105 0 2 2 1 97 0 1 1 37 77 7 1 4 4 0 97 6 1 0 0 38 0 78 32 31 1 0 39 37 31 45 32 45 24 22 17 15 10 8 0 30 1 30 8 8 22 \012CALL[ ]	/* CallFunction */";
};
width = 1144;
},
{
layerId = "E08E4BD2-F9DD-4A22-B137-462FE0EF4830";
paths = (
{
closed = 1;
nodes = (
"977 110 OFFCURVE",
"1102 339 OFFCURVE",
"1102 486 QCURVE SMOOTH",
"1102 629 OFFCURVE",
"1002 851 OFFCURVE",
"814 977 OFFCURVE",
"683 977 QCURVE SMOOTH",
"592 977 OFFCURVE",
"441 919 OFFCURVE",
"392 868 QCURVE",
"389 873 LINE",
"390 1058 OFFCURVE",
"539 1248 OFFCURVE",
"683 1248 QCURVE SMOOTH",
"745 1248 OFFCURVE",
"861 1222 OFFCURVE",
"915 1203 QCURVE",
"966 1416 LINE",
"896 1446 OFFCURVE",
"757 1477 OFFCURVE",
"675 1477 QCURVE SMOOTH",
"504 1477 OFFCURVE",
"240 1322 OFFCURVE",
"91 1031 OFFCURVE",
"91 825 QCURVE SMOOTH",
"91 569 LINE SMOOTH",
"91 385 OFFCURVE",
"223 120 OFFCURVE",
"458 -21 OFFCURVE",
"611 -21 QCURVE SMOOTH",
"756 -21 OFFCURVE"
);
},
{
closed = 1;
nodes = (
"382 389 OFFCURVE",
"382 562 QCURVE SMOOTH",
"382 659 LINE",
"403 689 OFFCURVE",
"465 732 OFFCURVE",
"545 756 OFFCURVE",
"590 756 QCURVE SMOOTH",
"695 756 OFFCURVE",
"810 607 OFFCURVE",
"810 490 QCURVE SMOOTH",
"810 410 OFFCURVE",
"760 279 OFFCURVE",
"668 203 OFFCURVE",
"605 203 QCURVE SMOOTH",
"506 203 OFFCURVE"
);
}
);
width = 1144;
},
{
layerId = "3540F6DD-AC2C-489F-A09A-29A5B6885314";
paths = (
{
closed = 1;
nodes = (
"991 111 OFFCURVE",
"1124 339 OFFCURVE",
"1124 483 QCURVE SMOOTH",
"1124 629 OFFCURVE",
"1027 855 OFFCURVE",
"841 983 OFFCURVE",
"709 983 QCURVE SMOOTH",
"620 983 OFFCURVE",
"476 927 OFFCURVE",
"432 877 QCURVE",
"429 882 LINE",
"428 1037 OFFCURVE",
"556 1202 OFFCURVE",
"694 1202 QCURVE SMOOTH",
"750 1202 OFFCURVE",
"869 1178 OFFCURVE",
"927 1161 QCURVE",
"986 1415 LINE",
"903 1448 OFFCURVE",
"769 1477 OFFCURVE",
"682 1477 QCURVE SMOOTH",
"503 1477 OFFCURVE",
"228 1327 OFFCURVE",
"72 1051 OFFCURVE",
"72 860 QCURVE SMOOTH",
"72 567 LINE SMOOTH",
"72 385 OFFCURVE",
"207 121 OFFCURVE",
"449 -21 OFFCURVE",
"609 -21 QCURVE SMOOTH",
"759 -21 OFFCURVE"
);
},
{
closed = 1;
nodes = (
"422 413 OFFCURVE",
"422 567 QCURVE SMOOTH",
"422 652 LINE",
"441 673 OFFCURVE",
"493 701 OFFCURVE",
"554 716 OFFCURVE",
"585 716 QCURVE SMOOTH",
"677 716 OFFCURVE",
"773 591 OFFCURVE",
"773 490 QCURVE SMOOTH",
"773 423 OFFCURVE",
"729 312 OFFCURVE",
"652 246 OFFCURVE",
"600 246 QCURVE SMOOTH",
"518 246 OFFCURVE"
);
}
);
width = 1144;
}
);
note = six;
unicode = 0036;
},
{
glyphname = seven;
lastChange = "2021-04-25 04:09:00 +0000";
layers = (
{
layerId = "E37246A9-A376-4020-9DA5-E0C9FF7935B5";
paths = (
{
closed = 1;
nodes = (
"445 91 LINE",
"468 301 OFFCURVE",
"567 670 OFFCURVE",
"713 993 OFFCURVE",
"898 1277 OFFCURVE",
"1006 1402 QCURVE",
"1006 1456 LINE",
"76 1456 LINE",
"76 1163 LINE",
"130 1163 LINE",
"130 1402 LINE",
"941 1402 LINE",
"791 1224 OFFCURVE",
"564 817 OFFCURVE",
"420 354 OFFCURVE",
"391 91 QCURVE",
"385 0 LINE",
"439 0 LINE"
);
}
);
width = 1104;
},
{
layerId = "142AFF07-46EF-45A1-8A7E-F20FA79F7038";
paths = (
{
closed = 1;
nodes = (
"503 121 LINE SMOOTH",
"525 314 OFFCURVE",
"606 644 OFFCURVE",
"733 939 OFFCURVE",
"912 1216 OFFCURVE",
"1031 1355 QCURVE",
"1031 1456 LINE",
"76 1456 LINE",
"76 1150 LINE",
"183 1150 LINE",
"190 1355 LINE",
"907 1355 LINE",
"761 1180 OFFCURVE",
"547 799 OFFCURVE",
"411 369 OFFCURVE",
"383 121 QCURVE SMOOTH",
"372 0 LINE",
"492 0 LINE"
);
}
);
width = 1115;
},
{
layerId = "1A30CC2E-2F0E-43C1-8400-CBCC094AAC97";
paths = (
{
closed = 1;
nodes = (
"591 330 OFFCURVE",
"651 614 OFFCURVE",
"756 875 OFFCURVE",
"928 1144 OFFCURVE",
"1060 1301 QCURVE",
"1060 1456 LINE",
"76 1456 LINE",
"76 1134 LINE",
"244 1134 LINE",
"259 1301 LINE",
"867 1301 LINE",
"727 1129 OFFCURVE",
"527 777 OFFCURVE",
"401 387 OFFCURVE",
"373 157 QCURVE SMOOTH",
"357 0 LINE",
"554 0 LINE",
"570 157 LINE SMOOTH"
);
}
);
userData = {
assembly = "PUSHB[ ]	/* 5 values pushed */\01212 1 1 1 75 \012MPPEM[ ]	/* MeasurePixelPerEm */\012PUSHB[ ]	/* 1 value pushed */\01216 \012LT[ ]	/* LessThan */\012IF[ ]	/* If */\012NPUSHB[ ]	/* 23 values pushed */\0120 2 1 0 1 2 114 0 1 1 3 95 0 3 3 31 77 0 0 0 32 0 78 \012ELSE[ ]	/* Else */\012NPUSHB[ ]	/* 24 values pushed */\0120 2 1 0 1 2 0 128 0 1 1 3 95 0 3 3 31 77 0 0 0 32 0 78 \012EIF[ ]	/* EndIf */\012PUSHB[ ]	/* 7 values pushed */\01217 17 21 16 4 8 26 \012CALL[ ]	/* CallFunction */";
};
width = 1128;
},
{
layerId = "E08E4BD2-F9DD-4A22-B137-462FE0EF4830";
paths = (
{
closed = 1;
nodes = (
"636 148 LINE SMOOTH",
"655 316 OFFCURVE",
"711 594 OFFCURVE",
"807 845 OFFCURVE",
"961 1094 OFFCURVE",
"1078 1231 QCURVE",
"1078 1456 LINE",
"49 1456 LINE",
"49 1087 LINE",
"273 1087 LINE",
"284 1231 LINE",
"797 1231 LINE",
"667 1082 OFFCURVE",
"481 743 OFFCURVE",
"367 362 OFFCURVE",
"344 148 QCURVE SMOOTH",
"330 0 LINE",
"622 0 LINE"
);
}
);
width = 1107;
},
{
layerId = "3540F6DD-AC2C-489F-A09A-29A5B6885314";
paths = (
{
closed = 1;
nodes = (
"677 142 LINE SMOOTH",
"694 307 OFFCURVE",
"748 582 OFFCURVE",
"838 827 OFFCURVE",
"981 1063 OFFCURVE",
"1089 1188 QCURVE",
"1089 1456 LINE",
"32 1456 LINE",
"32 1058 LINE",
"291 1058 LINE",
"300 1188 LINE",
"754 1188 LINE",
"630 1052 OFFCURVE",
"453 722 OFFCURVE",
"346 347 OFFCURVE",
"326 142 QCURVE SMOOTH",
"313 0 LINE",
"664 0 LINE"
);
}
);
width = 1094;
}
);
note = seven;
unicode = 0037;
},
{
glyphname = eight;
lastChange = "2021-04-25 04:09:00 +0000";
layers = (
{
layerId = "E37246A9-A376-4020-9DA5-E0C9FF7935B5";
paths = (
{
closed = 1;
nodes = (
"901 72 OFFCURVE",
"1020 251 OFFCURVE",
"1020 379 QCURVE SMOOTH",
"1020 511 OFFCURVE",
"847 707 OFFCURVE",
"708 745 QCURVE",
"829 782 OFFCURVE",
"978 964 OFFCURVE",
"978 1086 QCURVE SMOOTH",
"978 1208 OFFCURVE",
"868 1383 OFFCURVE",
"677 1477 OFFCURVE",
"555 1477 QCURVE SMOOTH",
"432 1477 OFFCURVE",
"241 1384 OFFCURVE",
"133 1209 OFFCURVE",
"133 1086 QCURVE SMOOTH",
"133 963 OFFCURVE",
"279 782 OFFCURVE",
"401 745 QCURVE",
"261 708 OFFCURVE",
"92 512 OFFCURVE",
"92 379 QCURVE SMOOTH",
"92 251 OFFCURVE",
"210 72 OFFCURVE",
"420 -21 OFFCURVE",
"557 -21 QCURVE SMOOTH",
"692 -21 OFFCURVE"
);
},
{
closed = 1;
nodes = (
"146 213 OFFCURVE",
"146 374 QCURVE SMOOTH",
"146 477 OFFCURVE",
"252 632 OFFCURVE",
"437 718 OFFCURVE",
"555 718 QCURVE SMOOTH",
"671 718 OFFCURVE",
"857 632 OFFCURVE",
"965 477 OFFCURVE",
"965 374 QCURVE SMOOTH",
"965 267 OFFCURVE",
"859 115 OFFCURVE",
"674 33 OFFCURVE",
"557 33 QCURVE SMOOTH",
"376 33 OFFCURVE"
);
},
{
closed = 1;
nodes = (
"187 945 OFFCURVE",
"187 1091 QCURVE SMOOTH",
"187 1242 OFFCURVE",
"394 1423 OFFCURVE",
"555 1423 QCURVE SMOOTH",
"658 1423 OFFCURVE",
"826 1336 OFFCURVE",
"924 1186 OFFCURVE",
"924 1091 QCURVE SMOOTH",
"924 994 OFFCURVE",
"828 851 OFFCURVE",
"662 772 OFFCURVE",
"557 772 QCURVE SMOOTH",
"395 772 OFFCURVE"
);
}
);
width = 1123;
},
{
layerId = "142AFF07-46EF-45A1-8A7E-F20FA79F7038";
paths = (
{
closed = 1;
nodes = (
"909 73 OFFCURVE",
"1029 255 OFFCURVE",
"1029 386 QCURVE SMOOTH",
"1029 514 OFFCURVE",
"866 706 OFFCURVE",
"733 747 QCURVE",
"848 786 OFFCURVE",
"988 963 OFFCURVE",
"988 1081 QCURVE SMOOTH",
"988 1206 OFFCURVE",
"877 1383 OFFCURVE",
"684 1477 OFFCURVE",
"559 1477 QCURVE SMOOTH",
"433 1477 OFFCURVE",
"241 1384 OFFCURVE",
"133 1207 OFFCURVE",
"133 1081 QCURVE SMOOTH",
"133 963 OFFCURVE",
"269 786 OFFCURVE",
"385 747 QCURVE",
"251 707 OFFCURVE",
"92 514 OFFCURVE",
"92 386 QCURVE SMOOTH",
"92 255 OFFCURVE",
"210 73 OFFCURVE",
"421 -21 OFFCURVE",
"561 -21 QCURVE SMOOTH",
"698 -21 OFFCURVE"
);
},
{
closed = 1;
nodes = (
"212 241 OFFCURVE",
"212 385 QCURVE SMOOTH",
"212 478 OFFCURVE",
"301 618 OFFCURVE",
"458 697 OFFCURVE",
"559 697 QCURVE SMOOTH",
"659 697 OFFCURVE",
"817 618 OFFCURVE",
"909 477 OFFCURVE",
"909 385 QCURVE SMOOTH",
"909 290 OFFCURVE",
"819 153 OFFCURVE",
"662 79 OFFCURVE",
"561 79 QCURVE SMOOTH",
"406 79 OFFCURVE"
);
},
{
closed = 1;
nodes = (
"253 952 OFFCURVE",
"253 1082 QCURVE SMOOTH",
"253 1216 OFFCURVE",
"424 1376 OFFCURVE",
"559 1376 QCURVE SMOOTH",
"646 1376 OFFCURVE",
"786 1300 OFFCURVE",
"868 1167 OFFCURVE",
"868 1082 QCURVE SMOOTH",
"868 996 OFFCURVE",
"788 868 OFFCURVE",
"650 797 OFFCURVE",
"561 797 QCURVE SMOOTH",
"425 797 OFFCURVE"
);
}
);
width = 1127;
},
{
layerId = "1A30CC2E-2F0E-43C1-8400-CBCC094AAC97";
paths = (
{
closed = 1;
nodes = (
"919 74 OFFCURVE",
"1039 259 OFFCURVE",
"1039 394 QCURVE SMOOTH",
"1039 517 OFFCURVE",
"888 705 OFFCURVE",
"762 749 QCURVE",
"871 791 OFFCURVE",
"999 962 OFFCURVE",
"999 1076 QCURVE SMOOTH",
"999 1204 OFFCURVE",
"888 1383 OFFCURVE",
"692 1477 OFFCURVE",
"564 1477 QCURVE SMOOTH",
"435 1477 OFFCURVE",
"241 1383 OFFCURVE",
"133 1204 OFFCURVE",
"133 1076 QCURVE SMOOTH",
"133 962 OFFCURVE",
"257 791 OFFCURVE",
"366 749 QCURVE",
"240 705 OFFCURVE",
"92 517 OFFCURVE",
"92 394 QCURVE SMOOTH",
"92 259 OFFCURVE",
"210 74 OFFCURVE",
"423 -21 OFFCURVE",
"566 -21 QCURVE SMOOTH",
"706 -21 OFFCURVE"
);
},
{
closed = 1;
nodes = (
"289 274 OFFCURVE",
"289 398 QCURVE SMOOTH",
"289 479 OFFCURVE",
"359 602 OFFCURVE",
"483 672 OFFCURVE",
"564 672 QCURVE SMOOTH",
"645 672 OFFCURVE",
"771 602 OFFCURVE",
"843 478 OFFCURVE",
"843 398 QCURVE SMOOTH",
"843 316 OFFCURVE",
"773 197 OFFCURVE",
"648 133 OFFCURVE",
"566 133 QCURVE SMOOTH",
"440 133 OFFCURVE"
);
},
{
closed = 1;
nodes = (
"330 961 OFFCURVE",
"330 1072 QCURVE SMOOTH",
"330 1185 OFFCURVE",
"459 1322 OFFCURVE",
"564 1322 QCURVE SMOOTH",
"633 1322 OFFCURVE",
"740 1257 OFFCURVE",
"802 1144 OFFCURVE",
"802 1072 QCURVE SMOOTH",
"802 998 OFFCURVE",
"742 888 OFFCURVE",
"635 827 OFFCURVE",
"566 827 QCURVE SMOOTH",
"460 827 OFFCURVE"
);
}
);
userData = {
assembly = "NPUSHB[ ]	/* 66 values pushed */\01221 7 2 3 4 1 76 8 1 4 0 3 2 4 3 105 0 5 5 1 97 0 1 1 37 77 7 1 2 2 0 97 6 1 0 0 38 0 78 44 43 29 28 1 0 52 50 43 56 44 56 37 35 28 42 29 42 15 13 0 27 1 27 9 8 22 \012CALL[ ]	/* CallFunction */";
};
width = 1131;
},
{
layerId = "E08E4BD2-F9DD-4A22-B137-462FE0EF4830";
paths = (
{
closed = 1;
nodes = (
"934 76 OFFCURVE",
"1059 263 OFFCURVE",
"1059 398 QCURVE SMOOTH",
"1059 515 OFFCURVE",
"925 697 OFFCURVE",
"809 746 QCURVE",
"910 793 OFFCURVE",
"1026 961 OFFCURVE",
"1026 1070 QCURVE SMOOTH",
"1026 1200 OFFCURVE",
"910 1381 OFFCURVE",
"701 1477 OFFCURVE",
"562 1477 QCURVE SMOOTH",
"424 1477 OFFCURVE",
"216 1381 OFFCURVE",
"100 1200 OFFCURVE",
"100 1070 QCURVE SMOOTH",
"100 961 OFFCURVE",
"214 793 OFFCURVE",
"316 746 QCURVE",
"201 697 OFFCURVE",
"67 516 OFFCURVE",
"67 398 QCURVE SMOOTH",
"67 263 OFFCURVE",
"192 76 OFFCURVE",
"416 -21 OFFCURVE",
"564 -21 QCURVE SMOOTH",
"712 -21 OFFCURVE"
);
},
{
closed = 1;
nodes = (
"359 318 OFFCURVE",
"359 418 QCURVE SMOOTH",
"359 483 OFFCURVE",
"410 580 OFFCURVE",
"502 634 OFFCURVE",
"562 634 QCURVE SMOOTH",
"623 634 OFFCURVE",
"715 580 OFFCURVE",
"768 484 OFFCURVE",
"768 418 QCURVE SMOOTH",
"768 352 OFFCURVE",
"717 255 OFFCURVE",
"625 203 OFFCURVE",
"564 203 QCURVE SMOOTH",
"471 203 OFFCURVE"
);
},
{
closed = 1;
nodes = (
"393 966 OFFCURVE",
"393 1057 QCURVE SMOOTH",
"393 1147 OFFCURVE",
"482 1252 OFFCURVE",
"562 1252 QCURVE SMOOTH",
"615 1252 OFFCURVE",
"692 1203 OFFCURVE",
"734 1116 OFFCURVE",
"734 1057 QCURVE SMOOTH",
"734 997 OFFCURVE",
"693 908 OFFCURVE",
"616 859 OFFCURVE",
"564 859 QCURVE SMOOTH",
"483 859 OFFCURVE"
);
}
);
width = 1115;
},
{
layerId = "3540F6DD-AC2C-489F-A09A-29A5B6885314";
paths = (
{
closed = 1;
nodes = (
"944 77 OFFCURVE",
"1071 266 OFFCURVE",
"1071 400 QCURVE SMOOTH",
"1071 514 OFFCURVE",
"948 692 OFFCURVE",
"838 744 QCURVE",
"934 794 OFFCURVE",
"1043 960 OFFCURVE",
"1043 1066 QCURVE SMOOTH",
"1043 1197 OFFCURVE",
"923 1380 OFFCURVE",
"706 1477 OFFCURVE",
"561 1477 QCURVE SMOOTH",
"417 1477 OFFCURVE",
"200 1380 OFFCURVE",
"80 1197 OFFCURVE",
"80 1066 QCURVE SMOOTH",
"80 960 OFFCURVE",
"188 794 OFFCURVE",
"285 744 QCURVE",
"176 692 OFFCURVE",
"51 516 OFFCURVE",
"51 400 QCURVE SMOOTH",
"51 266 OFFCURVE",
"181 77 OFFCURVE",
"412 -21 OFFCURVE",
"563 -21 QCURVE SMOOTH",
"715 -21 OFFCURVE"
);
},
{
closed = 1;
nodes = (
"402 345 OFFCURVE",
"402 430 QCURVE SMOOTH",
"402 486 OFFCURVE",
"442 567 OFFCURVE",
"513 610 OFFCURVE",
"561 610 QCURVE SMOOTH",
"609 610 OFFCURVE",
"681 567 OFFCURVE",
"721 487 OFFCURVE",
"721 430 QCURVE SMOOTH",
"721 374 OFFCURVE",
"682 291 OFFCURVE",
"611 246 OFFCURVE",
"563 246 QCURVE SMOOTH",
"490 246 OFFCURVE"
);
},
{
closed = 1;
nodes = (
"432 969 OFFCURVE",
"432 1048 QCURVE SMOOTH",
"432 1124 OFFCURVE",
"497 1209 OFFCURVE",
"561 1209 QCURVE SMOOTH",
"604 1209 OFFCURVE",
"662 1170 OFFCURVE",
"692 1098 OFFCURVE",
"692 1048 QCURVE SMOOTH",
"692 996 OFFCURVE",
"662 920 OFFCURVE",
"605 879 OFFCURVE",
"563 879 QCURVE SMOOTH",
"497 879 OFFCURVE"
);
}
);
width = 1105;
}
);
note = eight;
unicode = 0038;
},
{
glyphname = nine;
lastChange = "2021-04-25 04:09:00 +0000";
layers = (
{
layerId = "E37246A9-A376-4020-9DA5-E0C9FF7935B5";
paths = (
{
closed = 1;
nodes = (
"850 113 OFFCURVE",
"962 381 OFFCURVE",
"962 580 QCURVE SMOOTH",
"962 923 LINE SMOOTH",
"962 1111 OFFCURVE",
"852 1357 OFFCURVE",
"653 1477 OFFCURVE",
"520 1477 QCURVE SMOOTH",
"393 1477 OFFCURVE",
"196 1337 OFFCURVE",
"84 1101 OFFCURVE",
"84 958 QCURVE SMOOTH",
"84 823 OFFCURVE",
"194 600 OFFCURVE",
"387 468 OFFCURVE",
"512 468 QCURVE SMOOTH",
"639 468 OFFCURVE",
"844 592 OFFCURVE",
"900 701 QCURVE",
"900 578 LINE SMOOTH",
"900 309 OFFCURVE",
"689 33 OFFCURVE",
"501 33 QCURVE SMOOTH",
"415 33 OFFCURVE",
"279 65 OFFCURVE",
"204 99 QCURVE",
"188 42 LINE",
"267 11 OFFCURVE",
"423 -21 OFFCURVE",
"501 -21 QCURVE SMOOTH",
"643 -21 OFFCURVE"
);
},
{
closed = 1;
nodes = (
"237 641 OFFCURVE",
"146 839 OFFCURVE",
"146 958 QCURVE SMOOTH",
"146 1081 OFFCURVE",
"242 1293 OFFCURVE",
"412 1423 OFFCURVE",
"524 1423 QCURVE SMOOTH",
"695 1423 OFFCURVE",
"900 1178 OFFCURVE",
"900 922 QCURVE SMOOTH",
"900 811 LINE",
"860 692 OFFCURVE",
"660 521 OFFCURVE",
"512 521 QCURVE SMOOTH",
"401 521 OFFCURVE"
);
}
);
width = 1125;
},
{
layerId = "142AFF07-46EF-45A1-8A7E-F20FA79F7038";
paths = (
{
closed = 1;
nodes = (
"872 119 OFFCURVE",
"992 400 OFFCURVE",
"992 612 QCURVE SMOOTH",
"992 918 LINE SMOOTH",
"992 1105 OFFCURVE",
"877 1354 OFFCURVE",
"669 1477 OFFCURVE",
"527 1477 QCURVE SMOOTH",
"401 1477 OFFCURVE",
"200 1340 OFFCURVE",
"84 1105 OFFCURVE",
"84 958 QCURVE SMOOTH",
"84 812 OFFCURVE",
"194 588 OFFCURVE",
"393 463 OFFCURVE",
"526 463 QCURVE SMOOTH",
"636 463 OFFCURVE",
"813 563 OFFCURVE",
"862 653 QCURVE",
"864 584 LINE SMOOTH",
"862 328 OFFCURVE",
"672 79 OFFCURVE",
"506 79 QCURVE SMOOTH",
"422 79 OFFCURVE",
"291 108 OFFCURVE",
"222 140 QCURVE",
"200 40 LINE",
"271 10 OFFCURVE",
"429 -21 OFFCURVE",
"506 -21 QCURVE SMOOTH",
"654 -21 OFFCURVE"
);
},
{
closed = 1;
nodes = (
"286 667 OFFCURVE",
"208 845 OFFCURVE",
"208 958 QCURVE SMOOTH",
"208 1074 OFFCURVE",
"292 1263 OFFCURVE",
"438 1376 OFFCURVE",
"532 1376 QCURVE SMOOTH",
"689 1376 OFFCURVE",
"867 1154 OFFCURVE",
"867 927 QCURVE SMOOTH",
"867 796 LINE",
"831 698 OFFCURVE",
"656 563 OFFCURVE",
"526 563 QCURVE SMOOTH",
"429 563 OFFCURVE"
);
}
);
width = 1138;
},
{
layerId = "1A30CC2E-2F0E-43C1-8400-CBCC094AAC97";
paths = (
{
closed = 1;
nodes = (
"898 125 OFFCURVE",
"1026 423 OFFCURVE",
"1026 650 QCURVE SMOOTH",
"1026 913 LINE SMOOTH",
"1026 1099 OFFCURVE",
"907 1350 OFFCURVE",
"687 1477 OFFCURVE",
"535 1477 QCURVE SMOOTH",
"410 1477 OFFCURVE",
"205 1344 OFFCURVE",
"84 1110 OFFCURVE",
"84 958 QCURVE SMOOTH",
"84 799 OFFCURVE",
"195 575 OFFCURVE",
"401 457 OFFCURVE",
"543 457 QCURVE SMOOTH",
"633 457 OFFCURVE",
"777 529 OFFCURVE",
"817 596 QCURVE",
"821 591 LINE",
"818 350 OFFCURVE",
"653 133 OFFCURVE",
"511 133 QCURVE SMOOTH",
"431 133 OFFCURVE",
"304 158 OFFCURVE",
"243 187 QCURVE",
"213 38 LINE",
"276 8 OFFCURVE",
"435 -21 OFFCURVE",
"511 -21 QCURVE SMOOTH",
"667 -21 OFFCURVE"
);
},
{
closed = 1;
nodes = (
"344 698 OFFCURVE",
"281 853 OFFCURVE",
"281 958 QCURVE SMOOTH",
"281 1065 OFFCURVE",
"350 1229 OFFCURVE",
"468 1322 OFFCURVE",
"541 1322 QCURVE SMOOTH",
"682 1322 OFFCURVE",
"829 1126 OFFCURVE",
"829 933 QCURVE SMOOTH",
"829 779 LINE",
"797 706 OFFCURVE",
"652 612 OFFCURVE",
"543 612 QCURVE SMOOTH",
"462 612 OFFCURVE"
);
}
);
userData = {
assembly = "NPUSHB[ ]	/* 72 values pushed */\01234 1 4 5 10 1 2 4 4 1 1 2 3 1 0 1 4 76 7 1 4 0 2 1 4 2 105 0 5 5 3 97 0 3 3 37 77 0 1 1 0 97 6 1 0 0 38 0 78 32 31 1 0 39 37 31 45 32 45 23 21 15 13 8 6 0 30 1 30 8 8 22 \012CALL[ ]	/* CallFunction */";
};
width = 1154;
},
{
layerId = "E08E4BD2-F9DD-4A22-B137-462FE0EF4830";
paths = (
{
closed = 1;
nodes = (
"912 120 OFFCURVE",
"1053 388 OFFCURVE",
"1053 576 QCURVE SMOOTH",
"1053 892 LINE SMOOTH",
"1053 1077 OFFCURVE",
"927 1339 OFFCURVE",
"701 1477 OFFCURVE",
"552 1477 QCURVE SMOOTH",
"411 1477 OFFCURVE",
"190 1340 OFFCURVE",
"63 1104 OFFCURVE",
"63 957 QCURVE SMOOTH",
"63 800 OFFCURVE",
"170 576 OFFCURVE",
"365 455 OFFCURVE",
"494 455 QCURVE SMOOTH",
"576 455 OFFCURVE",
"713 520 OFFCURVE",
"762 583 QCURVE",
"764 561 LINE",
"762 377 OFFCURVE",
"616 203 OFFCURVE",
"489 203 QCURVE SMOOTH",
"425 203 OFFCURVE",
"292 228 OFFCURVE",
"229 251 QCURVE",
"196 40 LINE",
"264 10 OFFCURVE",
"425 -21 OFFCURVE",
"501 -21 QCURVE SMOOTH",
"663 -21 OFFCURVE"
);
},
{
closed = 1;
nodes = (
"400 739 OFFCURVE",
"355 869 OFFCURVE",
"355 957 QCURVE SMOOTH",
"355 1038 OFFCURVE",
"406 1173 OFFCURVE",
"495 1252 OFFCURVE",
"554 1252 QCURVE SMOOTH",
"650 1252 OFFCURVE",
"762 1087 OFFCURVE",
"762 926 QCURVE SMOOTH",
"762 770 LINE",
"730 724 OFFCURVE",
"624 669 OFFCURVE",
"557 669 QCURVE SMOOTH",
"490 669 OFFCURVE"
);
}
);
width = 1141;
},
{
layerId = "3540F6DD-AC2C-489F-A09A-29A5B6885314";
paths = (
{
closed = 1;
nodes = (
"920 117 OFFCURVE",
"1070 366 OFFCURVE",
"1070 530 QCURVE SMOOTH",
"1070 879 LINE SMOOTH",
"1070 1064 OFFCURVE",
"939 1332 OFFCURVE",
"710 1477 OFFCURVE",
"563 1477 QCURVE SMOOTH",
"412 1477 OFFCURVE",
"180 1337 OFFCURVE",
"50 1101 OFFCURVE",
"50 956 QCURVE SMOOTH",
"50 801 OFFCURVE",
"155 576 OFFCURVE",
"342 454 OFFCURVE",
"463 454 QCURVE SMOOTH",
"540 454 OFFCURVE",
"673 514 OFFCURVE",
"728 575 QCURVE",
"728 542 LINE SMOOTH",
"728 394 OFFCURVE",
"593 246 OFFCURVE",
"475 246 QCURVE SMOOTH",
"421 246 OFFCURVE",
"284 271 OFFCURVE",
"220 291 QCURVE",
"185 41 LINE",
"256 11 OFFCURVE",
"419 -21 OFFCURVE",
"495 -21 QCURVE SMOOTH",
"661 -21 OFFCURVE"
);
},
{
closed = 1;
nodes = (
"435 765 OFFCURVE",
"401 879 OFFCURVE",
"401 956 QCURVE SMOOTH",
"401 1022 OFFCURVE",
"440 1138 OFFCURVE",
"512 1209 OFFCURVE",
"562 1209 QCURVE SMOOTH",
"630 1209 OFFCURVE",
"720 1062 OFFCURVE",
"720 922 QCURVE SMOOTH",
"720 764 LINE",
"689 735 OFFCURVE",
"606 704 OFFCURVE",
"565 704 QCURVE SMOOTH",
"507 704 OFFCURVE"
);
}
);
width = 1133;
}
);
note = nine;
unicode = 0039;
},
{
glyphname = colon;
lastChange = "2021-04-25 04:09:00 +0000";
layers = (
{
layerId = "E37246A9-A376-4020-9DA5-E0C9FF7935B5";
paths = (
{
closed = 1;
nodes = (
"204 130 LINE",
"118 130 LINE",
"118 0 LINE",
"204 0 LINE"
);
},
{
closed = 1;
nodes = (
"204 1079 LINE",
"118 1079 LINE",
"118 949 LINE",
"204 949 LINE"
);
}
);
width = 364;
},
{
layerId = "142AFF07-46EF-45A1-8A7E-F20FA79F7038";
paths = (
{
closed = 1;
nodes = (
"267 163 LINE",
"130 163 LINE",
"130 0 LINE",
"267 0 LINE"
);
},
{
closed = 1;
nodes = (
"267 1080 LINE",
"130 1080 LINE",
"130 917 LINE",
"267 917 LINE"
);
}
);
width = 389;
},
{
layerId = "1A30CC2E-2F0E-43C1-8400-CBCC094AAC97";
paths = (
{
closed = 1;
nodes = (
"145 880 LINE",
"342 880 LINE",
"342 1082 LINE",
"145 1082 LINE"
);
},
{
closed = 1;
nodes = (
"145 0 LINE",
"342 0 LINE",
"342 202 LINE",
"145 202 LINE"
);
}
);
userData = {
assembly = "NPUSHB[ ]	/* 41 values pushed */\0120 0 0 1 95 4 1 1 1 34 77 5 1 3 3 2 95 0 2 2 32 2 78 4 4 0 0 4 7 4 7 6 5 0 3 0 3 17 6 8 23 \012CALL[ ]	/* CallFunction */";
};
width = 419;
},
{
layerId = "E08E4BD2-F9DD-4A22-B137-462FE0EF4830";
paths = (
{
closed = 1;
nodes = (
"382 256 LINE",
"91 256 LINE",
"91 0 LINE",
"382 0 LINE"
);
},
{
closed = 1;
nodes = (
"382 1081 LINE",
"91 1081 LINE",
"91 825 LINE",
"382 825 LINE"
);
}
);
width = 455;
},
{
layerId = "3540F6DD-AC2C-489F-A09A-29A5B6885314";
paths = (
{
closed = 1;
nodes = (
"406 290 LINE",
"57 290 LINE",
"57 0 LINE",
"406 0 LINE"
);
},
{
closed = 1;
nodes = (
"406 1081 LINE",
"57 1081 LINE",
"57 791 LINE",
"406 791 LINE"
);
}
);
width = 477;
}
);
note = colon;
unicode = 003A;
},
{
glyphname = semicolon;
lastChange = "2021-04-25 04:09:00 +0000";
layers = (
{
layerId = "E37246A9-A376-4020-9DA5-E0C9FF7935B5";
paths = (
{
closed = 1;
nodes = (
"211 1082 LINE",
"125 1082 LINE",
"125 952 LINE",
"211 952 LINE"
);
},
{
closed = 1;
nodes = (
"219 -61 OFFCURVE",
"219 27 QCURVE SMOOTH",
"219 159 LINE",
"165 159 LINE",
"165 25 LINE SMOOTH",
"165 -49 OFFCURVE",
"122 -162 OFFCURVE",
"76 -223 QCURVE",
"113 -255 LINE",
"163 -201 OFFCURVE"
);
}
);
width = 364;
},
{
layerId = "142AFF07-46EF-45A1-8A7E-F20FA79F7038";
paths = (
{
closed = 1;
nodes = (
"272 1082 LINE",
"135 1082 LINE",
"135 919 LINE",
"272 919 LINE"
);
},
{
closed = 1;
nodes = (
"277 -45 OFFCURVE",
"277 48 QCURVE SMOOTH",
"277 188 LINE",
"157 188 LINE",
"157 45 LINE SMOOTH",
"157 -33 OFFCURVE",
"112 -163 OFFCURVE",
"65 -229 QCURVE",
"136 -281 LINE",
"202 -219 OFFCURVE"
);
}
);
width = 392;
},
{
layerId = "1A30CC2E-2F0E-43C1-8400-CBCC094AAC97";
paths = (
{
closed = 1;
nodes = (
"345 -26 OFFCURVE",
"345 72 QCURVE SMOOTH",
"345 221 LINE",
"148 221 LINE",
"148 69 LINE SMOOTH",
"148 -15 OFFCURVE",
"100 -165 OFFCURVE",
"53 -237 QCURVE",
"164 -311 LINE",
"247 -240 OFFCURVE"
);
},
{
closed = 1;
nodes = (
"146 880 LINE",
"343 880 LINE",
"343 1082 LINE",
"146 1082 LINE"
);
}
);
userData = {
assembly = "NPUSHB[ ]	/* 32 values pushed */\0121 1 0 73 0 0 1 0 134 0 1 1 2 95 3 1 2 2 34 1 78 10 10 10 13 10 13 21 21 4 8 24 \012CALL[ ]	/* CallFunction */";
};
width = 424;
},
{
layerId = "E08E4BD2-F9DD-4A22-B137-462FE0EF4830";
paths = (
{
closed = 1;
nodes = (
"381 1081 LINE",
"90 1081 LINE",
"90 825 LINE",
"381 825 LINE"
);
},
{
closed = 1;
nodes = (
"370 -78 OFFCURVE",
"370 39 QCURVE SMOOTH",
"371 243 LINE",
"109 243 LINE",
"109 25 LINE SMOOTH",
"109 -67 OFFCURVE",
"67 -216 OFFCURVE",
"28 -286 QCURVE",
"172 -364 LINE",
"255 -291 OFFCURVE"
);
}
);
width = 453;
},
{
layerId = "3540F6DD-AC2C-489F-A09A-29A5B6885314";
paths = (
{
closed = 1;
nodes = (
"404 1081 LINE",
"55 1081 LINE",
"55 791 LINE",
"404 791 LINE"
);
},
{
closed = 1;
nodes = (
"386 -111 OFFCURVE",
"386 19 QCURVE SMOOTH",
"387 257 LINE",
"85 257 LINE",
"85 -2 LINE SMOOTH",
"85 -99 OFFCURVE",
"47 -248 OFFCURVE",
"13 -316 QCURVE",
"177 -397 LINE",
"260 -323 OFFCURVE"
);
}
);
width = 471;
}
);
note = semicolon;
unicode = 003B;
},
{
glyphname = less;
lastChange = "2021-04-25 04:09:00 +0000";
layers = (
{
layerId = "E37246A9-A376-4020-9DA5-E0C9FF7935B5";
paths = (
{
closed = 1;
nodes = (
"252 498 LINE",
"133 534 LINE",
"133 540 LINE",
"252 577 LINE",
"913 885 LINE",
"913 943 LINE",
"76 565 LINE",
"76 515 LINE",
"913 136 LINE",
"913 195 LINE"
);
}
);
width = 1027;
},
{
layerId = "142AFF07-46EF-45A1-8A7E-F20FA79F7038";
paths = (
{
closed = 1;
nodes = (
"289 516 LINE",
"186 544 LINE",
"186 550 LINE",
"289 578 LINE",
"903 851 LINE",
"903 975 LINE",
"76 597 LINE",
"76 502 LINE",
"903 123 LINE",
"903 247 LINE"
);
}
);
width = 1022;
},
{
layerId = "1A30CC2E-2F0E-43C1-8400-CBCC094AAC97";
paths = (
{
closed = 1;
nodes = (
"248 561 LINE",
"333 579 LINE",
"892 812 LINE",
"892 1013 LINE",
"76 635 LINE",
"76 486 LINE",
"892 107 LINE",
"892 308 LINE",
"333 536 LINE",
"248 555 LINE"
);
}
);
userData = {
assembly = "PUSHB[ ]	/* 4 values pushed */\0125 2 1 50 \012CALL[ ]	/* CallFunction */";
};
width = 1017;
},
{
layerId = "E08E4BD2-F9DD-4A22-B137-462FE0EF4830";
paths = (
{
closed = 1;
nodes = (
"397 531 LINE",
"343 544 LINE",
"343 550 LINE",
"397 563 LINE",
"919 757 LINE",
"919 1029 LINE",
"58 663 LINE",
"58 436 LINE",
"919 69 LINE",
"919 341 LINE"
);
}
);
width = 1012;
},
{
layerId = "3540F6DD-AC2C-489F-A09A-29A5B6885314";
paths = (
{
closed = 1;
nodes = (
"437 528 LINE",
"402 537 LINE",
"402 543 LINE",
"437 553 LINE",
"936 723 LINE",
"936 1039 LINE",
"47 680 LINE",
"47 405 LINE",
"936 45 LINE",
"936 361 LINE"
);
}
);
width = 1009;
}
);
note = less;
unicode = 003C;
},
{
glyphname = equal;
lastChange = "2021-04-25 04:09:00 +0000";
layers = (
{
layerId = "E37246A9-A376-4020-9DA5-E0C9FF7935B5";
paths = (
{
closed = 1;
nodes = (
"981 897 LINE",
"147 897 LINE",
"147 843 LINE",
"981 843 LINE"
);
},
{
closed = 1;
nodes = (
"981 490 LINE",
"147 490 LINE",
"147 436 LINE",
"981 436 LINE"
);
}
);
width = 1127;
},
{
layerId = "142AFF07-46EF-45A1-8A7E-F20FA79F7038";
paths = (
{
closed = 1;
nodes = (
"981 939 LINE",
"147 939 LINE",
"147 834 LINE",
"981 834 LINE"
);
},
{
closed = 1;
nodes = (
"981 527 LINE",
"147 527 LINE",
"147 423 LINE",
"981 423 LINE"
);
}
);
width = 1127;
},
{
layerId = "1A30CC2E-2F0E-43C1-8400-CBCC094AAC97";
paths = (
{
closed = 1;
nodes = (
"147 823 LINE",
"981 823 LINE",
"981 987 LINE",
"147 987 LINE"
);
},
{
closed = 1;
nodes = (
"147 407 LINE",
"981 407 LINE",
"981 571 LINE",
"147 571 LINE"
);
}
);
userData = {
assembly = "NPUSHB[ ]	/* 45 values pushed */\0124 1 1 0 0 3 1 0 103 5 1 3 2 2 3 87 5 1 3 3 2 95 0 2 3 2 79 4 4 0 0 4 7 4 7 6 5 0 3 0 3 17 6 8 23 \012CALL[ ]	/* CallFunction */";
};
width = 1127;
},
{
layerId = "E08E4BD2-F9DD-4A22-B137-462FE0EF4830";
paths = (
{
closed = 1;
nodes = (
"1019 992 LINE",
"123 992 LINE",
"123 763 LINE",
"1019 763 LINE"
);
},
{
closed = 1;
nodes = (
"1019 561 LINE",
"123 561 LINE",
"123 332 LINE",
"1019 332 LINE"
);
}
);
width = 1123;
},
{
layerId = "3540F6DD-AC2C-489F-A09A-29A5B6885314";
paths = (
{
closed = 1;
nodes = (
"1043 995 LINE",
"108 995 LINE",
"108 726 LINE",
"1043 726 LINE"
);
},
{
closed = 1;
nodes = (
"1043 555 LINE",
"108 555 LINE",
"108 285 LINE",
"1043 285 LINE"
);
}
);
width = 1121;
}
);
note = equal;
unicode = 003D;
},
{
glyphname = greater;
lastChange = "2021-04-25 04:09:00 +0000";
layers = (
{
layerId = "E37246A9-A376-4020-9DA5-E0C9FF7935B5";
paths = (
{
closed = 1;
nodes = (
"961 566 LINE",
"125 944 LINE",
"125 886 LINE",
"785 582 LINE",
"903 545 LINE",
"903 539 LINE",
"785 503 LINE",
"125 196 LINE",
"125 137 LINE",
"961 516 LINE"
);
}
);
width = 1052;
},
{
layerId = "142AFF07-46EF-45A1-8A7E-F20FA79F7038";
paths = (
{
closed = 1;
nodes = (
"970 589 LINE",
"125 967 LINE",
"125 845 LINE",
"756 574 LINE",
"859 545 LINE",
"859 539 LINE",
"756 511 LINE",
"125 236 LINE",
"125 114 LINE",
"970 493 LINE"
);
}
);
width = 1056;
},
{
layerId = "1A30CC2E-2F0E-43C1-8400-CBCC094AAC97";
paths = (
{
closed = 1;
nodes = (
"125 798 LINE",
"723 564 LINE",
"807 544 LINE",
"807 538 LINE",
"723 521 LINE",
"125 283 LINE",
"125 87 LINE",
"980 466 LINE",
"980 615 LINE",
"125 993 LINE"
);
}
);
userData = {
assembly = "PUSHB[ ]	/* 4 values pushed */\0129 2 1 50 \012CALL[ ]	/* CallFunction */";
};
width = 1060;
},
{
layerId = "E08E4BD2-F9DD-4A22-B137-462FE0EF4830";
paths = (
{
closed = 1;
nodes = (
"975 654 LINE",
"104 1020 LINE",
"104 751 LINE",
"628 562 LINE",
"689 545 LINE",
"689 539 LINE",
"628 526 LINE",
"104 330 LINE",
"104 60 LINE",
"975 427 LINE"
);
}
);
width = 1031;
},
{
layerId = "3540F6DD-AC2C-489F-A09A-29A5B6885314";
paths = (
{
closed = 1;
nodes = (
"972 678 LINE",
"91 1037 LINE",
"91 722 LINE",
"569 560 LINE",
"616 546 LINE",
"616 540 LINE",
"569 529 LINE",
"91 359 LINE",
"91 43 LINE",
"972 403 LINE"
);
}
);
width = 1013;
}
);
note = greater;
unicode = 003E;
},
{
glyphname = question;
lastChange = "2021-04-25 04:09:00 +0000";
layers = (
{
layerId = "E37246A9-A376-4020-9DA5-E0C9FF7935B5";
paths = (
{
closed = 1;
nodes = (
"416 467 OFFCURVE",
"429 548 OFFCURVE",
"472 612 OFFCURVE",
"515 650 QCURVE SMOOTH",
"601 727 OFFCURVE",
"713 865 OFFCURVE",
"768 1016 OFFCURVE",
"768 1110 QCURVE SMOOTH",
"768 1275 OFFCURVE",
"579 1477 OFFCURVE",
"415 1477 QCURVE SMOOTH",
"312 1477 OFFCURVE",
"153 1394 OFFCURVE",
"64 1235 OFFCURVE",
"65 1122 QCURVE",
"68 1116 LINE",
"114 1116 LINE",
"117 1255 OFFCURVE",
"273 1424 OFFCURVE",
"415 1424 QCURVE SMOOTH",
"558 1424 OFFCURVE",
"714 1258 OFFCURVE",
"714 1112 QCURVE SMOOTH",
"714 1018 OFFCURVE",
"668 888 OFFCURVE",
"568 769 OFFCURVE",
"487 692 QCURVE SMOOTH",
"445 653 OFFCURVE",
"395 595 OFFCURVE",
"370 536 OFFCURVE",
"362 459 OFFCURVE",
"362 400 QCURVE",
"416 400 LINE"
);
},
{
closed = 1;
nodes = (
"440 106 LINE",
"358 106 LINE",
"358 0 LINE",
"440 0 LINE"
);
}
);
width = 901;
},
{
layerId = "142AFF07-46EF-45A1-8A7E-F20FA79F7038";
paths = (
{
closed = 1;
nodes = (
"481 469 OFFCURVE",
"492 547 OFFCURVE",
"530 609 OFFCURVE",
"569 646 QCURVE SMOOTH",
"655 727 OFFCURVE",
"768 867 OFFCURVE",
"824 1013 OFFCURVE",
"824 1104 QCURVE SMOOTH",
"824 1275 OFFCURVE",
"622 1477 OFFCURVE",
"443 1477 QCURVE SMOOTH",
"332 1477 OFFCURVE",
"160 1392 OFFCURVE",
"64 1232 OFFCURVE",
"65 1122 QCURVE",
"68 1116 LINE",
"180 1116 LINE",
"182 1235 OFFCURVE",
"324 1372 OFFCURVE",
"443 1372 QCURVE SMOOTH",
"568 1372 OFFCURVE",
"704 1230 OFFCURVE",
"704 1102 QCURVE SMOOTH",
"704 1027 OFFCURVE",
"664 909 OFFCURVE",
"574 794 OFFCURVE",
"498 723 QCURVE SMOOTH",
"451 681 OFFCURVE",
"397 618 OFFCURVE",
"370 555 OFFCURVE",
"361 470 OFFCURVE",
"361 405 QCURVE",
"481 405 LINE"
);
},
{
closed = 1;
nodes = (
"497 153 LINE",
"358 153 LINE",
"358 0 LINE",
"497 0 LINE"
);
}
);
width = 925;
},
{
layerId = "1A30CC2E-2F0E-43C1-8400-CBCC094AAC97";
paths = (
{
closed = 1;
nodes = (
"566 546 OFFCURVE",
"598 605 OFFCURVE",
"633 641 QCURVE SMOOTH",
"719 728 OFFCURVE",
"833 869 OFFCURVE",
"890 1010 OFFCURVE",
"890 1096 QCURVE SMOOTH",
"890 1276 OFFCURVE",
"672 1477 OFFCURVE",
"475 1477 QCURVE SMOOTH",
"355 1477 OFFCURVE",
"169 1389 OFFCURVE",
"64 1229 OFFCURVE",
"66 1122 QCURVE",
"69 1116 LINE",
"257 1116 LINE",
"257 1212 OFFCURVE",
"384 1311 OFFCURVE",
"475 1311 QCURVE SMOOTH",
"580 1311 OFFCURVE",
"693 1197 OFFCURVE",
"693 1091 QCURVE SMOOTH",
"693 1037 OFFCURVE",
"660 933 OFFCURVE",
"581 823 OFFCURVE",
"510 759 QCURVE SMOOTH",
"459 713 OFFCURVE",
"399 645 OFFCURVE",
"370 577 OFFCURVE",
"360 483 OFFCURVE",
"360 410 QCURVE",
"557 410 LINE",
"557 471 OFFCURVE"
);
},
{
closed = 1;
nodes = (
"358 0 LINE",
"563 0 LINE",
"563 208 LINE",
"358 208 LINE"
);
}
);
userData = {
assembly = "NPUSHB[ ]	/* 51 values pushed */\0120 2 1 0 1 2 0 128 0 0 5 1 0 5 126 0 1 1 3 97 0 3 3 37 77 6 1 5 5 4 95 0 4 4 32 4 78 33 33 33 36 33 36 27 36 18 43 16 7 8 27 \012CALL[ ]	/* CallFunction */";
};
width = 953;
},
{
layerId = "E08E4BD2-F9DD-4A22-B137-462FE0EF4830";
paths = (
{
closed = 1;
nodes = (
"625 470 OFFCURVE",
"638 547 OFFCURVE",
"677 606 OFFCURVE",
"715 638 QCURVE SMOOTH",
"792 703 OFFCURVE",
"909 835 OFFCURVE",
"976 983 OFFCURVE",
"976 1070 QCURVE SMOOTH",
"976 1258 OFFCURVE",
"725 1477 OFFCURVE",
"502 1477 QCURVE SMOOTH",
"365 1477 OFFCURVE",
"156 1386 OFFCURVE",
"39 1213 OFFCURVE",
"41 1091 QCURVE",
"44 1085 LINE",
"327 1085 LINE",
"328 1165 OFFCURVE",
"431 1245 OFFCURVE",
"503 1245 QCURVE SMOOTH",
"589 1245 OFFCURVE",
"684 1148 OFFCURVE",
"684 1062 QCURVE SMOOTH",
"684 1011 OFFCURVE",
"648 915 OFFCURVE",
"580 825 OFFCURVE",
"528 783 QCURVE SMOOTH",
"468 736 OFFCURVE",
"392 662 OFFCURVE",
"351 586 OFFCURVE",
"333 487 OFFCURVE",
"333 414 QCURVE",
"625 414 LINE"
);
},
{
closed = 1;
nodes = (
"625 256 LINE",
"333 256 LINE",
"333 0 LINE",
"625 0 LINE"
);
}
);
width = 986;
},
{
layerId = "3540F6DD-AC2C-489F-A09A-29A5B6885314";
paths = (
{
closed = 1;
nodes = (
"667 470 OFFCURVE",
"683 547 OFFCURVE",
"726 607 OFFCURVE",
"766 636 QCURVE SMOOTH",
"838 688 OFFCURVE",
"957 814 OFFCURVE",
"1029 966 OFFCURVE",
"1029 1054 QCURVE SMOOTH",
"1029 1247 OFFCURVE",
"758 1477 OFFCURVE",
"519 1477 QCURVE SMOOTH",
"372 1477 OFFCURVE",
"148 1384 OFFCURVE",
"24 1203 OFFCURVE",
"26 1071 QCURVE",
"28 1065 LINE",
"371 1065 LINE",
"372 1136 OFFCURVE",
"460 1204 OFFCURVE",
"521 1204 QCURVE SMOOTH",
"595 1204 OFFCURVE",
"678 1118 OFFCURVE",
"678 1044 QCURVE SMOOTH",
"678 995 OFFCURVE",
"641 904 OFFCURVE",
"579 827 OFFCURVE",
"539 798 QCURVE SMOOTH",
"474 750 OFFCURVE",
"388 672 OFFCURVE",
"339 592 OFFCURVE",
"317 490 OFFCURVE",
"317 417 QCURVE",
"667 417 LINE"
);
},
{
closed = 1;
nodes = (
"663 286 LINE",
"317 286 LINE",
"317 0 LINE",
"663 0 LINE"
);
}
);
width = 1006;
}
);
note = question;
unicode = 003F;
},
{
glyphname = at;
lastChange = "2021-04-25 04:09:00 +0000";
layers = (
{
layerId = "E37246A9-A376-4020-9DA5-E0C9FF7935B5";
paths = (
{
closed = 1;
nodes = (
"1159 -404 OFFCURVE",
"1221 -364 QCURVE",
"1197 -320 LINE",
"1135 -356 OFFCURVE",
"962 -398 OFFCURVE",
"863 -398 QCURVE SMOOTH",
"619 -398 OFFCURVE",
"287 -175 OFFCURVE",
"127 221 OFFCURVE",
"140 478 QCURVE SMOOTH",
"154 743 OFFCURVE",
"365 1138 OFFCURVE",
"722 1357 OFFCURVE",
"954 1357 QCURVE SMOOTH",
"1331 1357 OFFCURVE",
"1687 919 OFFCURVE",
"1667 523 QCURVE SMOOTH",
"1656 303 OFFCURVE",
"1475 34 OFFCURVE",
"1317 34 QCURVE SMOOTH",
"1277 34 OFFCURVE",
"1205 79 OFFCURVE",
"1166 192 OFFCURVE",
"1173 293 QCURVE SMOOTH",
"1220 831 LINE",
"1222 858 LINE",
"1159 913 OFFCURVE",
"1055 968 OFFCURVE",
"972 968 QCURVE SMOOTH",
"858 968 OFFCURVE",
"671 831 OFFCURVE",
"551 583 OFFCURVE",
"535 416 QCURVE SMOOTH",
"516 217 OFFCURVE",
"650 -21 OFFCURVE",
"786 -21 QCURVE SMOOTH",
"1008 -21 OFFCURVE",
"1118 209 QCURVE",
"1127 101 OFFCURVE",
"1231 -21 OFFCURVE",
"1314 -21 QCURVE SMOOTH",
"1442 -21 OFFCURVE",
"1620 129 OFFCURVE",
"1718 377 OFFCURVE",
"1724 523 QCURVE SMOOTH",
"1736 803 OFFCURVE",
"1568 1200 OFFCURVE",
"1220 1411 OFFCURVE",
"958 1411 QCURVE SMOOTH",
"706 1411 OFFCURVE",
"322 1180 OFFCURVE",
"98 761 OFFCURVE",
"86 478 QCURVE SMOOTH",
"74 190 OFFCURVE",
"255 -227 OFFCURVE",
"609 -453 OFFCURVE",
"857 -453 QCURVE SMOOTH",
"954 -453 OFFCURVE"
);
},
{
closed = 1;
nodes = (
"570 249 OFFCURVE",
"589 416 QCURVE SMOOTH",
"615 660 OFFCURVE",
"827 913 OFFCURVE",
"969 913 QCURVE SMOOTH",
"1033 913 OFFCURVE",
"1130 870 OFFCURVE",
"1164 831 QCURVE",
"1124 371 LINE SMOOTH",
"1123 364 OFFCURVE",
"1123 352 OFFCURVE",
"1122 345 QCURVE",
"1064 166 OFFCURVE",
"892 33 OFFCURVE",
"784 33 QCURVE SMOOTH",
"671 33 OFFCURVE"
);
}
);
width = 1799;
},
{
layerId = "142AFF07-46EF-45A1-8A7E-F20FA79F7038";
paths = (
{
closed = 1;
nodes = (
"1163 -405 OFFCURVE",
"1228 -364 QCURVE",
"1197 -291 LINE",
"1135 -326 OFFCURVE",
"959 -369 OFFCURVE",
"865 -369 QCURVE SMOOTH",
"637 -369 OFFCURVE",
"324 -157 OFFCURVE",
"171 224 OFFCURVE",
"184 478 QCURVE SMOOTH",
"196 735 OFFCURVE",
"391 1121 OFFCURVE",
"724 1336 OFFCURVE",
"944 1336 QCURVE SMOOTH",
"1302 1336 OFFCURVE",
"1642 903 OFFCURVE",
"1623 513 QCURVE SMOOTH",
"1614 314 OFFCURVE",
"1448 64 OFFCURVE",
"1306 64 QCURVE SMOOTH",
"1269 64 OFFCURVE",
"1207 105 OFFCURVE",
"1175 205 OFFCURVE",
"1181 293 QCURVE SMOOTH",
"1230 853 LINE",
"1230 869 LINE",
"1161 924 OFFCURVE",
"1046 977 OFFCURVE",
"953 977 QCURVE SMOOTH",
"841 977 OFFCURVE",
"659 838 OFFCURVE",
"541 586 OFFCURVE",
"526 416 QCURVE SMOOTH",
"507 218 OFFCURVE",
"643 -21 OFFCURVE",
"774 -21 QCURVE SMOOTH",
"981 -21 OFFCURVE",
"1086 176 QCURVE",
"1102 83 OFFCURVE",
"1207 -21 OFFCURVE",
"1285 -21 QCURVE SMOOTH",
"1422 -21 OFFCURVE",
"1609 126 OFFCURVE",
"1709 369 OFFCURVE",
"1715 513 QCURVE SMOOTH",
"1726 796 OFFCURVE",
"1556 1202 OFFCURVE",
"1206 1420 OFFCURVE",
"948 1420 QCURVE SMOOTH",
"698 1420 OFFCURVE",
"319 1185 OFFCURVE",
"98 761 OFFCURVE",
"86 478 QCURVE SMOOTH",
"74 190 OFFCURVE",
"254 -227 OFFCURVE",
"609 -453 OFFCURVE",
"860 -453 QCURVE SMOOTH",
"957 -453 OFFCURVE"
);
},
{
closed = 1;
nodes = (
"621 261 OFFCURVE",
"636 416 QCURVE SMOOTH",
"660 650 OFFCURVE",
"835 887 OFFCURVE",
"969 887 QCURVE SMOOTH",
"1018 887 OFFCURVE",
"1096 858 OFFCURVE",
"1127 831 QCURVE",
"1083 335 LINE SMOOTH",
"1082 324 OFFCURVE",
"1081 305 OFFCURVE",
"1081 296 QCURVE",
"1030 171 OFFCURVE",
"888 76 OFFCURVE",
"801 76 QCURVE SMOOTH",
"706 76 OFFCURVE"
);
}
);
width = 1809;
},
{
layerId = "1A30CC2E-2F0E-43C1-8400-CBCC094AAC97";
paths = (
{
closed = 1;
nodes = (
"1168 -406 OFFCURVE",
"1236 -364 QCURVE",
"1197 -257 LINE",
"1135 -292 OFFCURVE",
"955 -335 OFFCURVE",
"867 -335 QCURVE SMOOTH",
"658 -335 OFFCURVE",
"367 -137 OFFCURVE",
"223 227 OFFCURVE",
"235 478 QCURVE SMOOTH",
"245 725 OFFCURVE",
"421 1101 OFFCURVE",
"727 1311 OFFCURVE",
"933 1311 QCURVE SMOOTH",
"1268 1311 OFFCURVE",
"1589 884 OFFCURVE",
"1572 502 QCURVE SMOOTH",
"1564 327 OFFCURVE",
"1417 100 OFFCURVE",
"1294 100 QCURVE SMOOTH",
"1260 100 OFFCURVE",
"1209 135 OFFCURVE",
"1185 220 OFFCURVE",
"1191 293 QCURVE SMOOTH",
"1242 878 LINE",
"1240 882 LINE",
"1163 936 OFFCURVE",
"1036 988 OFFCURVE",
"931 988 QCURVE SMOOTH",
"822 988 OFFCURVE",
"645 846 OFFCURVE",
"530 589 OFFCURVE",
"515 416 QCURVE SMOOTH",
"497 220 OFFCURVE",
"635 -21 OFFCURVE",
"760 -21 QCURVE SMOOTH",
"950 -21 OFFCURVE",
"1049 137 QCURVE",
"1072 62 OFFCURVE",
"1179 -21 OFFCURVE",
"1252 -21 QCURVE SMOOTH",
"1399 -21 OFFCURVE",
"1596 122 OFFCURVE",
"1698 359 OFFCURVE",
"1704 502 QCURVE SMOOTH",
"1715 788 OFFCURVE",
"1541 1205 OFFCURVE",
"1190 1431 OFFCURVE",
"937 1431 QCURVE SMOOTH",
"689 1431 OFFCURVE",
"315 1190 OFFCURVE",
"99 760 OFFCURVE",
"86 478 QCURVE SMOOTH",
"73 190 OFFCURVE",
"253 -227 OFFCURVE",
"610 -453 OFFCURVE",
"863 -453 QCURVE SMOOTH",
"961 -453 OFFCURVE"
);
},
{
closed = 1;
nodes = (
"680 275 OFFCURVE",
"691 416 QCURVE SMOOTH",
"712 639 OFFCURVE",
"844 857 OFFCURVE",
"969 857 QCURVE SMOOTH",
"1000 857 OFFCURVE",
"1057 843 OFFCURVE",
"1083 831 QCURVE",
"1036 293 LINE SMOOTH",
"1034 277 OFFCURVE",
"1033 251 OFFCURVE",
"1034 239 QCURVE",
"990 176 OFFCURVE",
"883 126 OFFCURVE",
"820 126 QCURVE SMOOTH",
"746 126 OFFCURVE"
);
}
);
userData = {
assembly = "MPPEM[ ]	/* MeasurePixelPerEm */\012PUSHB[ ]	/* 1 value pushed */\01220 \012LT[ ]	/* LessThan */\012IF[ ]	/* If */\012NPUSHB[ ]	/* 20 values pushed */\01231 1 9 4 65 61 19 3 5 9 54 1 7 2 55 1 0 7 4 76 \012ELSE[ ]	/* Else */\012NPUSHB[ ]	/* 20 values pushed */\01231 1 9 4 65 61 19 3 8 9 54 1 7 2 55 1 0 7 4 76 \012EIF[ ]	/* EndIf */\012MPPEM[ ]	/* MeasurePixelPerEm */\012PUSHB[ ]	/* 1 value pushed */\01220 \012LT[ ]	/* LessThan */\012IF[ ]	/* If */\012NPUSHB[ ]	/* 43 values pushed */\0120 4 0 9 5 4 9 105 0 6 6 1 97 0 1 1 31 77 11 8 2 5 5 2 97 3 1 2 2 38 77 0 7 7 0 97 10 1 0 0 42 0 78 \012ELSE[ ]	/* Else */\012MPPEM[ ]	/* MeasurePixelPerEm */\012PUSHB[ ]	/* 1 value pushed */\01240 \012LT[ ]	/* LessThan */\012IF[ ]	/* If */\012NPUSHB[ ]	/* 53 values pushed */\0120 4 0 9 8 4 9 105 0 6 6 1 97 0 1 1 31 77 11 1 8 8 2 97 3 1 2 2 38 77 0 5 5 2 97 3 1 2 2 38 77 0 7 7 0 97 10 1 0 0 42 0 78 \012ELSE[ ]	/* Else */\012NPUSHB[ ]	/* 51 values pushed */\0120 1 0 6 4 1 6 105 0 4 0 9 8 4 9 105 11 1 8 8 2 97 3 1 2 2 38 77 0 5 5 2 97 3 1 2 2 38 77 0 7 7 0 97 10 1 0 0 42 0 78 \012EIF[ ]	/* EndIf */\012EIF[ ]	/* EndIf */\012NPUSHB[ ]	/* 31 values pushed */\01259 58 1 0 69 67 58 73 59 73 52 50 44 42 38 36 29 27 22 20 17 15 9 7 0 57 1 57 12 8 22 \012CALL[ ]	/* CallFunction */";
};
width = 1821;
},
{
layerId = "E08E4BD2-F9DD-4A22-B137-462FE0EF4830";
paths = (
{
closed = 1;
nodes = (
"1181 -406 OFFCURVE",
"1248 -364 QCURVE",
"1210 -217 LINE",
"1145 -247 OFFCURVE",
"964 -287 OFFCURVE",
"879 -287 QCURVE SMOOTH",
"675 -287 OFFCURVE",
"392 -101 OFFCURVE",
"252 241 OFFCURVE",
"264 478 QCURVE SMOOTH",
"274 717 OFFCURVE",
"444 1070 OFFCURVE",
"742 1262 OFFCURVE",
"944 1262 QCURVE SMOOTH",
"1261 1262 OFFCURVE",
"1568 870 OFFCURVE",
"1552 522 QCURVE SMOOTH",
"1544 349 OFFCURVE",
"1408 128 OFFCURVE",
"1304 128 QCURVE SMOOTH",
"1274 128 OFFCURVE",
"1232 158 OFFCURVE",
"1215 230 OFFCURVE",
"1219 293 QCURVE SMOOTH",
"1270 866 LINE",
"1268 870 LINE",
"1181 926 OFFCURVE",
"1040 976 OFFCURVE",
"947 976 QCURVE SMOOTH",
"812 976 OFFCURVE",
"623 838 OFFCURVE",
"512 590 OFFCURVE",
"496 424 QCURVE SMOOTH",
"476 222 OFFCURVE",
"627 -18 OFFCURVE",
"768 -18 QCURVE SMOOTH",
"943 -18 OFFCURVE",
"1031 146 QCURVE",
"1055 67 OFFCURVE",
"1174 -21 OFFCURVE",
"1266 -21 QCURVE SMOOTH",
"1414 -21 OFFCURVE",
"1618 126 OFFCURVE",
"1725 373 OFFCURVE",
"1731 522 QCURVE SMOOTH",
"1742 798 OFFCURVE",
"1562 1199 OFFCURVE",
"1204 1418 OFFCURVE",
"948 1418 QCURVE SMOOTH",
"689 1418 OFFCURVE",
"301 1186 OFFCURVE",
"79 763 OFFCURVE",
"67 478 QCURVE SMOOTH",
"56 189 OFFCURVE",
"241 -228 OFFCURVE",
"611 -453 OFFCURVE",
"875 -453 QCURVE SMOOTH",
"974 -453 OFFCURVE"
);
},
{
closed = 1;
nodes = (
"711 289 OFFCURVE",
"721 416 QCURVE SMOOTH",
"739 611 OFFCURVE",
"855 804 OFFCURVE",
"965 804 QCURVE SMOOTH",
"991 804 OFFCURVE",
"1038 794 OFFCURVE",
"1060 785 QCURVE",
"1019 321 LINE SMOOTH",
"1017 305 OFFCURVE",
"1016 287 OFFCURVE",
"1015 281 QCURVE",
"979 211 OFFCURVE",
"890 158 OFFCURVE",
"840 158 QCURVE SMOOTH",
"770 158 OFFCURVE"
);
}
);
width = 1806;
},
{
layerId = "3540F6DD-AC2C-489F-A09A-29A5B6885314";
paths = (
{
closed = 1;
nodes = (
"1189 -406 OFFCURVE",
"1255 -364 QCURVE",
"1218 -192 LINE",
"1151 -219 OFFCURVE",
"969 -257 OFFCURVE",
"886 -257 QCURVE SMOOTH",
"686 -257 OFFCURVE",
"407 -79 OFFCURVE",
"270 250 OFFCURVE",
"282 478 QCURVE SMOOTH",
"292 712 OFFCURVE",
"458 1050 OFFCURVE",
"751 1232 OFFCURVE",
"951 1232 QCURVE SMOOTH",
"1256 1232 OFFCURVE",
"1555 861 OFFCURVE",
"1540 535 QCURVE SMOOTH",
"1532 362 OFFCURVE",
"1403 145 OFFCURVE",
"1311 145 QCURVE SMOOTH",
"1282 145 OFFCURVE",
"1246 172 OFFCURVE",
"1233 237 OFFCURVE",
"1236 293 QCURVE SMOOTH",
"1287 859 LINE",
"1285 863 LINE",
"1192 919 OFFCURVE",
"1043 969 OFFCURVE",
"957 969 QCURVE SMOOTH",
"806 969 OFFCURVE",
"609 833 OFFCURVE",
"501 590 OFFCURVE",
"484 429 QCURVE SMOOTH",
"463 224 OFFCURVE",
"622 -16 OFFCURVE",
"773 -16 QCURVE SMOOTH",
"938 -16 OFFCURVE",
"1020 152 QCURVE",
"1045 70 OFFCURVE",
"1171 -21 OFFCURVE",
"1275 -21 QCURVE SMOOTH",
"1424 -21 OFFCURVE",
"1631 128 OFFCURVE",
"1742 381 OFFCURVE",
"1748 535 QCURVE SMOOTH",
"1758 804 OFFCURVE",
"1575 1196 OFFCURVE",
"1213 1410 OFFCURVE",
"955 1410 QCURVE SMOOTH",
"689 1410 OFFCURVE",
"293 1183 OFFCURVE",
"67 765 OFFCURVE",
"55 478 QCURVE SMOOTH",
"45 189 OFFCURVE",
"234 -228 OFFCURVE",
"612 -453 OFFCURVE",
"882 -453 QCURVE SMOOTH",
"982 -453 OFFCURVE"
);
},
{
closed = 1;
nodes = (
"730 298 OFFCURVE",
"740 416 QCURVE SMOOTH",
"756 594 OFFCURVE",
"862 771 OFFCURVE",
"962 771 QCURVE SMOOTH",
"985 771 OFFCURVE",
"1027 763 OFFCURVE",
"1046 756 QCURVE",
"1008 339 LINE SMOOTH",
"1007 322 OFFCURVE",
"1005 310 OFFCURVE",
"1003 307 QCURVE",
"972 233 OFFCURVE",
"894 178 OFFCURVE",
"853 178 QCURVE SMOOTH",
"785 178 OFFCURVE"
);
}
);
width = 1797;
}
);
note = at;
unicode = 0040;
},
{
glyphname = A;
lastChange = "2021-04-25 04:09:00 +0000";
layers = (
{
layerId = "E37246A9-A376-4020-9DA5-E0C9FF7935B5";
paths = (
{
closed = 1;
nodes = (
"364 54 LINE",
"221 54 LINE",
"363 435 LINE",
"1075 435 LINE",
"1218 54 LINE",
"1075 54 LINE",
"1075 0 LINE",
"1384 0 LINE",
"1384 54 LINE",
"1277 54 LINE",
"752 1456 LINE",
"686 1456 LINE",
"162 54 LINE",
"55 54 LINE",
"55 0 LINE",
"364 0 LINE"
);
},
{
closed = 1;
nodes = (
"716 1391 LINE",
"722 1391 LINE",
"750 1309 LINE",
"1055 489 LINE",
"383 489 LINE",
"689 1309 LINE"
);
}
);
width = 1472;
},
{
layerId = "142AFF07-46EF-45A1-8A7E-F20FA79F7038";
paths = (
{
closed = 1;
nodes = (
"421 87 LINE",
"293 96 LINE",
"415 425 LINE",
"1068 425 LINE",
"1189 96 LINE",
"1061 87 LINE",
"1061 0 LINE",
"1420 0 LINE",
"1420 87 LINE",
"1313 94 LINE",
"800 1456 LINE",
"686 1456 LINE",
"169 94 LINE",
"62 87 LINE",
"62 0 LINE",
"421 0 LINE"
);
},
{
closed = 1;
nodes = (
"740 1304 LINE",
"746 1304 LINE",
"766 1245 LINE",
"1029 530 LINE",
"454 530 LINE",
"719 1245 LINE"
);
}
);
width = 1500;
},
{
layerId = "1A30CC2E-2F0E-43C1-8400-CBCC094AAC97";
paths = (
{
closed = 1;
nodes = (
"476 413 LINE",
"1059 413 LINE",
"1155 145 LINE",
"1045 126 LINE",
"1045 0 LINE",
"1463 0 LINE",
"1463 126 LINE",
"1356 141 LINE",
"856 1456 LINE",
"687 1456 LINE",
"178 141 LINE",
"70 126 LINE",
"70 0 LINE",
"487 0 LINE",
"487 126 LINE",
"377 145 LINE"
);
},
{
closed = 1;
nodes = (
"785 1170 LINE",
"999 578 LINE",
"537 578 LINE",
"755 1170 LINE",
"767 1203 LINE",
"773 1203 LINE"
);
}
);
userData = {
assembly = "NPUSHB[ ]	/* 43 values pushed */\01221 1 4 1 15 12 11 8 3 0 6 0 3 2 76 0 4 0 3 0 4 3 104 0 1 1 31 77 2 1 0 0 32 0 78 20 19 19 19 17 5 8 27 \012CALL[ ]	/* CallFunction */";
};
width = 1533;
},
{
layerId = "E08E4BD2-F9DD-4A22-B137-462FE0EF4830";
paths = (
{
closed = 1;
nodes = (
"537 175 LINE",
"436 193 LINE",
"500 393 LINE",
"1012 393 LINE",
"1076 193 LINE",
"975 175 LINE",
"975 0 LINE",
"1471 0 LINE",
"1471 175 LINE",
"1367 190 LINE",
"907 1456 LINE",
"608 1456 LINE",
"145 190 LINE",
"41 175 LINE",
"41 0 LINE",
"537 0 LINE"
);
},
{
closed = 1;
nodes = (
"753 1151 LINE",
"759 1151 LINE",
"773 1107 LINE",
"943 608 LINE",
"569 608 LINE",
"738 1104 LINE"
);
}
);
width = 1512;
},
{
layerId = "3540F6DD-AC2C-489F-A09A-29A5B6885314";
paths = (
{
closed = 1;
nodes = (
"568 205 LINE",
"473 223 LINE",
"515 381 LINE",
"983 381 LINE",
"1027 223 LINE",
"932 205 LINE",
"932 0 LINE",
"1476 0 LINE",
"1476 205 LINE",
"1374 220 LINE",
"939 1456 LINE",
"559 1456 LINE",
"125 220 LINE",
"23 205 LINE",
"23 0 LINE",
"568 0 LINE"
);
},
{
closed = 1;
nodes = (
"744 1119 LINE",
"750 1119 LINE",
"766 1068 LINE",
"908 627 LINE",
"589 627 LINE",
"727 1063 LINE"
);
}
);
width = 1499;
}
);
note = A;
unicode = 0041;
},
{
glyphname = B;
lastChange = "2021-04-25 04:09:00 +0000";
layers = (
{
layerId = "E37246A9-A376-4020-9DA5-E0C9FF7935B5";
paths = (
{
closed = 1;
nodes = (
"912 0 OFFCURVE",
"1159 210 OFFCURVE",
"1159 401 QCURVE SMOOTH",
"1159 489 OFFCURVE",
"1074 640 OFFCURVE",
"928 741 OFFCURVE",
"837 753 QCURVE",
"959 775 OFFCURVE",
"1093 953 OFFCURVE",
"1093 1083 QCURVE SMOOTH",
"1093 1270 OFFCURVE",
"843 1456 OFFCURVE",
"617 1456 QCURVE SMOOTH",
"234 1456 LINE",
"71 1456 LINE",
"71 1402 LINE",
"234 1402 LINE",
"234 54 LINE",
"71 54 LINE",
"71 0 LINE",
"709 0 LINE SMOOTH"
);
},
{
closed = 1;
nodes = (
"719 719 LINE SMOOTH",
"841 719 OFFCURVE",
"1014 633 OFFCURVE",
"1105 488 OFFCURVE",
"1105 399 QCURVE SMOOTH",
"1105 236 OFFCURVE",
"893 54 OFFCURVE",
"709 54 QCURVE SMOOTH",
"288 54 LINE",
"288 719 LINE"
);
},
{
closed = 1;
nodes = (
"617 1402 LINE SMOOTH",
"825 1402 OFFCURVE",
"1038 1243 OFFCURVE",
"1038 1087 QCURVE SMOOTH",
"1038 928 OFFCURVE",
"836 773 OFFCURVE",
"637 773 QCURVE SMOOTH",
"288 773 LINE",
"288 1402 LINE"
);
}
);
width = 1247;
},
{
layerId = "142AFF07-46EF-45A1-8A7E-F20FA79F7038";
paths = (
{
closed = 1;
nodes = (
"949 0 OFFCURVE",
"1202 210 OFFCURVE",
"1202 406 QCURVE SMOOTH",
"1202 495 OFFCURVE",
"1125 646 OFFCURVE",
"988 748 OFFCURVE",
"898 763 QCURVE",
"1011 792 OFFCURVE",
"1140 959 OFFCURVE",
"1140 1073 QCURVE SMOOTH",
"1140 1265 OFFCURVE",
"886 1456 OFFCURVE",
"659 1456 QCURVE SMOOTH",
"239 1456 LINE",
"76 1456 LINE",
"76 1368 LINE",
"239 1355 LINE",
"239 100 LINE",
"76 87 LINE",
"76 0 LINE",
"738 0 LINE SMOOTH"
);
},
{
closed = 1;
nodes = (
"757 702 LINE SMOOTH",
"862 702 OFFCURVE",
"1008 626 OFFCURVE",
"1082 491 OFFCURVE",
"1082 404 QCURVE SMOOTH",
"1082 260 OFFCURVE",
"899 100 OFFCURVE",
"738 100 QCURVE SMOOTH",
"359 100 LINE",
"359 702 LINE"
);
},
{
closed = 1;
nodes = (
"659 1355 LINE SMOOTH",
"836 1355 OFFCURVE",
"1019 1216 OFFCURVE",
"1019 1077 QCURVE SMOOTH",
"1019 943 OFFCURVE",
"850 803 OFFCURVE",
"694 803 QCURVE SMOOTH",
"359 803 LINE",
"359 1355 LINE"
);
}
);
width = 1282;
},
{
layerId = "1A30CC2E-2F0E-43C1-8400-CBCC094AAC97";
paths = (
{
closed = 1;
nodes = (
"1253 211 OFFCURVE",
"1253 411 QCURVE SMOOTH",
"1253 501 OFFCURVE",
"1184 652 OFFCURVE",
"1058 757 OFFCURVE",
"970 775 QCURVE",
"1071 812 OFFCURVE",
"1194 965 OFFCURVE",
"1194 1062 QCURVE SMOOTH",
"1194 1259 OFFCURVE",
"937 1456 OFFCURVE",
"709 1456 QCURVE SMOOTH",
"244 1456 LINE",
"81 1456 LINE",
"81 1329 LINE",
"244 1301 LINE",
"244 154 LINE",
"81 126 LINE",
"81 0 LINE",
"771 0 LINE SMOOTH",
"993 0 OFFCURVE"
);
},
{
closed = 1;
nodes = (
"887 683 OFFCURVE",
"1000 617 OFFCURVE",
"1055 495 OFFCURVE",
"1055 409 QCURVE SMOOTH",
"1055 287 OFFCURVE",
"906 154 OFFCURVE",
"771 154 QCURVE SMOOTH",
"441 154 LINE",
"441 683 LINE",
"801 683 LINE SMOOTH"
);
},
{
closed = 1;
nodes = (
"849 1301 OFFCURVE",
"997 1184 OFFCURVE",
"997 1066 QCURVE SMOOTH",
"997 960 OFFCURVE",
"866 837 OFFCURVE",
"760 837 QCURVE SMOOTH",
"441 837 LINE",
"441 1301 LINE",
"709 1301 LINE SMOOTH"
);
}
);
userData = {
assembly = "NPUSHB[ ]	/* 81 values pushed */\0125 1 5 1 14 1 3 4 2 1 0 2 3 76 4 1 5 3 1 2 2 75 0 4 7 1 3 2 4 3 103 8 1 5 5 1 95 0 1 1 31 77 0 2 2 0 95 6 1 0 0 32 0 78 31 31 21 21 1 0 31 39 31 38 34 32 21 30 21 29 24 22 9 6 0 20 1 20 9 8 22 \012CALL[ ]	/* CallFunction */";
};
width = 1322;
},
{
layerId = "E08E4BD2-F9DD-4A22-B137-462FE0EF4830";
paths = (
{
closed = 1;
nodes = (
"1025 0 OFFCURVE",
"1301 215 OFFCURVE",
"1301 424 QCURVE SMOOTH",
"1301 505 OFFCURVE",
"1243 642 OFFCURVE",
"1126 738 OFFCURVE",
"1039 757 QCURVE",
"1141 797 OFFCURVE",
"1248 956 OFFCURVE",
"1248 1057 QCURVE SMOOTH",
"1248 1256 OFFCURVE",
"960 1456 OFFCURVE",
"703 1456 QCURVE SMOOTH",
"211 1456 LINE",
"56 1456 LINE",
"56 1280 LINE",
"211 1250 LINE",
"211 205 LINE",
"56 175 LINE",
"56 0 LINE",
"772 0 LINE SMOOTH"
);
},
{
closed = 1;
nodes = (
"794 644 LINE SMOOTH",
"869 644 OFFCURVE",
"964 594 OFFCURVE",
"1010 496 OFFCURVE",
"1010 424 QCURVE SMOOTH",
"1010 325 OFFCURVE",
"888 224 OFFCURVE",
"772 224 QCURVE SMOOTH",
"503 224 LINE",
"503 644 LINE"
);
},
{
closed = 1;
nodes = (
"703 1231 LINE SMOOTH",
"829 1231 OFFCURVE",
"956 1135 OFFCURVE",
"956 1034 QCURVE SMOOTH",
"956 942 OFFCURVE",
"830 846 OFFCURVE",
"713 846 QCURVE SMOOTH",
"503 846 LINE",
"503 1231 LINE"
);
}
);
width = 1344;
},
{
layerId = "3540F6DD-AC2C-489F-A09A-29A5B6885314";
paths = (
{
closed = 1;
nodes = (
"1045 0 OFFCURVE",
"1331 218 OFFCURVE",
"1331 432 QCURVE SMOOTH",
"1331 507 OFFCURVE",
"1279 636 OFFCURVE",
"1169 727 OFFCURVE",
"1082 746 QCURVE",
"1184 788 OFFCURVE",
"1282 951 OFFCURVE",
"1282 1054 QCURVE SMOOTH",
"1282 1254 OFFCURVE",
"974 1456 OFFCURVE",
"699 1456 QCURVE SMOOTH",
"191 1456 LINE",
"40 1456 LINE",
"40 1250 LINE",
"191 1218 LINE",
"191 237 LINE",
"40 205 LINE",
"40 0 LINE",
"773 0 LINE SMOOTH"
);
},
{
closed = 1;
nodes = (
"790 620 LINE SMOOTH",
"858 620 OFFCURVE",
"942 579 OFFCURVE",
"982 496 OFFCURVE",
"982 433 QCURVE SMOOTH",
"982 349 OFFCURVE",
"877 267 OFFCURVE",
"773 267 QCURVE SMOOTH",
"542 267 LINE",
"542 620 LINE"
);
},
{
closed = 1;
nodes = (
"699 1188 LINE SMOOTH",
"816 1188 OFFCURVE",
"931 1105 OFFCURVE",
"931 1014 QCURVE SMOOTH",
"931 931 OFFCURVE",
"808 852 OFFCURVE",
"684 852 QCURVE SMOOTH",
"542 852 LINE",
"542 1188 LINE"
);
}
);
width = 1358;
}
);
note = B;
unicode = 0042;
},
{
glyphname = C;
lastChange = "2021-04-25 04:09:00 +0000";
layers = (
{
layerId = "E37246A9-A376-4020-9DA5-E0C9FF7935B5";
paths = (
{
closed = 1;
nodes = (
"1137 40 OFFCURVE",
"1231 103 QCURVE",
"1231 372 LINE",
"1176 372 LINE",
"1176 137 LINE",
"1105 89 OFFCURVE",
"901 33 OFFCURVE",
"791 33 QCURVE SMOOTH",
"601 33 OFFCURVE",
"329 206 OFFCURVE",
"184 515 OFFCURVE",
"184 719 QCURVE SMOOTH",
"184 739 LINE SMOOTH",
"184 943 OFFCURVE",
"332 1251 OFFCURVE",
"595 1423 OFFCURVE",
"767 1423 QCURVE SMOOTH",
"863 1423 OFFCURVE",
"998 1393 OFFCURVE",
"1107 1337 OFFCURVE",
"1161 1296 QCURVE",
"1161 1062 LINE",
"1216 1062 LINE",
"1216 1319 LINE",
"1127 1397 OFFCURVE",
"925 1477 OFFCURVE",
"767 1477 QCURVE SMOOTH",
"577 1477 OFFCURVE",
"290 1290 OFFCURVE",
"130 957 OFFCURVE",
"130 737 QCURVE SMOOTH",
"130 719 LINE SMOOTH",
"130 499 OFFCURVE",
"285 166 OFFCURVE",
"582 -21 OFFCURVE",
"794 -21 QCURVE SMOOTH",
"917 -21 OFFCURVE"
);
}
);
width = 1348;
},
{
layerId = "142AFF07-46EF-45A1-8A7E-F20FA79F7038";
paths = (
{
closed = 1;
nodes = (
"1114 38 OFFCURVE",
"1203 96 QCURVE",
"1203 386 LINE",
"1102 386 LINE",
"1092 166 LINE",
"1033 128 OFFCURVE",
"862 82 OFFCURVE",
"770 82 QCURVE SMOOTH",
"599 82 OFFCURVE",
"356 238 OFFCURVE",
"227 524 OFFCURVE",
"227 718 QCURVE SMOOTH",
"227 739 LINE SMOOTH",
"227 927 OFFCURVE",
"354 1212 OFFCURVE",
"587 1373 OFFCURVE",
"746 1373 QCURVE SMOOTH",
"825 1373 OFFCURVE",
"944 1348 OFFCURVE",
"1041 1302 OFFCURVE",
"1085 1269 QCURVE",
"1095 1037 LINE",
"1197 1037 LINE",
"1197 1320 LINE",
"1113 1393 OFFCURVE",
"896 1477 OFFCURVE",
"746 1477 QCURVE SMOOTH",
"552 1477 OFFCURVE",
"264 1288 OFFCURVE",
"107 955 OFFCURVE",
"107 737 QCURVE SMOOTH",
"107 718 LINE SMOOTH",
"107 502 OFFCURVE",
"258 168 OFFCURVE",
"553 -21 OFFCURVE",
"769 -21 QCURVE SMOOTH",
"891 -21 OFFCURVE"
);
}
);
width = 1321;
},
{
layerId = "1A30CC2E-2F0E-43C1-8400-CBCC094AAC97";
paths = (
{
closed = 1;
nodes = (
"1088 36 OFFCURVE",
"1170 87 QCURVE",
"1170 403 LINE",
"1016 403 LINE",
"994 200 LINE",
"950 173 OFFCURVE",
"816 139 OFFCURVE",
"746 139 QCURVE SMOOTH",
"596 139 OFFCURVE",
"387 275 OFFCURVE",
"278 534 OFFCURVE",
"278 717 QCURVE SMOOTH",
"278 740 LINE SMOOTH",
"278 909 OFFCURVE",
"380 1167 OFFCURVE",
"578 1314 OFFCURVE",
"721 1314 QCURVE SMOOTH",
"780 1314 OFFCURVE",
"881 1296 OFFCURVE",
"964 1262 OFFCURVE",
"996 1237 QCURVE",
"1017 1007 LINE",
"1174 1007 LINE",
"1174 1321 LINE",
"1097 1389 OFFCURVE",
"863 1477 OFFCURVE",
"722 1477 QCURVE SMOOTH",
"522 1477 OFFCURVE",
"234 1285 OFFCURVE",
"80 952 OFFCURVE",
"80 738 QCURVE SMOOTH",
"80 717 LINE SMOOTH",
"80 505 OFFCURVE",
"227 171 OFFCURVE",
"520 -21 OFFCURVE",
"739 -21 QCURVE SMOOTH",
"860 -21 OFFCURVE"
);
}
);
userData = {
assembly = "NPUSHB[ ]	/* 66 values pushed */\01212 1 3 1 34 1 0 4 2 76 0 2 3 5 3 2 5 128 0 5 4 3 5 4 126 0 3 3 1 97 0 1 1 37 77 0 4 4 0 97 6 1 0 0 38 0 78 1 0 33 32 29 27 20 18 14 13 10 8 0 36 1 36 7 8 22 \012CALL[ ]	/* CallFunction */";
};
width = 1290;
},
{
layerId = "E08E4BD2-F9DD-4A22-B137-462FE0EF4830";
paths = (
{
closed = 1;
nodes = (
"1158 56 OFFCURVE",
"1243 112 QCURVE",
"1243 460 LINE",
"1026 460 LINE",
"996 255 LINE",
"944 232 OFFCURVE",
"817 203 OFFCURVE",
"754 203 QCURVE SMOOTH",
"628 203 OFFCURVE",
"444 326 OFFCURVE",
"344 550 OFFCURVE",
"344 703 QCURVE SMOOTH",
"344 754 LINE SMOOTH",
"344 907 OFFCURVE",
"439 1130 OFFCURVE",
"617 1252 OFFCURVE",
"741 1252 QCURVE SMOOTH",
"794 1252 OFFCURVE",
"885 1234 OFFCURVE",
"963 1200 OFFCURVE",
"996 1176 QCURVE",
"1026 955 LINE",
"1243 955 LINE",
"1243 1307 LINE",
"1141 1393 OFFCURVE",
"882 1477 OFFCURVE",
"734 1477 QCURVE SMOOTH",
"523 1477 OFFCURVE",
"217 1291 OFFCURVE",
"52 964 OFFCURVE",
"52 752 QCURVE SMOOTH",
"52 703 LINE SMOOTH",
"52 481 OFFCURVE",
"223 156 OFFCURVE",
"537 -21 OFFCURVE",
"749 -21 QCURVE SMOOTH",
"904 -21 OFFCURVE"
);
}
);
width = 1321;
},
{
layerId = "3540F6DD-AC2C-489F-A09A-29A5B6885314";
paths = (
{
closed = 1;
nodes = (
"1201 68 OFFCURVE",
"1288 128 QCURVE",
"1288 495 LINE",
"1032 495 LINE",
"997 289 LINE",
"940 268 OFFCURVE",
"818 243 OFFCURVE",
"759 243 QCURVE SMOOTH",
"648 243 OFFCURVE",
"479 357 OFFCURVE",
"385 560 OFFCURVE",
"385 694 QCURVE SMOOTH",
"385 763 LINE SMOOTH",
"385 906 OFFCURVE",
"476 1107 OFFCURVE",
"642 1213 OFFCURVE",
"753 1213 QCURVE SMOOTH",
"802 1213 OFFCURVE",
"887 1195 OFFCURVE",
"962 1161 OFFCURVE",
"996 1138 QCURVE",
"1031 923 LINE",
"1286 923 LINE",
"1286 1298 LINE",
"1168 1396 OFFCURVE",
"893 1477 OFFCURVE",
"741 1477 QCURVE SMOOTH",
"523 1477 OFFCURVE",
"206 1294 OFFCURVE",
"35 971 OFFCURVE",
"35 761 QCURVE SMOOTH",
"35 694 LINE SMOOTH",
"35 466 OFFCURVE",
"221 147 OFFCURVE",
"547 -21 OFFCURVE",
"755 -21 QCURVE SMOOTH",
"931 -21 OFFCURVE"
);
}
);
width = 1340;
}
);
note = C;
unicode = 0043;
},
{
glyphname = D;
lastChange = "2021-04-25 04:09:00 +0000";
layers = (
{
layerId = "E37246A9-A376-4020-9DA5-E0C9FF7935B5";
paths = (
{
closed = 1;
nodes = (
"808 0 OFFCURVE",
"1087 185 OFFCURVE",
"1248 509 OFFCURVE",
"1248 719 QCURVE SMOOTH",
"1248 737 LINE SMOOTH",
"1248 947 OFFCURVE",
"1087 1271 OFFCURVE",
"808 1456 OFFCURVE",
"629 1456 QCURVE SMOOTH",
"234 1456 LINE",
"71 1456 LINE",
"71 1402 LINE",
"234 1402 LINE",
"234 54 LINE",
"71 54 LINE",
"71 0 LINE",
"629 0 LINE SMOOTH"
);
},
{
closed = 1;
nodes = (
"629 1402 LINE SMOOTH",
"792 1402 OFFCURVE",
"1047 1229 OFFCURVE",
"1194 930 OFFCURVE",
"1194 740 QCURVE SMOOTH",
"1194 719 LINE SMOOTH",
"1194 528 OFFCURVE",
"1047 227 OFFCURVE",
"792 54 OFFCURVE",
"629 54 QCURVE SMOOTH",
"288 54 LINE",
"288 1402 LINE"
);
}
);
width = 1386;
},
{
layerId = "142AFF07-46EF-45A1-8A7E-F20FA79F7038";
paths = (
{
closed = 1;
nodes = (
"829 0 OFFCURVE",
"1110 186 OFFCURVE",
"1268 509 OFFCURVE",
"1268 716 QCURVE SMOOTH",
"1268 740 LINE SMOOTH",
"1268 948 OFFCURVE",
"1107 1271 OFFCURVE",
"825 1456 OFFCURVE",
"639 1456 QCURVE SMOOTH",
"239 1456 LINE",
"76 1456 LINE",
"76 1368 LINE",
"239 1355 LINE",
"239 100 LINE",
"76 87 LINE",
"76 0 LINE",
"644 0 LINE SMOOTH"
);
},
{
closed = 1;
nodes = (
"639 1355 LINE SMOOTH",
"791 1355 OFFCURVE",
"1019 1195 OFFCURVE",
"1148 918 OFFCURVE",
"1148 742 QCURVE SMOOTH",
"1148 716 LINE SMOOTH",
"1148 542 OFFCURVE",
"1019 263 OFFCURVE",
"791 100 OFFCURVE",
"639 100 QCURVE SMOOTH",
"359 100 LINE",
"359 1355 LINE"
);
}
);
width = 1372;
},
{
layerId = "1A30CC2E-2F0E-43C1-8400-CBCC094AAC97";
paths = (
{
closed = 1;
nodes = (
"1137 187 OFFCURVE",
"1291 510 OFFCURVE",
"1291 712 QCURVE SMOOTH",
"1291 743 LINE SMOOTH",
"1291 950 OFFCURVE",
"1131 1272 OFFCURVE",
"844 1456 OFFCURVE",
"651 1456 QCURVE SMOOTH",
"244 1456 LINE",
"81 1456 LINE",
"81 1329 LINE",
"244 1301 LINE",
"244 154 LINE",
"81 126 LINE",
"81 0 LINE",
"661 0 LINE SMOOTH",
"854 0 OFFCURVE"
);
},
{
closed = 1;
nodes = (
"789 1301 OFFCURVE",
"987 1155 OFFCURVE",
"1094 904 OFFCURVE",
"1094 745 QCURVE SMOOTH",
"1094 712 LINE SMOOTH",
"1094 558 OFFCURVE",
"987 305 OFFCURVE",
"789 154 OFFCURVE",
"651 154 QCURVE SMOOTH",
"441 154 LINE",
"441 1301 LINE",
"651 1301 LINE SMOOTH"
);
}
);
userData = {
assembly = "NPUSHB[ ]	/* 60 values pushed */\0125 1 3 1 2 1 0 2 2 76 4 1 3 3 1 2 2 75 5 1 3 3 1 95 0 1 1 31 77 0 2 2 0 95 4 1 0 0 32 0 78 17 17 1 0 17 28 17 27 20 18 9 6 0 16 1 16 6 8 22 \012CALL[ ]	/* CallFunction */";
};
width = 1356;
},
{
layerId = "E08E4BD2-F9DD-4A22-B137-462FE0EF4830";
paths = (
{
closed = 1;
nodes = (
"894 0 OFFCURVE",
"1190 184 OFFCURVE",
"1355 507 OFFCURVE",
"1355 714 QCURVE SMOOTH",
"1355 741 LINE SMOOTH",
"1355 950 OFFCURVE",
"1188 1273 OFFCURVE",
"890 1456 OFFCURVE",
"695 1456 QCURVE SMOOTH",
"213 1456 LINE",
"56 1456 LINE",
"56 1280 LINE",
"213 1246 LINE",
"213 208 LINE",
"56 175 LINE",
"56 0 LINE",
"699 0 LINE SMOOTH"
);
},
{
closed = 1;
nodes = (
"684 1232 LINE SMOOTH",
"805 1232 OFFCURVE",
"973 1107 OFFCURVE",
"1062 886 OFFCURVE",
"1062 742 QCURVE SMOOTH",
"1062 714 LINE SMOOTH",
"1062 572 OFFCURVE",
"973 350 OFFCURVE",
"805 223 OFFCURVE",
"684 223 QCURVE SMOOTH",
"505 223 LINE",
"505 1232 LINE"
);
}
);
width = 1426;
},
{
layerId = "3540F6DD-AC2C-489F-A09A-29A5B6885314";
paths = (
{
closed = 1;
nodes = (
"919 0 OFFCURVE",
"1223 182 OFFCURVE",
"1395 505 OFFCURVE",
"1395 716 QCURVE SMOOTH",
"1395 739 LINE SMOOTH",
"1395 950 OFFCURVE",
"1223 1273 OFFCURVE",
"919 1456 OFFCURVE",
"722 1456 QCURVE SMOOTH",
"193 1456 LINE",
"40 1456 LINE",
"40 1250 LINE",
"193 1212 LINE",
"193 242 LINE",
"40 205 LINE",
"40 0 LINE",
"722 0 LINE SMOOTH"
);
},
{
closed = 1;
nodes = (
"704 1189 LINE SMOOTH",
"815 1189 OFFCURVE",
"965 1077 OFFCURVE",
"1042 875 OFFCURVE",
"1042 740 QCURVE SMOOTH",
"1042 716 LINE SMOOTH",
"1042 581 OFFCURVE",
"965 378 OFFCURVE",
"815 266 OFFCURVE",
"704 266 QCURVE SMOOTH",
"544 266 LINE",
"544 1189 LINE"
);
}
);
width = 1470;
}
);
note = D;
unicode = 0044;
},
{
glyphname = E;
lastChange = "2021-04-25 04:09:00 +0000";
layers = (
{
layerId = "E37246A9-A376-4020-9DA5-E0C9FF7935B5";
paths = (
{
closed = 1;
nodes = (
"1120 293 LINE",
"1066 293 LINE",
"1066 54 LINE",
"288 54 LINE",
"288 732 LINE",
"918 732 LINE",
"918 786 LINE",
"288 786 LINE",
"288 1402 LINE",
"1036 1402 LINE",
"1036 1163 LINE",
"1090 1163 LINE",
"1090 1456 LINE",
"71 1456 LINE",
"71 1402 LINE",
"234 1402 LINE",
"234 54 LINE",
"71 54 LINE",
"71 0 LINE",
"1120 0 LINE"
);
}
);
width = 1270;
},
{
layerId = "142AFF07-46EF-45A1-8A7E-F20FA79F7038";
paths = (
{
closed = 1;
nodes = (
"1152 319 LINE",
"1051 319 LINE",
"1041 97 LINE",
"359 97 LINE",
"359 706 LINE",
"946 706 LINE",
"946 806 LINE",
"359 806 LINE",
"359 1357 LINE",
"1010 1357 LINE",
"1020 1137 LINE",
"1122 1137 LINE",
"1122 1456 LINE",
"76 1456 LINE",
"76 1368 LINE",
"239 1355 LINE",
"239 100 LINE",
"76 87 LINE",
"76 0 LINE",
"1152 0 LINE"
);
}
);
width = 1287;
},
{
layerId = "1A30CC2E-2F0E-43C1-8400-CBCC094AAC97";
paths = (
{
closed = 1;
nodes = (
"1011 148 LINE",
"441 148 LINE",
"441 675 LINE",
"978 675 LINE",
"978 830 LINE",
"441 830 LINE",
"441 1304 LINE",
"979 1304 LINE",
"1001 1106 LINE",
"1159 1106 LINE",
"1159 1456 LINE",
"81 1456 LINE",
"81 1329 LINE",
"244 1301 LINE",
"244 154 LINE",
"81 126 LINE",
"81 0 LINE",
"1190 0 LINE",
"1190 349 LINE",
"1033 349 LINE"
);
}
);
userData = {
assembly = "NPUSHB[ ]	/* 18 values pushed */\0126 1 3 1 5 1 2 3 4 1 6 7 3 1 0 6 4 76 \012MPPEM[ ]	/* MeasurePixelPerEm */\012PUSHB[ ]	/* 1 value pushed */\01212 \012LT[ ]	/* LessThan */\012IF[ ]	/* If */\012NPUSHB[ ]	/* 44 values pushed */\0120 2 3 4 3 2 114 8 1 7 5 6 6 7 114 0 4 0 5 7 4 5 103 0 3 3 1 95 0 1 1 31 77 0 6 6 0 96 0 0 0 32 0 78 \012ELSE[ ]	/* Else */\012NPUSHB[ ]	/* 46 values pushed */\0120 2 3 4 3 2 4 128 8 1 7 5 6 5 7 6 128 0 4 0 5 7 4 5 103 0 3 3 1 95 0 1 1 31 77 0 6 6 0 96 0 0 0 32 0 78 \012EIF[ ]	/* EndIf */\012NPUSHB[ ]	/* 16 values pushed */\0120 0 0 19 0 19 17 17 17 17 17 21 17 9 8 29 \012CALL[ ]	/* CallFunction */";
};
width = 1306;
},
{
layerId = "E08E4BD2-F9DD-4A22-B137-462FE0EF4830";
paths = (
{
closed = 1;
nodes = (
"1208 398 LINE",
"986 398 LINE",
"973 224 LINE",
"503 224 LINE",
"503 640 LINE",
"996 640 LINE",
"996 865 LINE",
"503 865 LINE",
"503 1231 LINE",
"949 1231 LINE",
"962 1063 LINE",
"1186 1063 LINE",
"1186 1456 LINE",
"56 1456 LINE",
"56 1280 LINE",
"211 1250 LINE",
"211 205 LINE",
"56 175 LINE",
"56 0 LINE",
"1208 0 LINE"
);
}
);
width = 1308;
},
{
layerId = "3540F6DD-AC2C-489F-A09A-29A5B6885314";
paths = (
{
closed = 1;
nodes = (
"1219 428 LINE",
"957 428 LINE",
"949 271 LINE",
"542 271 LINE",
"542 618 LINE",
"1007 618 LINE",
"1007 887 LINE",
"542 887 LINE",
"542 1186 LINE",
"930 1186 LINE",
"938 1036 LINE",
"1203 1036 LINE",
"1203 1456 LINE",
"40 1456 LINE",
"40 1250 LINE",
"191 1218 LINE",
"191 237 LINE",
"40 205 LINE",
"40 0 LINE",
"1219 0 LINE"
);
}
);
width = 1309;
}
);
note = E;
unicode = 0045;
},
{
glyphname = F;
lastChange = "2021-04-25 04:09:00 +0000";
layers = (
{
layerId = "E37246A9-A376-4020-9DA5-E0C9FF7935B5";
paths = (
{
closed = 1;
nodes = (
"451 54 LINE",
"288 54 LINE",
"288 716 LINE",
"934 716 LINE",
"934 772 LINE",
"288 772 LINE",
"288 1402 LINE",
"1082 1402 LINE",
"1082 1163 LINE",
"1136 1163 LINE",
"1136 1456 LINE",
"71 1456 LINE",
"71 1402 LINE",
"234 1402 LINE",
"234 54 LINE",
"71 54 LINE",
"71 0 LINE",
"451 0 LINE"
);
}
);
width = 1246;
},
{
layerId = "142AFF07-46EF-45A1-8A7E-F20FA79F7038";
paths = (
{
closed = 1;
nodes = (
"522 87 LINE",
"359 100 LINE",
"359 683 LINE",
"952 683 LINE",
"952 784 LINE",
"359 784 LINE",
"359 1356 LINE",
"1042 1356 LINE",
"1052 1137 LINE",
"1154 1137 LINE",
"1154 1456 LINE",
"76 1456 LINE",
"76 1368 LINE",
"239 1355 LINE",
"239 100 LINE",
"76 87 LINE",
"76 0 LINE",
"522 0 LINE"
);
}
);
width = 1251;
},
{
layerId = "1A30CC2E-2F0E-43C1-8400-CBCC094AAC97";
paths = (
{
closed = 1;
nodes = (
"441 644 LINE",
"974 644 LINE",
"974 799 LINE",
"441 799 LINE",
"441 1303 LINE",
"996 1303 LINE",
"1018 1106 LINE",
"1176 1106 LINE",
"1176 1456 LINE",
"81 1456 LINE",
"81 1329 LINE",
"244 1301 LINE",
"244 154 LINE",
"81 126 LINE",
"81 0 LINE",
"604 0 LINE",
"604 126 LINE",
"441 154 LINE"
);
}
);
userData = {
assembly = "NPUSHB[ ]	/* 17 values pushed */\0126 1 3 1 5 1 2 3 17 4 3 0 4 0 5 3 76 \012MPPEM[ ]	/* MeasurePixelPerEm */\012PUSHB[ ]	/* 1 value pushed */\01212 \012LT[ ]	/* LessThan */\012IF[ ]	/* If */\012NPUSHB[ ]	/* 31 values pushed */\0120 2 3 4 3 2 114 0 4 0 5 0 4 5 103 0 3 3 1 95 0 1 1 31 77 0 0 0 32 0 78 \012ELSE[ ]	/* Else */\012NPUSHB[ ]	/* 32 values pushed */\0120 2 3 4 3 2 4 128 0 4 0 5 0 4 5 103 0 3 3 1 95 0 1 1 31 77 0 0 0 32 0 78 \012EIF[ ]	/* EndIf */\012NPUSHB[ ]	/* 9 values pushed */\01217 17 17 17 21 17 6 8 28 \012CALL[ ]	/* CallFunction */";
};
width = 1256;
},
{
layerId = "E08E4BD2-F9DD-4A22-B137-462FE0EF4830";
paths = (
{
closed = 1;
nodes = (
"659 175 LINE",
"503 205 LINE",
"503 605 LINE",
"1013 605 LINE",
"1013 830 LINE",
"503 830 LINE",
"503 1231 LINE",
"978 1231 LINE",
"991 1057 LINE",
"1215 1057 LINE",
"1215 1456 LINE",
"56 1456 LINE",
"56 1280 LINE",
"211 1250 LINE",
"211 205 LINE",
"56 175 LINE",
"56 0 LINE",
"659 0 LINE"
);
}
);
width = 1265;
},
{
layerId = "3540F6DD-AC2C-489F-A09A-29A5B6885314";
paths = (
{
closed = 1;
nodes = (
"693 205 LINE",
"542 237 LINE",
"542 581 LINE",
"1037 581 LINE",
"1037 849 LINE",
"542 849 LINE",
"542 1186 LINE",
"967 1186 LINE",
"974 1027 LINE",
"1239 1027 LINE",
"1239 1456 LINE",
"40 1456 LINE",
"40 1250 LINE",
"191 1218 LINE",
"191 237 LINE",
"40 205 LINE",
"40 0 LINE",
"693 0 LINE"
);
}
);
width = 1271;
}
);
note = F;
unicode = 0046;
},
{
glyphname = G;
lastChange = "2021-04-25 04:09:00 +0000";
layers = (
{
layerId = "E37246A9-A376-4020-9DA5-E0C9FF7935B5";
paths = (
{
closed = 1;
nodes = (
"1157 56 OFFCURVE",
"1248 111 QCURVE",
"1248 620 LINE",
"879 620 LINE",
"879 565 LINE",
"1194 565 LINE",
"1194 141 LINE",
"1118 98 OFFCURVE",
"902 33 OFFCURVE",
"768 33 QCURVE SMOOTH",
"584 33 OFFCURVE",
"323 207 OFFCURVE",
"184 517 OFFCURVE",
"184 720 QCURVE SMOOTH",
"184 760 LINE SMOOTH",
"184 956 OFFCURVE",
"334 1254 OFFCURVE",
"592 1423 OFFCURVE",
"754 1423 QCURVE SMOOTH",
"900 1423 OFFCURVE",
"1085 1354 OFFCURVE",
"1159 1296 QCURVE",
"1159 1072 LINE",
"1213 1072 LINE",
"1213 1324 LINE",
"1123 1394 OFFCURVE",
"908 1477 OFFCURVE",
"754 1477 QCURVE SMOOTH",
"574 1477 OFFCURVE",
"292 1295 OFFCURVE",
"130 971 OFFCURVE",
"130 758 QCURVE SMOOTH",
"130 720 LINE SMOOTH",
"130 500 OFFCURVE",
"284 166 OFFCURVE",
"571 -21 OFFCURVE",
"770 -21 QCURVE SMOOTH",
"925 -21 OFFCURVE"
);
}
);
width = 1417;
},
{
layerId = "142AFF07-46EF-45A1-8A7E-F20FA79F7038";
paths = (
{
closed = 1;
nodes = (
"1160 66 OFFCURVE",
"1238 123 QCURVE",
"1238 657 LINE",
"819 657 LINE",
"819 560 LINE",
"1118 556 LINE",
"1118 170 LINE",
"1052 134 OFFCURVE",
"872 82 OFFCURVE",
"754 82 QCURVE SMOOTH",
"587 82 OFFCURVE",
"352 242 OFFCURVE",
"227 529 OFFCURVE",
"227 718 QCURVE SMOOTH",
"227 752 LINE SMOOTH",
"227 937 OFFCURVE",
"362 1216 OFFCURVE",
"593 1373 OFFCURVE",
"738 1373 QCURVE SMOOTH",
"861 1373 OFFCURVE",
"1026 1321 OFFCURVE",
"1089 1275 QCURVE",
"1099 1057 LINE",
"1202 1057 LINE",
"1202 1328 LINE",
"1115 1396 OFFCURVE",
"890 1477 OFFCURVE",
"729 1477 QCURVE SMOOTH",
"550 1477 OFFCURVE",
"268 1293 OFFCURVE",
"107 966 OFFCURVE",
"107 750 QCURVE SMOOTH",
"107 718 LINE SMOOTH",
"107 499 OFFCURVE",
"264 166 OFFCURVE",
"555 -21 OFFCURVE",
"755 -21 QCURVE SMOOTH",
"926 -21 OFFCURVE"
);
}
);
width = 1384;
},
{
layerId = "1A30CC2E-2F0E-43C1-8400-CBCC094AAC97";
paths = (
{
closed = 1;
nodes = (
"1163 77 OFFCURVE",
"1226 136 QCURVE",
"1226 700 LINE",
"750 700 LINE",
"750 555 LINE",
"1029 545 LINE",
"1029 203 LINE",
"976 175 OFFCURVE",
"838 140 OFFCURVE",
"738 140 QCURVE SMOOTH",
"591 140 OFFCURVE",
"385 283 OFFCURVE",
"278 542 OFFCURVE",
"278 716 QCURVE SMOOTH",
"278 742 LINE SMOOTH",
"278 914 OFFCURVE",
"394 1171 OFFCURVE",
"594 1315 OFFCURVE",
"719 1315 QCURVE SMOOTH",
"816 1315 OFFCURVE",
"958 1282 OFFCURVE",
"1007 1250 QCURVE",
"1028 1039 LINE",
"1190 1039 LINE",
"1190 1333 LINE",
"1106 1399 OFFCURVE",
"869 1477 OFFCURVE",
"699 1477 QCURVE SMOOTH",
"521 1477 OFFCURVE",
"241 1291 OFFCURVE",
"80 960 OFFCURVE",
"80 740 QCURVE SMOOTH",
"80 716 LINE SMOOTH",
"80 498 OFFCURVE",
"240 166 OFFCURVE",
"536 -21 OFFCURVE",
"738 -21 QCURVE SMOOTH",
"928 -21 OFFCURVE"
);
}
);
userData = {
assembly = "NPUSHB[ ]	/* 73 values pushed */\01212 1 3 1 30 1 4 5 35 1 0 4 3 76 0 2 3 6 3 2 6 128 0 6 0 5 4 6 5 103 0 3 3 1 97 0 1 1 37 77 0 4 4 0 97 7 1 0 0 38 0 78 1 0 34 33 32 31 28 26 19 17 14 13 10 8 0 37 1 37 8 8 22 \012CALL[ ]	/* CallFunction */";
};
width = 1346;
},
{
layerId = "E08E4BD2-F9DD-4A22-B137-462FE0EF4830";
paths = (
{
closed = 1;
nodes = (
"1186 63 OFFCURVE",
"1283 132 QCURVE",
"1283 721 LINE",
"782 721 LINE",
"782 516 LINE",
"990 500 LINE",
"990 253 LINE",
"948 232 OFFCURVE",
"819 203 OFFCURVE",
"742 203 QCURVE SMOOTH",
"611 203 OFFCURVE",
"431 323 OFFCURVE",
"338 542 OFFCURVE",
"338 690 QCURVE SMOOTH",
"338 742 LINE SMOOTH",
"338 894 OFFCURVE",
"432 1124 OFFCURVE",
"609 1252 OFFCURVE",
"731 1252 QCURVE SMOOTH",
"816 1252 OFFCURVE",
"948 1211 OFFCURVE",
"987 1177 QCURVE",
"1028 982 LINE",
"1244 982 LINE",
"1244 1305 LINE",
"1142 1391 OFFCURVE",
"866 1477 OFFCURVE",
"709 1477 QCURVE SMOOTH",
"506 1477 OFFCURVE",
"209 1290 OFFCURVE",
"47 958 OFFCURVE",
"47 740 QCURVE SMOOTH",
"47 690 LINE SMOOTH",
"47 479 OFFCURVE",
"210 159 OFFCURVE",
"516 -21 OFFCURVE",
"733 -21 QCURVE SMOOTH",
"913 -21 OFFCURVE"
);
}
);
width = 1373;
},
{
layerId = "3540F6DD-AC2C-489F-A09A-29A5B6885314";
paths = (
{
closed = 1;
nodes = (
"1200 54 OFFCURVE",
"1318 130 QCURVE",
"1318 734 LINE",
"802 734 LINE",
"802 492 LINE",
"966 472 LINE",
"966 284 LINE",
"931 268 OFFCURVE",
"807 242 OFFCURVE",
"744 242 QCURVE SMOOTH",
"624 242 OFFCURVE",
"460 348 OFFCURVE",
"375 542 OFFCURVE",
"375 674 QCURVE SMOOTH",
"375 742 LINE SMOOTH",
"375 882 OFFCURVE",
"456 1094 OFFCURVE",
"618 1213 OFFCURVE",
"738 1213 QCURVE SMOOTH",
"816 1213 OFFCURVE",
"941 1167 OFFCURVE",
"975 1132 QCURVE",
"1028 947 LINE",
"1278 947 LINE",
"1278 1288 LINE",
"1164 1386 OFFCURVE",
"864 1477 OFFCURVE",
"715 1477 QCURVE SMOOTH",
"497 1477 OFFCURVE",
"189 1289 OFFCURVE",
"27 957 OFFCURVE",
"27 740 QCURVE SMOOTH",
"27 674 LINE SMOOTH",
"27 468 OFFCURVE",
"191 155 OFFCURVE",
"504 -21 OFFCURVE",
"730 -21 QCURVE SMOOTH",
"903 -21 OFFCURVE"
);
}
);
width = 1390;
}
);
note = G;
unicode = 0047;
},
{
glyphname = H;
lastChange = "2021-04-25 04:09:00 +0000";
layers = (
{
layerId = "E37246A9-A376-4020-9DA5-E0C9FF7935B5";
paths = (
{
closed = 1;
nodes = (
"451 54 LINE",
"288 54 LINE",
"288 695 LINE",
"1218 695 LINE",
"1218 54 LINE",
"1055 54 LINE",
"1055 0 LINE",
"1435 0 LINE",
"1435 54 LINE",
"1272 54 LINE",
"1272 1402 LINE",
"1435 1402 LINE",
"1435 1456 LINE",
"1272 1456 LINE",
"1218 1456 LINE",
"1055 1456 LINE",
"1055 1402 LINE",
"1218 1402 LINE",
"1218 749 LINE",
"288 749 LINE",
"288 1402 LINE",
"451 1402 LINE",
"451 1456 LINE",
"71 1456 LINE",
"71 1402 LINE",
"234 1402 LINE",
"234 54 LINE",
"71 54 LINE",
"71 0 LINE",
"451 0 LINE"
);
}
);
width = 1506;
},
{
layerId = "142AFF07-46EF-45A1-8A7E-F20FA79F7038";
paths = (
{
closed = 1;
nodes = (
"522 87 LINE",
"359 100 LINE",
"359 671 LINE",
"1181 671 LINE",
"1181 100 LINE",
"1018 87 LINE",
"1018 0 LINE",
"1464 0 LINE",
"1464 87 LINE",
"1301 100 LINE",
"1301 1355 LINE",
"1464 1368 LINE",
"1464 1456 LINE",
"1301 1456 LINE",
"1181 1456 LINE",
"1018 1456 LINE",
"1018 1368 LINE",
"1181 1355 LINE",
"1181 772 LINE",
"359 772 LINE",
"359 1355 LINE",
"522 1368 LINE",
"522 1456 LINE",
"76 1456 LINE",
"76 1368 LINE",
"239 1355 LINE",
"239 100 LINE",
"76 87 LINE",
"76 0 LINE",
"522 0 LINE"
);
}
);
width = 1539;
},
{
layerId = "1A30CC2E-2F0E-43C1-8400-CBCC094AAC97";
paths = (
{
closed = 1;
nodes = (
"441 643 LINE",
"1137 643 LINE",
"1137 154 LINE",
"974 126 LINE",
"974 0 LINE",
"1497 0 LINE",
"1497 126 LINE",
"1334 154 LINE",
"1334 1301 LINE",
"1497 1329 LINE",
"1497 1456 LINE",
"974 1456 LINE",
"974 1329 LINE",
"1137 1301 LINE",
"1137 798 LINE",
"441 798 LINE",
"441 1301 LINE",
"604 1329 LINE",
"604 1456 LINE",
"81 1456 LINE",
"81 1329 LINE",
"244 1301 LINE",
"244 154 LINE",
"81 126 LINE",
"81 0 LINE",
"604 0 LINE",
"604 126 LINE",
"441 154 LINE"
);
}
);
userData = {
assembly = "NPUSHB[ ]	/* 54 values pushed */\01218 17 14 13 10 9 6 5 8 2 1 27 24 23 20 19 4 3 0 8 0 5 2 76 0 2 0 5 0 2 5 104 3 1 1 1 31 77 4 1 0 0 32 0 78 19 21 19 19 21 17 6 8 28 \012CALL[ ]	/* CallFunction */";
};
width = 1578;
},
{
layerId = "E08E4BD2-F9DD-4A22-B137-462FE0EF4830";
paths = (
{
closed = 1;
nodes = (
"659 175 LINE",
"503 205 LINE",
"503 605 LINE",
"1097 605 LINE",
"1097 205 LINE",
"941 175 LINE",
"941 0 LINE",
"1544 0 LINE",
"1544 175 LINE",
"1388 205 LINE",
"1388 1250 LINE",
"1544 1280 LINE",
"1544 1456 LINE",
"1388 1456 LINE",
"1097 1456 LINE",
"941 1456 LINE",
"941 1280 LINE",
"1097 1250 LINE",
"1097 830 LINE",
"503 830 LINE",
"503 1250 LINE",
"659 1280 LINE",
"659 1456 LINE",
"56 1456 LINE",
"56 1280 LINE",
"211 1250 LINE",
"211 205 LINE",
"56 175 LINE",
"56 0 LINE",
"659 0 LINE"
);
}
);
width = 1600;
},
{
layerId = "3540F6DD-AC2C-489F-A09A-29A5B6885314";
paths = (
{
closed = 1;
nodes = (
"693 205 LINE",
"542 237 LINE",
"542 581 LINE",
"1072 581 LINE",
"1072 237 LINE",
"921 205 LINE",
"921 0 LINE",
"1573 0 LINE",
"1573 205 LINE",
"1422 237 LINE",
"1422 1218 LINE",
"1573 1250 LINE",
"1573 1456 LINE",
"1422 1456 LINE",
"1072 1456 LINE",
"921 1456 LINE",
"921 1250 LINE",
"1072 1218 LINE",
"1072 850 LINE",
"542 850 LINE",
"542 1218 LINE",
"693 1250 LINE",
"693 1456 LINE",
"40 1456 LINE",
"40 1250 LINE",
"191 1218 LINE",
"191 237 LINE",
"40 205 LINE",
"40 0 LINE",
"693 0 LINE"
);
}
);
width = 1613;
}
);
note = H;
unicode = 0048;
},
{
glyphname = I;
lastChange = "2021-04-25 04:09:00 +0000";
layers = (
{
layerId = "E37246A9-A376-4020-9DA5-E0C9FF7935B5";
paths = (
{
closed = 1;
nodes = (
"451 54 LINE",
"288 54 LINE",
"288 1402 LINE",
"451 1402 LINE",
"451 1456 LINE",
"71 1456 LINE",
"71 1402 LINE",
"234 1402 LINE",
"234 54 LINE",
"71 54 LINE",
"71 0 LINE",
"451 0 LINE"
);
}
);
width = 522;
},
{
layerId = "142AFF07-46EF-45A1-8A7E-F20FA79F7038";
paths = (
{
closed = 1;
nodes = (
"522 87 LINE",
"359 100 LINE",
"359 1355 LINE",
"522 1368 LINE",
"522 1456 LINE",
"76 1456 LINE",
"76 1368 LINE",
"239 1355 LINE",
"239 100 LINE",
"76 87 LINE",
"76 0 LINE",
"522 0 LINE"
);
}
);
width = 597;
},
{
layerId = "1A30CC2E-2F0E-43C1-8400-CBCC094AAC97";
paths = (
{
closed = 1;
nodes = (
"441 1301 LINE",
"604 1329 LINE",
"604 1456 LINE",
"81 1456 LINE",
"81 1329 LINE",
"244 1301 LINE",
"244 154 LINE",
"81 126 LINE",
"81 0 LINE",
"604 0 LINE",
"604 126 LINE",
"441 154 LINE"
);
}
);
userData = {
assembly = "NPUSHB[ ]	/* 29 values pushed */\01211 10 9 6 5 4 3 0 8 0 1 1 76 0 1 1 31 77 0 0 0 32 0 78 21 17 2 8 24 \012CALL[ ]	/* CallFunction */";
};
width = 685;
},
{
layerId = "E08E4BD2-F9DD-4A22-B137-462FE0EF4830";
paths = (
{
closed = 1;
nodes = (
"658 175 LINE",
"503 205 LINE",
"503 1250 LINE",
"658 1280 LINE",
"658 1456 LINE",
"56 1456 LINE",
"56 1280 LINE",
"211 1250 LINE",
"211 205 LINE",
"56 175 LINE",
"56 0 LINE",
"658 0 LINE"
);
}
);
width = 714;
},
{
layerId = "3540F6DD-AC2C-489F-A09A-29A5B6885314";
paths = (
{
closed = 1;
nodes = (
"692 205 LINE",
"541 237 LINE",
"541 1218 LINE",
"692 1250 LINE",
"692 1456 LINE",
"40 1456 LINE",
"40 1250 LINE",
"191 1218 LINE",
"191 237 LINE",
"40 205 LINE",
"40 0 LINE",
"692 0 LINE"
);
}
);
width = 732;
}
);
note = I;
unicode = 0049;
},
{
glyphname = J;
lastChange = "2021-04-25 04:09:00 +0000";
layers = (
{
layerId = "E37246A9-A376-4020-9DA5-E0C9FF7935B5";
paths = (
{
closed = 1;
nodes = (
"776 88 OFFCURVE",
"880 287 OFFCURVE",
"880 422 QCURVE SMOOTH",
"880 1402 LINE",
"1043 1402 LINE",
"1043 1456 LINE",
"640 1456 LINE",
"640 1402 LINE",
"826 1402 LINE",
"826 422 LINE SMOOTH",
"826 303 OFFCURVE",
"734 128 OFFCURVE",
"573 33 OFFCURVE",
"471 33 QCURVE SMOOTH",
"288 33 OFFCURVE",
"94 223 OFFCURVE",
"94 401 QCURVE",
"48 401 LINE",
"46 395 LINE",
"43 259 OFFCURVE",
"145 74 OFFCURVE",
"338 -21 OFFCURVE",
"471 -21 QCURVE SMOOTH",
"591 -21 OFFCURVE"
);
}
);
width = 1137;
},
{
layerId = "142AFF07-46EF-45A1-8A7E-F20FA79F7038";
paths = (
{
closed = 1;
nodes = (
"805 88 OFFCURVE",
"906 285 OFFCURVE",
"906 418 QCURVE SMOOTH",
"906 1355 LINE",
"1069 1368 LINE",
"1069 1456 LINE",
"597 1456 LINE",
"597 1367 LINE",
"786 1355 LINE",
"786 418 LINE SMOOTH",
"786 316 OFFCURVE",
"713 164 OFFCURVE",
"578 81 OFFCURVE",
"484 81 QCURVE SMOOTH",
"331 81 OFFCURVE",
"168 247 OFFCURVE",
"166 410 QCURVE",
"54 410 LINE",
"52 404 LINE",
"54 264 OFFCURVE",
"163 74 OFFCURVE",
"358 -21 OFFCURVE",
"486 -21 QCURVE SMOOTH",
"616 -21 OFFCURVE"
);
}
);
width = 1152;
},
{
layerId = "1A30CC2E-2F0E-43C1-8400-CBCC094AAC97";
paths = (
{
closed = 1;
nodes = (
"838 87 OFFCURVE",
"937 283 OFFCURVE",
"937 413 QCURVE SMOOTH",
"937 1301 LINE",
"1100 1329 LINE",
"1100 1456 LINE",
"546 1456 LINE",
"546 1327 LINE",
"740 1301 LINE",
"740 413 LINE SMOOTH",
"740 332 OFFCURVE",
"689 207 OFFCURVE",
"583 136 OFFCURVE",
"500 136 QCURVE SMOOTH",
"382 136 OFFCURVE",
"255 274 OFFCURVE",
"251 421 QCURVE",
"62 421 LINE",
"60 415 LINE",
"66 269 OFFCURVE",
"185 75 OFFCURVE",
"382 -21 OFFCURVE",
"503 -21 QCURVE SMOOTH",
"645 -21 OFFCURVE"
);
}
);
userData = {
assembly = "NPUSHB[ ]	/* 49 values pushed */\01219 18 15 14 4 1 3 1 76 0 1 3 2 3 1 2 128 0 3 3 31 77 0 2 2 0 98 4 1 0 0 38 0 78 1 0 17 16 10 8 6 4 0 23 1 23 5 8 22 \012CALL[ ]	/* CallFunction */";
};
width = 1169;
},
{
layerId = "E08E4BD2-F9DD-4A22-B137-462FE0EF4830";
paths = (
{
closed = 1;
nodes = (
"911 91 OFFCURVE",
"1019 297 OFFCURVE",
"1019 437 QCURVE SMOOTH",
"1019 1250 LINE",
"1175 1280 LINE",
"1175 1456 LINE",
"532 1456 LINE",
"532 1280 LINE",
"728 1250 LINE",
"728 437 LINE SMOOTH",
"728 362 OFFCURVE",
"675 259 OFFCURVE",
"584 207 OFFCURVE",
"524 207 QCURVE SMOOTH",
"431 207 OFFCURVE",
"319 320 OFFCURVE",
"311 463 QCURVE",
"37 463 LINE",
"35 457 LINE",
"41 294 OFFCURVE",
"172 82 OFFCURVE",
"401 -21 OFFCURVE",
"553 -21 QCURVE SMOOTH",
"703 -21 OFFCURVE"
);
}
);
width = 1202;
},
{
layerId = "3540F6DD-AC2C-489F-A09A-29A5B6885314";
paths = (
{
closed = 1;
nodes = (
"956 93 OFFCURVE",
"1070 305 OFFCURVE",
"1070 452 QCURVE SMOOTH",
"1070 1218 LINE",
"1222 1250 LINE",
"1222 1456 LINE",
"523 1456 LINE",
"523 1251 LINE",
"721 1218 LINE",
"721 452 LINE SMOOTH",
"721 380 OFFCURVE",
"667 291 OFFCURVE",
"584 251 OFFCURVE",
"539 251 QCURVE SMOOTH",
"461 251 OFFCURVE",
"358 348 OFFCURVE",
"348 489 QCURVE",
"21 489 LINE",
"19 483 LINE",
"25 310 OFFCURVE",
"164 87 OFFCURVE",
"413 -21 OFFCURVE",
"584 -21 QCURVE SMOOTH",
"739 -21 OFFCURVE"
);
}
);
width = 1222;
}
);
note = J;
unicode = 004A;
},
{
glyphname = K;
lastChange = "2021-04-25 04:09:00 +0000";
layers = (
{
layerId = "E37246A9-A376-4020-9DA5-E0C9FF7935B5";
paths = (
{
closed = 1;
nodes = (
"1282 1402 LINE",
"1282 1456 LINE",
"921 1456 LINE",
"921 1402 LINE",
"1089 1402 LINE",
"1091 1397 LINE",
"250 453 LINE",
"270 391 LINE",
"1167 1402 LINE"
);
},
{
closed = 1;
nodes = (
"451 54 LINE",
"288 54 LINE",
"288 1402 LINE",
"451 1402 LINE",
"451 1456 LINE",
"71 1456 LINE",
"71 1402 LINE",
"234 1402 LINE",
"234 54 LINE",
"71 54 LINE",
"71 0 LINE",
"451 0 LINE"
);
},
{
closed = 1;
nodes = (
"1328 54 LINE",
"1210 54 LINE",
"641 832 LINE",
"591 803 LINE",
"1133 60 LINE",
"1130 54 LINE",
"967 54 LINE",
"967 0 LINE",
"1328 0 LINE"
);
}
);
width = 1388;
},
{
layerId = "142AFF07-46EF-45A1-8A7E-F20FA79F7038";
paths = (
{
closed = 1;
nodes = (
"1325 1368 LINE",
"1325 1456 LINE",
"915 1456 LINE",
"915 1368 LINE",
"1056 1362 LINE",
"1055 1357 LINE",
"283 495 LINE",
"342 405 LINE",
"1200 1357 LINE"
);
},
{
closed = 1;
nodes = (
"522 87 LINE",
"359 100 LINE",
"359 1355 LINE",
"522 1368 LINE",
"522 1456 LINE",
"76 1456 LINE",
"76 1368 LINE",
"239 1355 LINE",
"239 100 LINE",
"76 87 LINE",
"76 0 LINE",
"522 0 LINE"
);
},
{
closed = 1;
nodes = (
"1374 87 LINE",
"1248 99 LINE",
"699 843 LINE",
"621 755 LINE",
"1099 97 LINE",
"1098 94 LINE",
"955 87 LINE",
"955 0 LINE",
"1374 0 LINE"
);
}
);
width = 1440;
},
{
layerId = "1A30CC2E-2F0E-43C1-8400-CBCC094AAC97";
paths = (
{
closed = 1;
nodes = (
"1375 1329 LINE",
"1375 1456 LINE",
"908 1456 LINE",
"908 1329 LINE",
"1017 1315 LINE",
"1013 1310 LINE",
"441 675 LINE",
"441 1301 LINE",
"604 1329 LINE",
"604 1456 LINE",
"81 1456 LINE",
"81 1329 LINE",
"244 1301 LINE",
"244 154 LINE",
"81 126 LINE",
"81 0 LINE",
"604 0 LINE",
"604 126 LINE",
"441 154 LINE",
"441 436 LINE",
"669 684 LINE",
"1060 141 LINE",
"1061 140 LINE",
"941 126 LINE",
"941 0 LINE",
"1427 0 LINE",
"1427 126 LINE",
"1293 151 LINE",
"793 820 LINE",
"1238 1304 LINE"
);
}
);
userData = {
assembly = "NPUSHB[ ]	/* 42 values pushed */\01228 25 23 22 21 20 17 16 15 14 11 10 9 8 6 5 2 17 0 2 1 76 3 1 2 2 31 77 1 1 0 0 32 0 78 23 21 24 19 4 8 26 \012CALL[ ]	/* CallFunction */";
};
width = 1501;
},
{
layerId = "E08E4BD2-F9DD-4A22-B137-462FE0EF4830";
paths = (
{
closed = 1;
nodes = (
"1461 1280 LINE",
"1461 1456 LINE",
"862 1456 LINE",
"862 1280 LINE",
"1006 1268 LINE",
"1004 1265 LINE",
"291 530 LINE",
"442 357 LINE",
"1324 1253 LINE"
);
},
{
closed = 1;
nodes = (
"651 175 LINE",
"503 205 LINE",
"503 1250 LINE",
"651 1280 LINE",
"651 1456 LINE",
"56 1456 LINE",
"56 1280 LINE",
"211 1250 LINE",
"211 205 LINE",
"56 175 LINE",
"56 0 LINE",
"651 0 LINE"
);
},
{
closed = 1;
nodes = (
"1513 175 LINE",
"1370 200 LINE",
"854 890 LINE",
"661 697 LINE",
"1031 187 LINE",
"1030 187 LINE",
"894 175 LINE",
"894 0 LINE",
"1513 0 LINE"
);
}
);
width = 1545;
},
{
layerId = "3540F6DD-AC2C-489F-A09A-29A5B6885314";
paths = (
{
closed = 1;
nodes = (
"1514 1250 LINE",
"1514 1456 LINE",
"834 1456 LINE",
"834 1250 LINE",
"999 1239 LINE",
"998 1237 LINE",
"272 522 LINE",
"451 317 LINE",
"1377 1221 LINE"
);
},
{
closed = 1;
nodes = (
"680 205 LINE",
"542 237 LINE",
"542 1218 LINE",
"680 1250 LINE",
"680 1456 LINE",
"40 1456 LINE",
"40 1250 LINE",
"191 1218 LINE",
"191 237 LINE",
"40 205 LINE",
"40 0 LINE",
"680 0 LINE"
);
},
{
closed = 1;
nodes = (
"1567 205 LINE",
"1418 230 LINE",
"908 912 LINE",
"663 695 LINE",
"1013 216 LINE",
"1011 216 LINE",
"865 205 LINE",
"865 0 LINE",
"1567 0 LINE"
);
}
);
width = 1573;
}
);
note = K;
unicode = 004B;
},
{
glyphname = L;
lastChange = "2021-04-25 04:09:00 +0000";
layers = (
{
layerId = "E37246A9-A376-4020-9DA5-E0C9FF7935B5";
paths = (
{
closed = 1;
nodes = (
"1036 293 LINE",
"982 293 LINE",
"982 54 LINE",
"289 54 LINE",
"289 1402 LINE",
"452 1402 LINE",
"452 1456 LINE",
"289 1456 LINE",
"234 1456 LINE",
"71 1456 LINE",
"71 1402 LINE",
"234 1402 LINE",
"234 54 LINE",
"71 54 LINE",
"71 0 LINE",
"1036 0 LINE"
);
}
);
width = 1161;
},
{
layerId = "142AFF07-46EF-45A1-8A7E-F20FA79F7038";
paths = (
{
closed = 1;
nodes = (
"1079 334 LINE",
"981 334 LINE",
"970 99 LINE",
"359 99 LINE",
"359 1355 LINE",
"522 1368 LINE",
"522 1456 LINE",
"359 1456 LINE",
"239 1456 LINE",
"76 1456 LINE",
"76 1368 LINE",
"239 1355 LINE",
"239 100 LINE",
"76 87 LINE",
"76 0 LINE",
"1079 0 LINE"
);
}
);
width = 1184;
},
{
layerId = "1A30CC2E-2F0E-43C1-8400-CBCC094AAC97";
paths = (
{
closed = 1;
nodes = (
"956 151 LINE",
"441 151 LINE",
"441 1301 LINE",
"604 1329 LINE",
"604 1456 LINE",
"81 1456 LINE",
"81 1329 LINE",
"244 1301 LINE",
"244 154 LINE",
"81 126 LINE",
"81 0 LINE",
"1130 0 LINE",
"1130 381 LINE",
"979 381 LINE"
);
}
);
userData = {
assembly = "NPUSHB[ ]	/* 17 values pushed */\01210 9 6 5 4 3 1 4 1 2 3 3 1 0 2 3 76 \012MPPEM[ ]	/* MeasurePixelPerEm */\012PUSHB[ ]	/* 1 value pushed */\01210 \012LT[ ]	/* LessThan */\012IF[ ]	/* If */\012NPUSHB[ ]	/* 24 values pushed */\0124 1 3 1 2 2 3 114 0 1 1 31 77 0 2 2 0 96 0 0 0 32 0 78 \012ELSE[ ]	/* Else */\012NPUSHB[ ]	/* 25 values pushed */\0124 1 3 1 2 1 3 2 128 0 1 1 31 77 0 2 2 0 96 0 0 0 32 0 78 \012EIF[ ]	/* EndIf */\012NPUSHB[ ]	/* 12 values pushed */\0120 0 0 13 0 13 19 21 17 5 8 25 \012CALL[ ]	/* CallFunction */";
};
width = 1210;
},
{
layerId = "E08E4BD2-F9DD-4A22-B137-462FE0EF4830";
paths = (
{
closed = 1;
nodes = (
"1151 437 LINE",
"928 437 LINE",
"914 224 LINE",
"503 224 LINE",
"503 1250 LINE",
"679 1280 LINE",
"679 1456 LINE",
"503 1456 LINE",
"211 1456 LINE",
"56 1456 LINE",
"56 1280 LINE",
"211 1250 LINE",
"211 205 LINE",
"56 175 LINE",
"56 0 LINE",
"1151 0 LINE"
);
}
);
width = 1200;
},
{
layerId = "3540F6DD-AC2C-489F-A09A-29A5B6885314";
paths = (
{
closed = 1;
nodes = (
"1164 472 LINE",
"896 472 LINE",
"888 269 LINE",
"542 269 LINE",
"542 1218 LINE",
"726 1250 LINE",
"726 1456 LINE",
"542 1456 LINE",
"191 1456 LINE",
"40 1456 LINE",
"40 1250 LINE",
"191 1218 LINE",
"191 237 LINE",
"40 205 LINE",
"40 0 LINE",
"1164 0 LINE"
);
}
);
width = 1194;
}
);
note = L;
unicode = 004C;
},
{
glyphname = M;
lastChange = "2021-04-25 04:09:00 +0000";
layers = (
{
layerId = "E37246A9-A376-4020-9DA5-E0C9FF7935B5";
paths = (
{
closed = 1;
nodes = (
"451 54 LINE",
"288 54 LINE",
"288 872 LINE",
"288 1354 LINE",
"294 1356 LINE",
"889 0 LINE",
"932 0 LINE",
"1530 1363 LINE",
"1536 1361 LINE",
"1536 845 LINE",
"1536 54 LINE",
"1373 54 LINE",
"1373 0 LINE",
"1753 0 LINE",
"1753 54 LINE",
"1590 54 LINE",
"1590 1402 LINE",
"1753 1402 LINE",
"1753 1456 LINE",
"1511 1456 LINE",
"913 86 LINE",
"907 86 LINE",
"311 1456 LINE",
"234 1456 LINE",
"71 1456 LINE",
"71 1402 LINE",
"234 1402 LINE",
"234 54 LINE",
"71 54 LINE",
"71 0 LINE",
"451 0 LINE"
);
}
);
width = 1824;
},
{
layerId = "142AFF07-46EF-45A1-8A7E-F20FA79F7038";
paths = (
{
closed = 1;
nodes = (
"528 87 LINE",
"359 100 LINE",
"359 735 LINE",
"355 1276 LINE",
"361 1278 LINE",
"907 24 LINE",
"991 24 LINE",
"1531 1282 LINE",
"1536 1281 LINE",
"1536 721 LINE",
"1536 100 LINE",
"1369 87 LINE",
"1369 0 LINE",
"1815 0 LINE",
"1815 87 LINE",
"1652 100 LINE",
"1652 1355 LINE",
"1815 1368 LINE",
"1815 1456 LINE",
"1482 1456 LINE",
"951 208 LINE",
"945 208 LINE",
"407 1456 LINE",
"245 1456 LINE",
"82 1456 LINE",
"82 1368 LINE",
"245 1355 LINE",
"245 100 LINE",
"82 87 LINE",
"82 0 LINE",
"528 0 LINE"
);
}
);
width = 1897;
},
{
layerId = "1A30CC2E-2F0E-43C1-8400-CBCC094AAC97";
paths = (
{
closed = 1;
nodes = (
"441 576 LINE",
"434 1185 LINE",
"439 1186 LINE",
"928 52 LINE",
"1059 52 LINE",
"1532 1188 LINE",
"1537 1187 LINE",
"1537 154 LINE",
"1365 126 LINE",
"1365 0 LINE",
"1888 0 LINE",
"1888 126 LINE",
"1725 154 LINE",
"1725 1301 LINE",
"1888 1329 LINE",
"1888 1456 LINE",
"1449 1456 LINE",
"995 351 LINE",
"989 351 LINE",
"520 1456 LINE",
"94 1456 LINE",
"94 1329 LINE",
"257 1301 LINE",
"257 154 LINE",
"94 126 LINE",
"94 0 LINE",
"617 0 LINE",
"617 126 LINE",
"441 154 LINE"
);
}
);
userData = {
assembly = "NPUSHB[ ]	/* 49 values pushed */\01228 25 21 20 19 16 15 14 13 9 6 5 4 3 0 15 4 1 1 76 0 4 1 0 1 4 0 128 2 1 1 1 31 77 3 1 0 0 32 0 78 21 21 19 21 17 5 8 27 \012CALL[ ]	/* CallFunction */";
};
width = 1982;
},
{
layerId = "E08E4BD2-F9DD-4A22-B137-462FE0EF4830";
paths = (
{
closed = 1;
nodes = (
"659 175 LINE",
"487 205 LINE",
"487 514 LINE",
"470 1132 LINE",
"476 1133 LINE",
"921 20 LINE",
"1142 20 LINE",
"1577 1142 LINE",
"1583 1141 LINE",
"1578 484 LINE",
"1578 205 LINE",
"1415 175 LINE",
"1415 0 LINE",
"2018 0 LINE",
"2018 175 LINE",
"1862 205 LINE",
"1862 1250 LINE",
"2018 1280 LINE",
"2018 1456 LINE",
"1430 1456 LINE",
"1046 441 LINE",
"1040 441 LINE",
"643 1456 LINE",
"211 1456 LINE",
"56 1456 LINE",
"56 1280 LINE",
"211 1250 LINE",
"211 205 LINE",
"56 175 LINE",
"56 0 LINE",
"659 0 LINE"
);
}
);
width = 2066;
},
{
layerId = "3540F6DD-AC2C-489F-A09A-29A5B6885314";
paths = (
{
closed = 1;
nodes = (
"685 205 LINE",
"516 237 LINE",
"516 475 LINE",
"492 1099 LINE",
"499 1100 LINE",
"917 0 LINE",
"1193 0 LINE",
"1605 1113 LINE",
"1611 1112 LINE",
"1603 427 LINE",
"1603 237 LINE",
"1446 205 LINE",
"1446 0 LINE",
"2098 0 LINE",
"2098 205 LINE",
"1947 237 LINE",
"1947 1218 LINE",
"2098 1250 LINE",
"2098 1456 LINE",
"1419 1456 LINE",
"1077 497 LINE",
"1071 497 LINE",
"719 1456 LINE",
"182 1456 LINE",
"32 1456 LINE",
"32 1250 LINE",
"182 1218 LINE",
"182 237 LINE",
"32 205 LINE",
"32 0 LINE",
"685 0 LINE"
);
}
);
width = 2118;
}
);
note = M;
unicode = 004D;
},
{
glyphname = N;
lastChange = "2021-04-25 04:09:00 +0000";
layers = (
{
layerId = "E37246A9-A376-4020-9DA5-E0C9FF7935B5";
paths = (
{
closed = 1;
nodes = (
"452 54 LINE",
"289 54 LINE",
"289 1354 LINE",
"295 1356 LINE",
"1229 0 LINE",
"1283 0 LINE",
"1283 1402 LINE",
"1446 1402 LINE",
"1446 1456 LINE",
"1283 1456 LINE",
"1066 1456 LINE",
"1066 1402 LINE",
"1229 1402 LINE",
"1229 105 LINE",
"1223 103 LINE",
"289 1456 LINE",
"234 1456 LINE",
"71 1456 LINE",
"71 1402 LINE",
"234 1402 LINE",
"234 54 LINE",
"71 54 LINE",
"71 0 LINE",
"452 0 LINE"
);
}
);
width = 1517;
},
{
layerId = "142AFF07-46EF-45A1-8A7E-F20FA79F7038";
paths = (
{
closed = 1;
nodes = (
"523 87 LINE",
"353 100 LINE",
"353 1255 LINE",
"359 1257 LINE",
"1200 0 LINE",
"1312 0 LINE",
"1312 1355 LINE",
"1475 1368 LINE",
"1475 1456 LINE",
"1312 1456 LINE",
"1029 1456 LINE",
"1029 1368 LINE",
"1199 1355 LINE",
"1199 206 LINE",
"1193 204 LINE",
"361 1456 LINE",
"240 1456 LINE",
"77 1456 LINE",
"77 1368 LINE",
"240 1355 LINE",
"240 100 LINE",
"77 87 LINE",
"77 0 LINE",
"523 0 LINE"
);
}
);
width = 1552;
},
{
layerId = "1A30CC2E-2F0E-43C1-8400-CBCC094AAC97";
paths = (
{
closed = 1;
nodes = (
"427 1139 LINE",
"433 1141 LINE",
"1166 0 LINE",
"1346 0 LINE",
"1346 1301 LINE",
"1509 1329 LINE",
"1509 1456 LINE",
"986 1456 LINE",
"986 1329 LINE",
"1165 1301 LINE",
"1165 323 LINE",
"1159 321 LINE",
"445 1456 LINE",
"83 1456 LINE",
"83 1329 LINE",
"246 1301 LINE",
"246 154 LINE",
"83 126 LINE",
"83 0 LINE",
"606 0 LINE",
"606 126 LINE",
"427 154 LINE"
);
}
);
userData = {
assembly = "NPUSHB[ ]	/* 37 values pushed */\01221 19 16 15 12 11 9 6 5 4 3 0 12 0 1 1 76 2 1 1 1 31 77 3 1 0 0 32 0 78 19 21 21 17 4 8 26 \012CALL[ ]	/* CallFunction */";
};
width = 1592;
},
{
layerId = "E08E4BD2-F9DD-4A22-B137-462FE0EF4830";
paths = (
{
closed = 1;
nodes = (
"659 175 LINE",
"472 205 LINE",
"472 999 LINE",
"478 1000 LINE",
"1126 0 LINE",
"1408 0 LINE",
"1408 1250 LINE",
"1564 1280 LINE",
"1564 1456 LINE",
"1408 1456 LINE",
"961 1456 LINE",
"961 1280 LINE",
"1147 1250 LINE",
"1147 447 LINE",
"1141 446 LINE",
"507 1456 LINE",
"211 1456 LINE",
"56 1456 LINE",
"56 1280 LINE",
"211 1250 LINE",
"211 205 LINE",
"56 175 LINE",
"56 0 LINE",
"659 0 LINE"
);
}
);
width = 1604;
},
{
layerId = "3540F6DD-AC2C-489F-A09A-29A5B6885314";
paths = (
{
closed = 1;
nodes = (
"692 205 LINE",
"500 237 LINE",
"500 912 LINE",
"506 912 LINE",
"1101 0 LINE",
"1447 0 LINE",
"1447 1218 LINE",
"1598 1250 LINE",
"1598 1456 LINE",
"1447 1456 LINE",
"945 1456 LINE",
"945 1250 LINE",
"1136 1218 LINE",
"1136 524 LINE",
"1130 524 LINE",
"546 1456 LINE",
"189 1456 LINE",
"39 1456 LINE",
"39 1250 LINE",
"189 1218 LINE",
"189 237 LINE",
"39 205 LINE",
"39 0 LINE",
"692 0 LINE"
);
}
);
width = 1611;
}
);
note = N;
unicode = 004E;
},
{
glyphname = O;
lastChange = "2021-04-25 04:09:00 +0000";
layers = (
{
layerId = "E37246A9-A376-4020-9DA5-E0C9FF7935B5";
paths = (
{
closed = 1;
nodes = (
"1099 84 OFFCURVE",
"1260 278 OFFCURVE",
"1348 551 OFFCURVE",
"1348 719 QCURVE SMOOTH",
"1348 737 LINE SMOOTH",
"1348 905 OFFCURVE",
"1260 1177 OFFCURVE",
"1097 1372 OFFCURVE",
"873 1477 OFFCURVE",
"738 1477 QCURVE SMOOTH",
"602 1477 OFFCURVE",
"379 1372 OFFCURVE",
"217 1177 OFFCURVE",
"130 905 OFFCURVE",
"130 737 QCURVE SMOOTH",
"130 719 LINE SMOOTH",
"130 551 OFFCURVE",
"218 279 OFFCURVE",
"380 84 OFFCURVE",
"604 -21 OFFCURVE",
"740 -21 QCURVE SMOOTH",
"875 -21 OFFCURVE"
);
},
{
closed = 1;
nodes = (
"322 203 OFFCURVE",
"185 512 OFFCURVE",
"185 719 QCURVE SMOOTH",
"185 739 LINE SMOOTH",
"185 945 OFFCURVE",
"322 1253 OFFCURVE",
"570 1423 OFFCURVE",
"738 1423 QCURVE SMOOTH",
"907 1423 OFFCURVE",
"1157 1253 OFFCURVE",
"1294 945 OFFCURVE",
"1294 739 QCURVE SMOOTH",
"1294 719 LINE SMOOTH",
"1294 512 OFFCURVE",
"1158 203 OFFCURVE",
"909 33 OFFCURVE",
"740 33 QCURVE SMOOTH",
"571 33 OFFCURVE"
);
}
);
width = 1488;
},
{
layerId = "142AFF07-46EF-45A1-8A7E-F20FA79F7038";
paths = (
{
closed = 1;
nodes = (
"1076 85 OFFCURVE",
"1234 281 OFFCURVE",
"1317 552 OFFCURVE",
"1317 718 QCURVE SMOOTH",
"1317 737 LINE SMOOTH",
"1317 903 OFFCURVE",
"1234 1174 OFFCURVE",
"1075 1371 OFFCURVE",
"850 1477 OFFCURVE",
"709 1477 QCURVE SMOOTH",
"571 1477 OFFCURVE",
"347 1371 OFFCURVE",
"187 1174 OFFCURVE",
"102 903 OFFCURVE",
"102 737 QCURVE SMOOTH",
"102 718 LINE SMOOTH",
"102 552 OFFCURVE",
"188 281 OFFCURVE",
"348 85 OFFCURVE",
"572 -21 OFFCURVE",
"710 -21 QCURVE SMOOTH",
"851 -21 OFFCURVE"
);
},
{
closed = 1;
nodes = (
"340 242 OFFCURVE",
"223 528 OFFCURVE",
"223 718 QCURVE SMOOTH",
"223 739 LINE SMOOTH",
"223 928 OFFCURVE",
"340 1213 OFFCURVE",
"558 1372 OFFCURVE",
"709 1372 QCURVE SMOOTH",
"866 1372 OFFCURVE",
"1084 1213 OFFCURVE",
"1197 929 OFFCURVE",
"1197 739 QCURVE SMOOTH",
"1197 718 LINE SMOOTH",
"1197 528 OFFCURVE",
"1085 242 OFFCURVE",
"868 84 OFFCURVE",
"710 84 QCURVE SMOOTH",
"559 84 OFFCURVE"
);
}
);
width = 1425;
},
{
layerId = "1A30CC2E-2F0E-43C1-8400-CBCC094AAC97";
paths = (
{
closed = 1;
nodes = (
"1050 87 OFFCURVE",
"1203 284 OFFCURVE",
"1281 554 OFFCURVE",
"1281 717 QCURVE SMOOTH",
"1281 738 LINE SMOOTH",
"1281 900 OFFCURVE",
"1203 1171 OFFCURVE",
"1050 1369 OFFCURVE",
"824 1477 OFFCURVE",
"675 1477 QCURVE SMOOTH",
"534 1477 OFFCURVE",
"310 1369 OFFCURVE",
"153 1171 OFFCURVE",
"70 900 OFFCURVE",
"70 738 QCURVE SMOOTH",
"70 717 LINE SMOOTH",
"70 554 OFFCURVE",
"153 284 OFFCURVE",
"310 87 OFFCURVE",
"534 -21 OFFCURVE",
"675 -21 QCURVE SMOOTH",
"824 -21 OFFCURVE"
);
},
{
closed = 1;
nodes = (
"362 288 OFFCURVE",
"268 547 OFFCURVE",
"268 717 QCURVE SMOOTH",
"268 740 LINE SMOOTH",
"268 909 OFFCURVE",
"362 1166 OFFCURVE",
"544 1312 OFFCURVE",
"675 1312 QCURVE SMOOTH",
"818 1312 OFFCURVE",
"998 1167 OFFCURVE",
"1083 910 OFFCURVE",
"1083 740 QCURVE SMOOTH",
"1083 717 LINE SMOOTH",
"1083 546 OFFCURVE",
"999 287 OFFCURVE",
"820 143 OFFCURVE",
"675 143 QCURVE SMOOTH",
"544 143 OFFCURVE"
);
}
);
userData = {
assembly = "NPUSHB[ ]	/* 42 values pushed */\0120 3 3 1 97 0 1 1 37 77 5 1 2 2 0 97 4 1 0 0 38 0 78 23 22 1 0 32 30 22 39 23 39 12 10 0 21 1 21 6 8 22 \012CALL[ ]	/* CallFunction */";
};
width = 1351;
},
{
layerId = "E08E4BD2-F9DD-4A22-B137-462FE0EF4830";
paths = (
{
closed = 1;
nodes = (
"1114 89 OFFCURVE",
"1290 288 OFFCURVE",
"1385 557 OFFCURVE",
"1385 717 QCURVE SMOOTH",
"1385 739 LINE SMOOTH",
"1385 898 OFFCURVE",
"1290 1167 OFFCURVE",
"1114 1367 OFFCURVE",
"870 1477 OFFCURVE",
"722 1477 QCURVE SMOOTH",
"575 1477 OFFCURVE",
"333 1367 OFFCURVE",
"159 1167 OFFCURVE",
"65 898 OFFCURVE",
"65 739 QCURVE SMOOTH",
"65 717 LINE SMOOTH",
"65 557 OFFCURVE",
"159 288 OFFCURVE",
"334 89 OFFCURVE",
"576 -21 OFFCURVE",
"723 -21 QCURVE SMOOTH",
"871 -21 OFFCURVE"
);
},
{
closed = 1;
nodes = (
"438 334 OFFCURVE",
"357 564 OFFCURVE",
"357 717 QCURVE SMOOTH",
"357 741 LINE SMOOTH",
"357 894 OFFCURVE",
"438 1122 OFFCURVE",
"600 1249 OFFCURVE",
"722 1249 QCURVE SMOOTH",
"845 1249 OFFCURVE",
"1010 1121 OFFCURVE",
"1094 892 OFFCURVE",
"1094 741 QCURVE SMOOTH",
"1094 717 LINE SMOOTH",
"1094 564 OFFCURVE",
"1011 334 OFFCURVE",
"847 206 OFFCURVE",
"723 206 QCURVE SMOOTH",
"601 206 OFFCURVE"
);
}
);
width = 1446;
},
{
layerId = "3540F6DD-AC2C-489F-A09A-29A5B6885314";
paths = (
{
closed = 1;
nodes = (
"1154 90 OFFCURVE",
"1344 290 OFFCURVE",
"1450 559 OFFCURVE",
"1450 717 QCURVE SMOOTH",
"1450 740 LINE SMOOTH",
"1450 897 OFFCURVE",
"1344 1165 OFFCURVE",
"1153 1365 OFFCURVE",
"899 1477 OFFCURVE",
"751 1477 QCURVE SMOOTH",
"600 1477 OFFCURVE",
"348 1365 OFFCURVE",
"163 1165 OFFCURVE",
"62 897 OFFCURVE",
"62 740 QCURVE SMOOTH",
"62 717 LINE SMOOTH",
"62 559 OFFCURVE",
"163 290 OFFCURVE",
"349 90 OFFCURVE",
"602 -21 OFFCURVE",
"753 -21 QCURVE SMOOTH",
"900 -21 OFFCURVE"
);
},
{
closed = 1;
nodes = (
"486 362 OFFCURVE",
"413 575 OFFCURVE",
"413 717 QCURVE SMOOTH",
"413 742 LINE SMOOTH",
"413 884 OFFCURVE",
"485 1094 OFFCURVE",
"634 1210 OFFCURVE",
"751 1210 QCURVE SMOOTH",
"862 1210 OFFCURVE",
"1018 1092 OFFCURVE",
"1101 881 OFFCURVE",
"1101 742 QCURVE SMOOTH",
"1101 717 LINE SMOOTH",
"1101 575 OFFCURVE",
"1019 363 OFFCURVE",
"863 245 OFFCURVE",
"753 245 QCURVE SMOOTH",
"637 245 OFFCURVE"
);
}
);
width = 1505;
}
);
note = O;
unicode = 004F;
},
{
glyphname = P;
lastChange = "2021-04-25 04:09:00 +0000";
layers = (
{
layerId = "E37246A9-A376-4020-9DA5-E0C9FF7935B5";
paths = (
{
closed = 1;
nodes = (
"451 54 LINE",
"288 54 LINE",
"288 625 LINE",
"639 625 LINE SMOOTH",
"790 625 OFFCURVE",
"1000 727 OFFCURVE",
"1109 914 OFFCURVE",
"1109 1041 QCURVE SMOOTH",
"1109 1166 OFFCURVE",
"1000 1353 OFFCURVE",
"790 1456 OFFCURVE",
"639 1456 QCURVE SMOOTH",
"234 1456 LINE",
"71 1456 LINE",
"71 1402 LINE",
"234 1402 LINE",
"234 54 LINE",
"71 54 LINE",
"71 0 LINE",
"451 0 LINE"
);
},
{
closed = 1;
nodes = (
"639 1402 LINE SMOOTH",
"847 1402 OFFCURVE",
"1055 1197 OFFCURVE",
"1055 1039 QCURVE SMOOTH",
"1055 885 OFFCURVE",
"846 679 OFFCURVE",
"639 679 QCURVE SMOOTH",
"288 679 LINE",
"288 1402 LINE"
);
}
);
width = 1255;
},
{
layerId = "142AFF07-46EF-45A1-8A7E-F20FA79F7038";
paths = (
{
closed = 1;
nodes = (
"522 87 LINE",
"359 100 LINE",
"359 606 LINE",
"690 606 LINE SMOOTH",
"844 606 OFFCURVE",
"1058 711 OFFCURVE",
"1170 902 OFFCURVE",
"1170 1031 QCURVE SMOOTH",
"1170 1159 OFFCURVE",
"1058 1350 OFFCURVE",
"844 1456 OFFCURVE",
"690 1456 QCURVE SMOOTH",
"239 1456 LINE",
"76 1456 LINE",
"76 1368 LINE",
"239 1355 LINE",
"239 100 LINE",
"76 87 LINE",
"76 0 LINE",
"522 0 LINE"
);
},
{
closed = 1;
nodes = (
"690 1355 LINE SMOOTH",
"871 1355 OFFCURVE",
"1050 1170 OFFCURVE",
"1050 1029 QCURVE SMOOTH",
"1050 891 OFFCURVE",
"870 706 OFFCURVE",
"690 706 QCURVE SMOOTH",
"359 706 LINE",
"359 1355 LINE"
);
}
);
width = 1274;
},
{
layerId = "1A30CC2E-2F0E-43C1-8400-CBCC094AAC97";
paths = (
{
closed = 1;
nodes = (
"441 154 LINE",
"441 584 LINE",
"750 584 LINE SMOOTH",
"906 584 OFFCURVE",
"1126 692 OFFCURVE",
"1242 888 OFFCURVE",
"1242 1020 QCURVE SMOOTH",
"1242 1151 OFFCURVE",
"1126 1347 OFFCURVE",
"906 1456 OFFCURVE",
"750 1456 QCURVE SMOOTH",
"244 1456 LINE",
"81 1456 LINE",
"81 1329 LINE",
"244 1301 LINE",
"244 154 LINE",
"81 126 LINE",
"81 0 LINE",
"604 0 LINE",
"604 126 LINE"
);
},
{
closed = 1;
nodes = (
"898 1301 OFFCURVE",
"1045 1139 OFFCURVE",
"1045 1018 QCURVE SMOOTH",
"1045 897 OFFCURVE",
"898 738 OFFCURVE",
"750 738 QCURVE SMOOTH",
"441 738 LINE",
"441 1301 LINE",
"750 1301 LINE SMOOTH"
);
}
);
userData = {
assembly = "NPUSHB[ ]	/* 56 values pushed */\0125 1 4 1 19 18 3 2 4 0 2 2 76 4 1 4 1 75 0 3 0 2 0 3 2 103 5 1 4 4 1 95 0 1 1 31 77 0 0 0 32 0 78 20 20 20 28 20 27 36 38 53 16 6 8 26 \012CALL[ ]	/* CallFunction */";
};
width = 1297;
},
{
layerId = "E08E4BD2-F9DD-4A22-B137-462FE0EF4830";
paths = (
{
closed = 1;
nodes = (
"659 175 LINE",
"503 205 LINE",
"503 528 LINE",
"749 528 LINE SMOOTH",
"916 528 OFFCURVE",
"1158 643 OFFCURVE",
"1288 852 OFFCURVE",
"1288 991 QCURVE SMOOTH",
"1288 1130 OFFCURVE",
"1158 1339 OFFCURVE",
"916 1456 OFFCURVE",
"749 1456 QCURVE SMOOTH",
"211 1456 LINE",
"56 1456 LINE",
"56 1280 LINE",
"211 1250 LINE",
"211 205 LINE",
"56 175 LINE",
"56 0 LINE",
"659 0 LINE"
);
},
{
closed = 1;
nodes = (
"749 1231 LINE SMOOTH",
"871 1231 OFFCURVE",
"996 1094 OFFCURVE",
"996 989 QCURVE SMOOTH",
"996 886 OFFCURVE",
"871 753 OFFCURVE",
"749 753 QCURVE SMOOTH",
"503 753 LINE",
"503 1231 LINE"
);
}
);
width = 1325;
},
{
layerId = "3540F6DD-AC2C-489F-A09A-29A5B6885314";
paths = (
{
closed = 1;
nodes = (
"693 205 LINE",
"542 237 LINE",
"542 493 LINE",
"748 493 LINE SMOOTH",
"922 493 OFFCURVE",
"1178 613 OFFCURVE",
"1317 829 OFFCURVE",
"1317 973 QCURVE SMOOTH",
"1317 1117 OFFCURVE",
"1178 1334 OFFCURVE",
"922 1456 OFFCURVE",
"748 1456 QCURVE SMOOTH",
"191 1456 LINE",
"40 1456 LINE",
"40 1250 LINE",
"191 1218 LINE",
"191 237 LINE",
"40 205 LINE",
"40 0 LINE",
"693 0 LINE"
);
},
{
closed = 1;
nodes = (
"748 1188 LINE SMOOTH",
"855 1188 OFFCURVE",
"966 1066 OFFCURVE",
"966 971 QCURVE SMOOTH",
"966 879 OFFCURVE",
"855 762 OFFCURVE",
"748 762 QCURVE SMOOTH",
"542 762 LINE",
"542 1188 LINE"
);
}
);
width = 1342;
}
);
note = P;
unicode = 0050;
},
{
glyphname = Q;
lastChange = "2021-04-25 04:09:00 +0000";
layers = (
{
layerId = "E37246A9-A376-4020-9DA5-E0C9FF7935B5";
paths = (
{
closed = 1;
nodes = (
"1033 56 LINE",
"1181 142 OFFCURVE",
"1348 487 OFFCURVE",
"1348 719 QCURVE SMOOTH",
"1348 737 LINE SMOOTH",
"1348 905 OFFCURVE",
"1260 1177 OFFCURVE",
"1097 1372 OFFCURVE",
"873 1477 OFFCURVE",
"738 1477 QCURVE SMOOTH",
"602 1477 OFFCURVE",
"379 1372 OFFCURVE",
"217 1177 OFFCURVE",
"130 905 OFFCURVE",
"130 737 QCURVE SMOOTH",
"130 719 LINE SMOOTH",
"130 551 OFFCURVE",
"218 279 OFFCURVE",
"380 84 OFFCURVE",
"604 -21 OFFCURVE",
"740 -21 QCURVE SMOOTH",
"804 -21 OFFCURVE",
"924 3 OFFCURVE",
"979 28 QCURVE",
"1308 -206 LINE",
"1343 -165 LINE"
);
},
{
closed = 1;
nodes = (
"322 203 OFFCURVE",
"185 512 OFFCURVE",
"185 719 QCURVE SMOOTH",
"185 739 LINE SMOOTH",
"185 945 OFFCURVE",
"322 1253 OFFCURVE",
"570 1423 OFFCURVE",
"738 1423 QCURVE SMOOTH",
"907 1423 OFFCURVE",
"1157 1253 OFFCURVE",
"1294 945 OFFCURVE",
"1294 739 QCURVE SMOOTH",
"1294 719 LINE SMOOTH",
"1294 512 OFFCURVE",
"1158 203 OFFCURVE",
"909 33 OFFCURVE",
"740 33 QCURVE SMOOTH",
"571 33 OFFCURVE"
);
}
);
width = 1478;
},
{
layerId = "142AFF07-46EF-45A1-8A7E-F20FA79F7038";
paths = (
{
closed = 1;
nodes = (
"1044 79 LINE",
"1183 170 OFFCURVE",
"1316 502 OFFCURVE",
"1316 718 QCURVE SMOOTH",
"1316 737 LINE SMOOTH",
"1316 903 OFFCURVE",
"1233 1174 OFFCURVE",
"1074 1371 OFFCURVE",
"849 1477 OFFCURVE",
"708 1477 QCURVE SMOOTH",
"570 1477 OFFCURVE",
"347 1371 OFFCURVE",
"187 1174 OFFCURVE",
"102 903 OFFCURVE",
"102 737 QCURVE SMOOTH",
"102 718 LINE SMOOTH",
"102 553 OFFCURVE",
"188 282 OFFCURVE",
"348 85 OFFCURVE",
"572 -21 OFFCURVE",
"710 -21 QCURVE SMOOTH",
"769 -21 OFFCURVE",
"883 0 OFFCURVE",
"936 21 QCURVE",
"1275 -224 LINE",
"1345 -134 LINE"
);
},
{
closed = 1;
nodes = (
"340 242 OFFCURVE",
"223 528 OFFCURVE",
"223 718 QCURVE SMOOTH",
"223 739 LINE SMOOTH",
"223 928 OFFCURVE",
"340 1213 OFFCURVE",
"558 1372 OFFCURVE",
"708 1372 QCURVE SMOOTH",
"865 1372 OFFCURVE",
"1083 1213 OFFCURVE",
"1196 929 OFFCURVE",
"1196 739 QCURVE SMOOTH",
"1196 718 LINE SMOOTH",
"1196 528 OFFCURVE",
"1083 242 OFFCURVE",
"866 84 OFFCURVE",
"710 84 QCURVE SMOOTH",
"558 84 OFFCURVE"
);
}
);
width = 1431;
},
{
layerId = "1A30CC2E-2F0E-43C1-8400-CBCC094AAC97";
paths = (
{
closed = 1;
nodes = (
"1185 203 OFFCURVE",
"1279 520 OFFCURVE",
"1279 717 QCURVE SMOOTH",
"1279 738 LINE SMOOTH",
"1279 900 OFFCURVE",
"1201 1170 OFFCURVE",
"1048 1369 OFFCURVE",
"822 1477 OFFCURVE",
"674 1477 QCURVE SMOOTH",
"533 1477 OFFCURVE",
"309 1369 OFFCURVE",
"153 1170 OFFCURVE",
"70 900 OFFCURVE",
"70 738 QCURVE SMOOTH",
"70 717 LINE SMOOTH",
"70 555 OFFCURVE",
"153 285 OFFCURVE",
"310 87 OFFCURVE",
"534 -21 OFFCURVE",
"674 -21 QCURVE SMOOTH",
"729 -21 OFFCURVE",
"835 -3 OFFCURVE",
"885 13 QCURVE",
"1237 -245 LINE",
"1348 -98 LINE",
"1056 105 LINE"
);
},
{
closed = 1;
nodes = (
"360 288 OFFCURVE",
"267 547 OFFCURVE",
"267 717 QCURVE SMOOTH",
"267 740 LINE SMOOTH",
"267 909 OFFCURVE",
"362 1166 OFFCURVE",
"544 1312 OFFCURVE",
"674 1312 QCURVE SMOOTH",
"817 1312 OFFCURVE",
"997 1167 OFFCURVE",
"1082 910 OFFCURVE",
"1082 740 QCURVE SMOOTH",
"1082 717 LINE SMOOTH",
"1082 546 OFFCURVE",
"995 287 OFFCURVE",
"815 143 OFFCURVE",
"674 143 QCURVE SMOOTH",
"542 143 OFFCURVE"
);
}
);
userData = {
assembly = "NPUSHB[ ]	/* 46 values pushed */\01225 2 2 0 2 1 76 1 1 0 73 0 3 3 1 97 0 1 1 37 77 4 1 2 2 0 97 0 0 0 38 0 78 27 26 36 34 26 43 27 43 41 36 5 8 24 \012CALL[ ]	/* CallFunction */";
};
width = 1376;
},
{
layerId = "E08E4BD2-F9DD-4A22-B137-462FE0EF4830";
paths = (
{
closed = 1;
nodes = (
"1127 114 LINE",
"1250 213 OFFCURVE",
"1387 527 OFFCURVE",
"1387 717 QCURVE SMOOTH",
"1387 739 LINE SMOOTH",
"1387 898 OFFCURVE",
"1292 1168 OFFCURVE",
"1115 1367 OFFCURVE",
"872 1477 OFFCURVE",
"724 1477 QCURVE SMOOTH",
"577 1477 OFFCURVE",
"335 1367 OFFCURVE",
"161 1168 OFFCURVE",
"67 898 OFFCURVE",
"67 739 QCURVE SMOOTH",
"67 717 LINE SMOOTH",
"67 557 OFFCURVE",
"161 287 OFFCURVE",
"335 89 OFFCURVE",
"578 -21 OFFCURVE",
"725 -21 QCURVE SMOOTH",
"764 -21 OFFCURVE",
"843 -11 OFFCURVE",
"882 -3 QCURVE",
"1293 -281 LINE",
"1437 -79 LINE"
);
},
{
closed = 1;
nodes = (
"440 334 OFFCURVE",
"359 564 OFFCURVE",
"359 717 QCURVE SMOOTH",
"359 741 LINE SMOOTH",
"359 894 OFFCURVE",
"439 1122 OFFCURVE",
"601 1249 OFFCURVE",
"724 1249 QCURVE SMOOTH",
"847 1249 OFFCURVE",
"1012 1121 OFFCURVE",
"1096 892 OFFCURVE",
"1096 741 QCURVE SMOOTH",
"1096 717 LINE SMOOTH",
"1096 564 OFFCURVE",
"1014 334 OFFCURVE",
"849 206 OFFCURVE",
"725 206 QCURVE SMOOTH",
"604 206 OFFCURVE"
);
}
);
width = 1449;
},
{
layerId = "3540F6DD-AC2C-489F-A09A-29A5B6885314";
paths = (
{
closed = 1;
nodes = (
"1171 120 LINE",
"1290 219 OFFCURVE",
"1454 532 OFFCURVE",
"1454 717 QCURVE SMOOTH",
"1454 740 LINE SMOOTH",
"1454 897 OFFCURVE",
"1348 1166 OFFCURVE",
"1157 1366 OFFCURVE",
"903 1477 OFFCURVE",
"755 1477 QCURVE SMOOTH",
"604 1477 OFFCURVE",
"351 1366 OFFCURVE",
"166 1166 OFFCURVE",
"65 897 OFFCURVE",
"65 740 QCURVE SMOOTH",
"65 717 LINE SMOOTH",
"65 558 OFFCURVE",
"166 289 OFFCURVE",
"351 90 OFFCURVE",
"605 -21 OFFCURVE",
"757 -21 QCURVE SMOOTH",
"786 -21 OFFCURVE",
"848 -16 OFFCURVE",
"880 -13 QCURVE",
"1328 -303 LINE",
"1492 -67 LINE"
);
},
{
closed = 1;
nodes = (
"490 362 OFFCURVE",
"416 575 OFFCURVE",
"416 717 QCURVE SMOOTH",
"416 742 LINE SMOOTH",
"416 884 OFFCURVE",
"487 1094 OFFCURVE",
"637 1210 OFFCURVE",
"755 1210 QCURVE SMOOTH",
"866 1210 OFFCURVE",
"1022 1092 OFFCURVE",
"1105 881 OFFCURVE",
"1105 742 QCURVE SMOOTH",
"1105 717 LINE SMOOTH",
"1105 575 OFFCURVE",
"1025 363 OFFCURVE",
"870 245 OFFCURVE",
"757 245 QCURVE SMOOTH",
"642 245 OFFCURVE"
);
}
);
width = 1494;
}
);
note = Q;
unicode = 0051;
},
{
glyphname = R;
lastChange = "2021-04-25 04:09:00 +0000";
layers = (
{
layerId = "E37246A9-A376-4020-9DA5-E0C9FF7935B5";
paths = (
{
closed = 1;
nodes = (
"451 53 LINE",
"288 53 LINE",
"288 683 LINE",
"652 683 LINE SMOOTH",
"796 683 OFFCURVE",
"1013 772 OFFCURVE",
"1134 943 OFFCURVE",
"1134 1065 QCURVE SMOOTH",
"1134 1193 OFFCURVE",
"1023 1366 OFFCURVE",
"810 1455 OFFCURVE",
"656 1455 QCURVE SMOOTH",
"71 1455 LINE",
"71 1401 LINE",
"234 1401 LINE",
"234 53 LINE",
"71 53 LINE",
"71 -1 LINE",
"451 -1 LINE"
);
},
{
closed = 1;
nodes = (
"1236 53 LINE",
"1103 53 LINE",
"816 718 LINE",
"762 718 LINE",
"1067 -1 LINE",
"1236 -1 LINE"
);
},
{
closed = 1;
nodes = (
"656 1401 LINE SMOOTH",
"867 1401 OFFCURVE",
"1080 1228 OFFCURVE",
"1080 1065 QCURVE SMOOTH",
"1080 925 OFFCURVE",
"872 737 OFFCURVE",
"651 737 QCURVE SMOOTH",
"288 737 LINE",
"288 1401 LINE"
);
}
);
width = 1364;
},
{
layerId = "142AFF07-46EF-45A1-8A7E-F20FA79F7038";
paths = (
{
closed = 1;
nodes = (
"522 87 LINE",
"359 100 LINE",
"359 668 LINE",
"705 671 LINE SMOOTH",
"847 672 OFFCURVE",
"1058 761 OFFCURVE",
"1175 933 OFFCURVE",
"1175 1058 QCURVE SMOOTH",
"1175 1187 OFFCURVE",
"1062 1363 OFFCURVE",
"846 1455 OFFCURVE",
"690 1455 QCURVE SMOOTH",
"76 1455 LINE",
"76 1368 LINE",
"239 1355 LINE",
"239 100 LINE",
"76 87 LINE",
"76 -1 LINE",
"522 -1 LINE"
);
},
{
closed = 1;
nodes = (
"1259 88 LINE",
"1140 96 LINE",
"862 723 LINE",
"742 722 LINE",
"1055 -1 LINE",
"1259 -1 LINE"
);
},
{
closed = 1;
nodes = (
"690 1355 LINE SMOOTH",
"873 1355 OFFCURVE",
"1055 1200 OFFCURVE",
"1055 1059 QCURVE SMOOTH",
"1055 928 OFFCURVE",
"873 768 OFFCURVE",
"678 768 QCURVE SMOOTH",
"359 768 LINE",
"359 1355 LINE"
);
}
);
width = 1374;
},
{
layerId = "1A30CC2E-2F0E-43C1-8400-CBCC094AAC97";
paths = (
{
closed = 1;
nodes = (
"441 154 LINE",
"441 650 LINE",
"767 656 LINE SMOOTH",
"907 659 OFFCURVE",
"1111 748 OFFCURVE",
"1222 922 OFFCURVE",
"1222 1050 QCURVE SMOOTH",
"1222 1180 OFFCURVE",
"1108 1360 OFFCURVE",
"889 1455 OFFCURVE",
"730 1455 QCURVE SMOOTH",
"81 1455 LINE",
"81 1329 LINE",
"244 1301 LINE",
"244 154 LINE",
"81 126 LINE",
"81 0 LINE",
"604 0 LINE",
"604 126 LINE"
);
},
{
closed = 1;
nodes = (
"881 1301 OFFCURVE",
"1025 1167 OFFCURVE",
"1025 1052 QCURVE SMOOTH",
"1025 931 OFFCURVE",
"875 805 OFFCURVE",
"710 805 QCURVE SMOOTH",
"441 805 LINE",
"441 1301 LINE",
"730 1301 LINE SMOOTH"
);
},
{
closed = 1;
nodes = (
"915 729 LINE",
"718 727 LINE",
"1042 0 LINE",
"1285 0 LINE",
"1285 129 LINE",
"1184 147 LINE"
);
}
);
userData = {
assembly = "NPUSHB[ ]	/* 19 values pushed */\0125 1 4 1 28 18 17 3 2 5 0 2 2 76 4 1 4 1 75 \012MPPEM[ ]	/* MeasurePixelPerEm */\012PUSHB[ ]	/* 1 value pushed */\01233 \012LT[ ]	/* LessThan */\012IF[ ]	/* If */\012NPUSHB[ ]	/* 33 values pushed */\0120 6 3 2 3 6 114 0 3 0 2 0 3 2 103 7 1 4 4 1 95 0 1 1 31 77 5 1 0 0 32 0 78 \012ELSE[ ]	/* Else */\012NPUSHB[ ]	/* 34 values pushed */\0120 6 3 2 3 6 2 128 0 3 0 2 0 3 2 103 7 1 4 4 1 95 0 1 1 31 77 5 1 0 0 32 0 78 \012EIF[ ]	/* EndIf */\012NPUSHB[ ]	/* 17 values pushed */\01219 19 32 31 30 29 19 27 19 26 36 38 37 16 8 8 26 \012CALL[ ]	/* CallFunction */";
};
width = 1385;
},
{
layerId = "E08E4BD2-F9DD-4A22-B137-462FE0EF4830";
paths = (
{
closed = 1;
nodes = (
"659 175 LINE",
"503 205 LINE",
"503 575 LINE",
"778 575 LINE SMOOTH",
"927 576 OFFCURVE",
"1155 692 OFFCURVE",
"1283 894 OFFCURVE",
"1283 1022 QCURVE SMOOTH",
"1283 1158 OFFCURVE",
"1154 1352 OFFCURVE",
"914 1456 OFFCURVE",
"746 1456 QCURVE SMOOTH",
"56 1456 LINE",
"56 1280 LINE",
"211 1250 LINE",
"211 205 LINE",
"56 175 LINE",
"56 0 LINE",
"659 0 LINE"
);
},
{
closed = 1;
nodes = (
"1347 175 LINE",
"1223 204 LINE",
"1011 694 LINE",
"748 629 LINE",
"993 0 LINE",
"1347 0 LINE"
);
},
{
closed = 1;
nodes = (
"746 1231 LINE SMOOTH",
"868 1231 OFFCURVE",
"992 1110 OFFCURVE",
"992 1009 QCURVE SMOOTH",
"992 907 OFFCURVE",
"867 800 OFFCURVE",
"741 800 QCURVE SMOOTH",
"503 800 LINE",
"503 1231 LINE"
);
}
);
width = 1408;
},
{
layerId = "3540F6DD-AC2C-489F-A09A-29A5B6885314";
paths = (
{
closed = 1;
nodes = (
"693 205 LINE",
"542 237 LINE",
"542 528 LINE",
"785 525 LINE SMOOTH",
"940 524 OFFCURVE",
"1182 657 OFFCURVE",
"1321 877 OFFCURVE",
"1321 1005 QCURVE SMOOTH",
"1321 1144 OFFCURVE",
"1183 1347 OFFCURVE",
"929 1457 OFFCURVE",
"756 1457 QCURVE SMOOTH",
"40 1457 LINE",
"40 1250 LINE",
"191 1218 LINE",
"191 237 LINE",
"40 205 LINE",
"40 0 LINE",
"693 0 LINE"
);
},
{
closed = 1;
nodes = (
"1386 204 LINE",
"1248 239 LINE",
"1071 672 LINE",
"766 568 LINE",
"962 0 LINE",
"1386 0 LINE"
);
},
{
closed = 1;
nodes = (
"756 1188 LINE SMOOTH",
"860 1188 OFFCURVE",
"972 1075 OFFCURVE",
"972 982 QCURVE SMOOTH",
"972 892 OFFCURVE",
"862 797 OFFCURVE",
"760 797 QCURVE SMOOTH",
"542 797 LINE",
"542 1188 LINE"
);
}
);
width = 1422;
}
);
note = R;
unicode = 0052;
},
{
glyphname = S;
lastChange = "2021-04-25 04:09:00 +0000";
layers = (
{
layerId = "E37246A9-A376-4020-9DA5-E0C9FF7935B5";
paths = (
{
closed = 1;
nodes = (
"954 69 OFFCURVE",
"1083 236 OFFCURVE",
"1083 351 QCURVE SMOOTH",
"1083 523 OFFCURVE",
"836 716 OFFCURVE",
"594 781 QCURVE SMOOTH",
"428 826 OFFCURVE",
"252 924 OFFCURVE",
"186 1049 OFFCURVE",
"186 1131 QCURVE SMOOTH",
"186 1209 OFFCURVE",
"278 1342 OFFCURVE",
"455 1423 OFFCURVE",
"582 1423 QCURVE SMOOTH",
"699 1423 OFFCURVE",
"903 1357 OFFCURVE",
"981 1292 QCURVE",
"981 1088 LINE",
"1035 1088 LINE",
"1035 1322 LINE",
"950 1393 OFFCURVE",
"723 1477 OFFCURVE",
"582 1477 QCURVE SMOOTH",
"447 1477 OFFCURVE",
"244 1389 OFFCURVE",
"132 1233 OFFCURVE",
"132 1129 QCURVE SMOOTH",
"132 1023 OFFCURVE",
"217 879 OFFCURVE",
"413 775 OFFCURVE",
"579 729 QCURVE SMOOTH",
"745 683 OFFCURVE",
"941 577 OFFCURVE",
"1028 441 OFFCURVE",
"1028 349 QCURVE SMOOTH",
"1028 256 OFFCURVE",
"915 113 OFFCURVE",
"717 33 OFFCURVE",
"589 33 QCURVE SMOOTH",
"484 33 OFFCURVE",
"262 96 OFFCURVE",
"154 164 QCURVE",
"154 390 LINE",
"100 390 LINE",
"100 133 LINE",
"219 53 OFFCURVE",
"472 -21 OFFCURVE",
"589 -21 QCURVE SMOOTH",
"731 -21 OFFCURVE"
);
}
);
width = 1183;
},
{
layerId = "142AFF07-46EF-45A1-8A7E-F20FA79F7038";
paths = (
{
closed = 1;
nodes = (
"971 75 OFFCURVE",
"1098 248 OFFCURVE",
"1098 364 QCURVE SMOOTH",
"1098 532 OFFCURVE",
"856 739 OFFCURVE",
"619 800 QCURVE SMOOTH",
"473 839 OFFCURVE",
"311 924 OFFCURVE",
"245 1035 OFFCURVE",
"245 1108 QCURVE SMOOTH",
"245 1184 OFFCURVE",
"328 1304 OFFCURVE",
"482 1375 OFFCURVE",
"589 1375 QCURVE SMOOTH",
"698 1375 OFFCURVE",
"870 1317 OFFCURVE",
"933 1266 QCURVE",
"948 1060 LINE",
"1047 1060 LINE",
"1047 1320 LINE",
"967 1389 OFFCURVE",
"736 1477 OFFCURVE",
"589 1477 QCURVE SMOOTH",
"450 1477 OFFCURVE",
"241 1382 OFFCURVE",
"125 1215 OFFCURVE",
"125 1106 QCURVE SMOOTH",
"125 999 OFFCURVE",
"220 844 OFFCURVE",
"421 734 OFFCURVE",
"580 693 QCURVE SMOOTH",
"728 655 OFFCURVE",
"901 563 OFFCURVE",
"978 442 OFFCURVE",
"978 362 QCURVE SMOOTH",
"978 279 OFFCURVE",
"883 152 OFFCURVE",
"712 81 OFFCURVE",
"597 81 QCURVE SMOOTH",
"500 81 OFFCURVE",
"310 135 OFFCURVE",
"222 190 QCURVE",
"207 417 LINE",
"107 417 LINE",
"107 135 LINE",
"223 55 OFFCURVE",
"472 -21 OFFCURVE",
"597 -21 QCURVE SMOOTH",
"745 -21 OFFCURVE"
);
}
);
width = 1194;
},
{
layerId = "1A30CC2E-2F0E-43C1-8400-CBCC094AAC97";
paths = (
{
closed = 1;
nodes = (
"990 81 OFFCURVE",
"1116 262 OFFCURVE",
"1116 379 QCURVE SMOOTH",
"1116 543 OFFCURVE",
"879 766 OFFCURVE",
"649 823 QCURVE SMOOTH",
"526 854 OFFCURVE",
"379 925 OFFCURVE",
"314 1019 OFFCURVE",
"314 1082 QCURVE SMOOTH",
"314 1154 OFFCURVE",
"386 1260 OFFCURVE",
"514 1319 OFFCURVE",
"598 1319 QCURVE SMOOTH",
"697 1319 OFFCURVE",
"831 1271 OFFCURVE",
"876 1235 QCURVE",
"909 1027 LINE",
"1062 1027 LINE",
"1062 1318 LINE",
"986 1384 OFFCURVE",
"751 1477 OFFCURVE",
"598 1477 QCURVE SMOOTH",
"454 1477 OFFCURVE",
"238 1373 OFFCURVE",
"117 1193 OFFCURVE",
"117 1079 QCURVE SMOOTH",
"117 971 OFFCURVE",
"224 804 OFFCURVE",
"431 687 OFFCURVE",
"581 652 QCURVE SMOOTH",
"708 623 OFFCURVE",
"855 546 OFFCURVE",
"919 444 OFFCURVE",
"919 377 QCURVE SMOOTH",
"919 305 OFFCURVE",
"845 197 OFFCURVE",
"706 136 OFFCURVE",
"606 136 QCURVE SMOOTH",
"518 136 OFFCURVE",
"366 180 OFFCURVE",
"301 220 QCURVE",
"268 449 LINE",
"115 449 LINE",
"115 138 LINE",
"227 57 OFFCURVE",
"473 -21 OFFCURVE",
"606 -21 QCURVE SMOOTH",
"761 -21 OFFCURVE"
);
}
);
userData = {
assembly = "NPUSHB[ ]	/* 66 values pushed */\01228 1 4 5 3 1 2 1 2 76 0 4 5 1 5 4 1 128 0 1 2 5 1 2 126 0 5 5 3 97 0 3 3 37 77 0 2 2 0 97 6 1 0 0 38 0 78 1 0 35 33 30 29 26 24 10 8 5 4 0 48 1 48 7 8 22 \012CALL[ ]	/* CallFunction */";
};
width = 1206;
},
{
layerId = "E08E4BD2-F9DD-4A22-B137-462FE0EF4830";
paths = (
{
closed = 1;
nodes = (
"1054 77 OFFCURVE",
"1188 258 OFFCURVE",
"1188 382 QCURVE SMOOTH",
"1188 561 OFFCURVE",
"939 781 OFFCURVE",
"698 848 QCURVE",
"586 885 OFFCURVE",
"459 950 OFFCURVE",
"405 1023 OFFCURVE",
"405 1072 QCURVE SMOOTH",
"405 1129 OFFCURVE",
"467 1209 OFFCURVE",
"574 1251 OFFCURVE",
"644 1251 QCURVE SMOOTH",
"726 1251 OFFCURVE",
"855 1215 OFFCURVE",
"893 1191 QCURVE",
"931 991 LINE",
"1150 991 LINE",
"1150 1319 LINE",
"1056 1394 OFFCURVE",
"797 1478 OFFCURVE",
"629 1476 QCURVE SMOOTH",
"477 1474 OFFCURVE",
"245 1370 OFFCURVE",
"114 1189 OFFCURVE",
"114 1071 QCURVE SMOOTH",
"114 952 OFFCURVE",
"227 783 OFFCURVE",
"454 662 OFFCURVE",
"627 611 QCURVE SMOOTH",
"727 580 OFFCURVE",
"844 513 OFFCURVE",
"895 432 OFFCURVE",
"895 380 QCURVE SMOOTH",
"895 325 OFFCURVE",
"838 244 OFFCURVE",
"729 200 OFFCURVE",
"650 200 QCURVE SMOOTH",
"557 200 OFFCURVE",
"399 247 OFFCURVE",
"354 285 QCURVE",
"323 492 LINE",
"97 492 LINE",
"97 140 LINE",
"225 51 OFFCURVE",
"489 -21 OFFCURVE",
"650 -21 QCURVE SMOOTH",
"812 -21 OFFCURVE"
);
}
);
width = 1247;
},
{
layerId = "3540F6DD-AC2C-489F-A09A-29A5B6885314";
paths = (
{
closed = 1;
nodes = (
"1093 74 OFFCURVE",
"1233 255 OFFCURVE",
"1233 384 QCURVE SMOOTH",
"1233 572 OFFCURVE",
"976 791 OFFCURVE",
"728 864 QCURVE",
"624 904 OFFCURVE",
"508 965 OFFCURVE",
"462 1026 OFFCURVE",
"462 1065 QCURVE SMOOTH",
"462 1113 OFFCURVE",
"517 1177 OFFCURVE",
"612 1209 OFFCURVE",
"673 1209 QCURVE SMOOTH",
"744 1209 OFFCURVE",
"870 1181 OFFCURVE",
"904 1164 QCURVE",
"945 969 LINE",
"1205 969 LINE",
"1205 1320 LINE",
"1100 1400 OFFCURVE",
"826 1479 OFFCURVE",
"648 1475 QCURVE SMOOTH",
"492 1472 OFFCURVE",
"250 1368 OFFCURVE",
"112 1187 OFFCURVE",
"112 1066 QCURVE SMOOTH",
"112 940 OFFCURVE",
"229 770 OFFCURVE",
"469 646 OFFCURVE",
"656 586 QCURVE",
"739 554 OFFCURVE",
"837 493 OFFCURVE",
"880 425 OFFCURVE",
"880 382 QCURVE SMOOTH",
"880 337 OFFCURVE",
"834 273 OFFCURVE",
"744 240 OFFCURVE",
"677 240 QCURVE SMOOTH",
"581 240 OFFCURVE",
"419 289 OFFCURVE",
"387 325 QCURVE",
"357 519 LINE",
"86 519 LINE",
"86 141 LINE",
"223 47 OFFCURVE",
"499 -21 OFFCURVE",
"677 -21 QCURVE SMOOTH",
"843 -21 OFFCURVE"
);
}
);
width = 1272;
}
);
note = S;
unicode = 0053;
},
{
glyphname = T;
lastChange = "2021-04-25 04:09:00 +0000";
layers = (
{
layerId = "E37246A9-A376-4020-9DA5-E0C9FF7935B5";
paths = (
{
closed = 1;
nodes = (
"827 54 LINE",
"664 54 LINE",
"664 1402 LINE",
"1140 1402 LINE",
"1140 1163 LINE",
"1194 1163 LINE",
"1194 1456 LINE",
"80 1456 LINE",
"80 1163 LINE",
"134 1163 LINE",
"134 1402 LINE",
"610 1402 LINE",
"610 54 LINE",
"447 54 LINE",
"447 0 LINE",
"827 0 LINE"
);
}
);
width = 1277;
},
{
layerId = "142AFF07-46EF-45A1-8A7E-F20FA79F7038";
paths = (
{
closed = 1;
nodes = (
"890 87 LINE",
"727 100 LINE",
"727 1358 LINE",
"1135 1358 LINE",
"1149 1136 LINE",
"1246 1136 LINE",
"1246 1456 LINE",
"87 1456 LINE",
"87 1136 LINE",
"185 1136 LINE",
"198 1358 LINE",
"607 1358 LINE",
"607 100 LINE",
"444 87 LINE",
"444 0 LINE",
"890 0 LINE"
);
}
);
width = 1337;
},
{
layerId = "1A30CC2E-2F0E-43C1-8400-CBCC094AAC97";
paths = (
{
closed = 1;
nodes = (
"800 1307 LINE",
"1130 1307 LINE",
"1160 1105 LINE",
"1306 1105 LINE",
"1306 1456 LINE",
"96 1456 LINE",
"96 1105 LINE",
"244 1105 LINE",
"273 1307 LINE",
"603 1307 LINE",
"603 154 LINE",
"440 126 LINE",
"440 0 LINE",
"963 0 LINE",
"963 126 LINE",
"800 154 LINE"
);
}
);
userData = {
assembly = "NPUSHB[ ]	/* 9 values pushed */\01215 4 3 0 4 0 2 1 76 \012MPPEM[ ]	/* MeasurePixelPerEm */\012PUSHB[ ]	/* 1 value pushed */\01212 \012LT[ ]	/* LessThan */\012IF[ ]	/* If */\012NPUSHB[ ]	/* 25 values pushed */\0124 1 2 1 0 1 2 114 5 1 1 1 3 95 0 3 3 31 77 0 0 0 32 0 78 \012ELSE[ ]	/* Else */\012NPUSHB[ ]	/* 26 values pushed */\0124 1 2 1 0 1 2 0 128 5 1 1 1 3 95 0 3 3 31 77 0 0 0 32 0 78 \012EIF[ ]	/* EndIf */\012NPUSHB[ ]	/* 9 values pushed */\01217 17 17 17 19 17 6 8 28 \012CALL[ ]	/* CallFunction */";
};
width = 1406;
},
{
layerId = "E08E4BD2-F9DD-4A22-B137-462FE0EF4830";
paths = (
{
closed = 1;
nodes = (
"996 175 LINE",
"839 205 LINE",
"839 1231 LINE",
"1106 1231 LINE",
"1122 1057 LINE",
"1344 1057 LINE",
"1344 1456 LINE",
"45 1456 LINE",
"45 1057 LINE",
"266 1057 LINE",
"282 1231 LINE",
"547 1231 LINE",
"547 205 LINE",
"391 175 LINE",
"391 0 LINE",
"996 0 LINE"
);
}
);
width = 1389;
},
{
layerId = "3540F6DD-AC2C-489F-A09A-29A5B6885314";
paths = (
{
closed = 1;
nodes = (
"1016 205 LINE",
"864 237 LINE",
"864 1184 LINE",
"1091 1184 LINE",
"1099 1027 LINE",
"1367 1027 LINE",
"1367 1456 LINE",
"14 1456 LINE",
"14 1027 LINE",
"279 1027 LINE",
"288 1184 LINE",
"513 1184 LINE",
"513 237 LINE",
"361 205 LINE",
"361 0 LINE",
"1016 0 LINE"
);
}
);
width = 1379;
}
);
note = T;
unicode = 0054;
},
